<mxfile host="app.diagrams.net" modified="2023-12-27T15:30:16.489Z" agent="Mozilla/5.0 (Windows NT 10.0; Win64; x64) AppleWebKit/537.36 (KHTML, like Gecko) Chrome/120.0.0.0 Safari/537.36" etag="SSR0m_ewXtrF9jHnuLlu" version="22.1.13" type="google">
  <diagram id="R2lEEEUBdFMjLlhIrx00" name="Page-1">
    <mxGraphModel dx="4654" dy="1626" grid="1" gridSize="10" guides="1" tooltips="1" connect="1" arrows="1" fold="1" page="1" pageScale="1" pageWidth="1654" pageHeight="1169" math="0" shadow="0" extFonts="Permanent Marker^https://fonts.googleapis.com/css?family=Permanent+Marker">
      <root>
        <mxCell id="0" />
        <mxCell id="1" parent="0" />
        <mxCell id="l1qlM_hG5PVcN0XE2cs9-1" value="Film" style="whiteSpace=wrap;html=1;align=center;rounded=1;" parent="1" vertex="1">
          <mxGeometry x="567" y="608" width="100" height="40" as="geometry" />
        </mxCell>
        <mxCell id="lc_thMG3hRJmn10JfuWX-1" value="Genere" style="whiteSpace=wrap;html=1;align=center;rounded=1;" parent="1" vertex="1">
          <mxGeometry x="404.5" y="433" width="100" height="40" as="geometry" />
        </mxCell>
        <mxCell id="l1qlM_hG5PVcN0XE2cs9-2" value="Ruolo" style="whiteSpace=wrap;html=1;align=center;rounded=1;" parent="1" vertex="1">
          <mxGeometry x="594" y="278" width="100" height="40" as="geometry" />
        </mxCell>
        <mxCell id="PAqqVsTEMDmfQBmjxhDG-17" style="edgeStyle=orthogonalEdgeStyle;rounded=1;orthogonalLoop=1;jettySize=auto;html=1;exitX=1;exitY=0.75;exitDx=0;exitDy=0;entryX=0.5;entryY=0;entryDx=0;entryDy=0;endArrow=none;endFill=0;" parent="1" source="lc_thMG3hRJmn10JfuWX-2" target="a_6csDNS0PU0sw6D-ZlP-71" edge="1">
          <mxGeometry relative="1" as="geometry">
            <Array as="points">
              <mxPoint x="1157" y="428" />
              <mxPoint x="1157" y="698" />
              <mxPoint x="1267" y="698" />
            </Array>
          </mxGeometry>
        </mxCell>
        <mxCell id="lc_thMG3hRJmn10JfuWX-2" value="Utente" style="whiteSpace=wrap;html=1;align=center;rounded=1;direction=east;" parent="1" vertex="1">
          <mxGeometry x="974" y="398" width="100" height="40" as="geometry" />
        </mxCell>
        <mxCell id="l1qlM_hG5PVcN0XE2cs9-3" value="Paese" style="whiteSpace=wrap;html=1;align=center;rounded=1;" parent="1" vertex="1">
          <mxGeometry x="837" y="788" width="100" height="40" as="geometry" />
        </mxCell>
        <mxCell id="l1qlM_hG5PVcN0XE2cs9-4" value="Lingua" style="whiteSpace=wrap;html=1;align=center;rounded=1;" parent="1" vertex="1">
          <mxGeometry x="217" y="133" width="95" height="45" as="geometry" />
        </mxCell>
        <mxCell id="lc_thMG3hRJmn10JfuWX-3" value="Server" style="whiteSpace=wrap;html=1;align=center;rounded=1;" parent="1" vertex="1">
          <mxGeometry x="554" y="900.5" width="100" height="40" as="geometry" />
        </mxCell>
        <mxCell id="lc_thMG3hRJmn10JfuWX-6" value="Restrizione" style="whiteSpace=wrap;html=1;align=center;rounded=1;" parent="1" vertex="1">
          <mxGeometry x="97" y="788" width="100" height="40" as="geometry" />
        </mxCell>
        <mxCell id="l1qlM_hG5PVcN0XE2cs9-5" value="Dispositivo&lt;br&gt;" style="whiteSpace=wrap;html=1;align=center;rounded=1;" parent="1" vertex="1">
          <mxGeometry x="1217" y="1000.5" width="100" height="40" as="geometry" />
        </mxCell>
        <mxCell id="lc_thMG3hRJmn10JfuWX-5" value="Formato" style="whiteSpace=wrap;html=1;align=center;rounded=1;" parent="1" vertex="1">
          <mxGeometry x="217" y="448" width="100" height="30" as="geometry" />
        </mxCell>
        <mxCell id="lc_thMG3hRJmn10JfuWX-9" value="Metodo Pagamento&lt;br&gt;" style="whiteSpace=wrap;html=1;align=center;direction=east;" parent="1" vertex="1">
          <mxGeometry x="1367" y="398" width="100" height="40" as="geometry" />
        </mxCell>
        <mxCell id="l1qlM_hG5PVcN0XE2cs9-7" value="PayPal" style="whiteSpace=wrap;html=1;align=center;direction=east;rounded=1;" parent="1" vertex="1">
          <mxGeometry x="1490" y="533" width="100" height="40" as="geometry" />
        </mxCell>
        <mxCell id="lc_thMG3hRJmn10JfuWX-10" value="Carta" style="whiteSpace=wrap;html=1;align=center;direction=east;rounded=1;" parent="1" vertex="1">
          <mxGeometry x="1490" y="288" width="100" height="30" as="geometry" />
        </mxCell>
        <mxCell id="l1qlM_hG5PVcN0XE2cs9-8" value="Attore" style="whiteSpace=wrap;html=1;align=center;rounded=1;" parent="1" vertex="1">
          <mxGeometry x="507" y="398" width="100" height="40" as="geometry" />
        </mxCell>
        <mxCell id="l1qlM_hG5PVcN0XE2cs9-9" value="Regista" style="whiteSpace=wrap;html=1;align=center;rounded=1;" parent="1" vertex="1">
          <mxGeometry x="677" y="398" width="100" height="40" as="geometry" />
        </mxCell>
        <mxCell id="l1qlM_hG5PVcN0XE2cs9-10" value="" style="endArrow=none;html=1;rounded=1;entryX=0.5;entryY=0;entryDx=0;entryDy=0;" parent="1" target="l1qlM_hG5PVcN0XE2cs9-9" edge="1">
          <mxGeometry width="50" height="50" relative="1" as="geometry">
            <mxPoint x="557" y="398" as="sourcePoint" />
            <mxPoint x="727" y="398" as="targetPoint" />
            <Array as="points">
              <mxPoint x="557" y="368" />
              <mxPoint x="637" y="368" />
              <mxPoint x="727" y="368" />
            </Array>
          </mxGeometry>
        </mxCell>
        <mxCell id="l1qlM_hG5PVcN0XE2cs9-11" value="" style="shape=flexArrow;endArrow=classic;html=1;rounded=0;fillColor=#000000;" parent="1" edge="1">
          <mxGeometry width="50" height="50" relative="1" as="geometry">
            <mxPoint x="641.69" y="368" as="sourcePoint" />
            <mxPoint x="641.69" y="318" as="targetPoint" />
          </mxGeometry>
        </mxCell>
        <mxCell id="lc_thMG3hRJmn10JfuWX-23" value="" style="shape=flexArrow;endArrow=classic;html=1;rounded=0;fillColor=#000000;entryX=1;entryY=0.5;entryDx=0;entryDy=0;" parent="1" target="lc_thMG3hRJmn10JfuWX-9" edge="1">
          <mxGeometry width="50" height="50" relative="1" as="geometry">
            <mxPoint x="1540" y="418" as="sourcePoint" />
            <mxPoint x="1540" y="373" as="targetPoint" />
            <Array as="points" />
          </mxGeometry>
        </mxCell>
        <mxCell id="lc_thMG3hRJmn10JfuWX-24" value="FormatoAudio" style="whiteSpace=wrap;html=1;align=center;rounded=1;" parent="1" vertex="1">
          <mxGeometry x="147" y="318" width="100" height="40" as="geometry" />
        </mxCell>
        <mxCell id="l1qlM_hG5PVcN0XE2cs9-14" value="Formato Video" style="whiteSpace=wrap;html=1;align=center;rounded=1;" parent="1" vertex="1">
          <mxGeometry x="277" y="318" width="100" height="40" as="geometry" />
        </mxCell>
        <mxCell id="lc_thMG3hRJmn10JfuWX-29" value="" style="shape=flexArrow;endArrow=classic;html=1;rounded=0;fillColor=#000000;" parent="1" edge="1">
          <mxGeometry width="50" height="50" relative="1" as="geometry">
            <mxPoint x="266.5799999999999" y="398" as="sourcePoint" />
            <mxPoint x="266.5799999999999" y="448" as="targetPoint" />
          </mxGeometry>
        </mxCell>
        <mxCell id="l1qlM_hG5PVcN0XE2cs9-16" value="" style="endArrow=none;html=1;rounded=1;exitX=0.5;exitY=1;exitDx=0;exitDy=0;" parent="1" edge="1">
          <mxGeometry width="50" height="50" relative="1" as="geometry">
            <mxPoint x="327" y="358" as="sourcePoint" />
            <mxPoint x="197" y="358" as="targetPoint" />
            <Array as="points">
              <mxPoint x="327" y="398" />
              <mxPoint x="257" y="398" />
              <mxPoint x="197" y="398" />
            </Array>
          </mxGeometry>
        </mxCell>
        <mxCell id="l1qlM_hG5PVcN0XE2cs9-19" value="" style="endArrow=none;html=1;rounded=1;exitX=0.5;exitY=0;exitDx=0;exitDy=0;entryX=0.5;entryY=0;entryDx=0;entryDy=0;" parent="1" source="l1qlM_hG5PVcN0XE2cs9-18" target="lc_thMG3hRJmn10JfuWX-2" edge="1">
          <mxGeometry width="50" height="50" relative="1" as="geometry">
            <mxPoint x="877" y="378" as="sourcePoint" />
            <mxPoint x="927" y="328" as="targetPoint" />
            <Array as="points">
              <mxPoint x="867" y="358" />
              <mxPoint x="957" y="358" />
              <mxPoint x="1024" y="358" />
            </Array>
          </mxGeometry>
        </mxCell>
        <mxCell id="l1qlM_hG5PVcN0XE2cs9-18" value="Critico" style="whiteSpace=wrap;html=1;align=center;rounded=1;direction=east;" parent="1" vertex="1">
          <mxGeometry x="817" y="398" width="100" height="40" as="geometry" />
        </mxCell>
        <mxCell id="l1qlM_hG5PVcN0XE2cs9-20" value="" style="shape=flexArrow;endArrow=classic;html=1;rounded=0;fillColor=#000000;" parent="1" edge="1">
          <mxGeometry width="50" height="50" relative="1" as="geometry">
            <mxPoint x="947" y="358" as="sourcePoint" />
            <mxPoint x="947" y="308" as="targetPoint" />
          </mxGeometry>
        </mxCell>
        <mxCell id="a_6csDNS0PU0sw6D-ZlP-1" value="Persona" style="whiteSpace=wrap;html=1;align=center;rounded=1;direction=east;" parent="1" vertex="1">
          <mxGeometry x="897" y="268" width="100" height="40" as="geometry" />
        </mxCell>
        <mxCell id="l1qlM_hG5PVcN0XE2cs9-21" value="Recitazione" style="shape=rhombus;perimeter=rhombusPerimeter;whiteSpace=wrap;html=1;align=center;" parent="1" vertex="1">
          <mxGeometry x="497" y="468" width="120" height="60" as="geometry" />
        </mxCell>
        <mxCell id="a_6csDNS0PU0sw6D-ZlP-5" value="Preferenza" style="shape=rhombus;perimeter=rhombusPerimeter;whiteSpace=wrap;html=1;align=center;" parent="1" vertex="1">
          <mxGeometry x="1167" y="318" width="120" height="60" as="geometry" />
        </mxCell>
        <mxCell id="a_6csDNS0PU0sw6D-ZlP-10" value="" style="endArrow=none;html=1;rounded=0;exitX=0.5;exitY=0;exitDx=0;exitDy=0;entryX=0.5;entryY=1;entryDx=0;entryDy=0;" parent="1" source="l1qlM_hG5PVcN0XE2cs9-7" target="lc_thMG3hRJmn10JfuWX-10" edge="1">
          <mxGeometry width="50" height="50" relative="1" as="geometry">
            <mxPoint x="1310" y="263" as="sourcePoint" />
            <mxPoint x="1600" y="303" as="targetPoint" />
            <Array as="points" />
          </mxGeometry>
        </mxCell>
        <mxCell id="a_6csDNS0PU0sw6D-ZlP-17" value="Pagamento&lt;br&gt;" style="shape=rhombus;perimeter=rhombusPerimeter;whiteSpace=wrap;html=1;align=center;" parent="1" vertex="1">
          <mxGeometry x="1357" y="523" width="120" height="60" as="geometry" />
        </mxCell>
        <mxCell id="a_6csDNS0PU0sw6D-ZlP-16" value="Fatturazione" style="shape=rhombus;perimeter=rhombusPerimeter;whiteSpace=wrap;html=1;align=center;" parent="1" vertex="1">
          <mxGeometry x="1167" y="448" width="120" height="60" as="geometry" />
        </mxCell>
        <mxCell id="l1qlM_hG5PVcN0XE2cs9-30" value="(1, N)" style="text;html=1;align=center;verticalAlign=middle;resizable=0;points=[];autosize=1;strokeColor=none;fillColor=none;" parent="1" vertex="1">
          <mxGeometry x="687" y="523" width="50" height="30" as="geometry" />
        </mxCell>
        <mxCell id="l1qlM_hG5PVcN0XE2cs9-31" value="Regia" style="shape=rhombus;perimeter=rhombusPerimeter;whiteSpace=wrap;html=1;align=center;" parent="1" vertex="1">
          <mxGeometry x="629.5" y="468" width="120" height="60" as="geometry" />
        </mxCell>
        <mxCell id="l1qlM_hG5PVcN0XE2cs9-32" value="" style="endArrow=none;html=1;rounded=1;entryX=0.126;entryY=1.014;entryDx=0;entryDy=0;exitX=0.5;exitY=0;exitDx=0;exitDy=0;entryPerimeter=0;" parent="1" source="l1qlM_hG5PVcN0XE2cs9-31" target="l1qlM_hG5PVcN0XE2cs9-9" edge="1">
          <mxGeometry relative="1" as="geometry">
            <mxPoint x="597" y="482.58" as="sourcePoint" />
            <mxPoint x="757" y="482.58" as="targetPoint" />
            <Array as="points">
              <mxPoint x="690" y="438" />
            </Array>
          </mxGeometry>
        </mxCell>
        <mxCell id="l1qlM_hG5PVcN0XE2cs9-33" value="" style="endArrow=none;html=1;rounded=1;exitX=1;exitY=0;exitDx=0;exitDy=0;entryX=0.5;entryY=1;entryDx=0;entryDy=0;" parent="1" source="l1qlM_hG5PVcN0XE2cs9-1" target="l1qlM_hG5PVcN0XE2cs9-31" edge="1">
          <mxGeometry relative="1" as="geometry">
            <mxPoint x="727" y="638" as="sourcePoint" />
            <mxPoint x="887" y="638" as="targetPoint" />
            <Array as="points">
              <mxPoint x="690" y="608" />
            </Array>
          </mxGeometry>
        </mxCell>
        <mxCell id="l1qlM_hG5PVcN0XE2cs9-35" value="(1, N)" style="text;html=1;align=center;verticalAlign=middle;resizable=0;points=[];autosize=1;strokeColor=none;fillColor=none;" parent="1" vertex="1">
          <mxGeometry x="507" y="513" width="50" height="30" as="geometry" />
        </mxCell>
        <mxCell id="l1qlM_hG5PVcN0XE2cs9-34" value="(1, N)" style="text;html=1;align=center;verticalAlign=middle;resizable=0;points=[];autosize=1;strokeColor=none;fillColor=none;" parent="1" vertex="1">
          <mxGeometry x="687" y="438" width="50" height="30" as="geometry" />
        </mxCell>
        <mxCell id="PAqqVsTEMDmfQBmjxhDG-11" style="edgeStyle=orthogonalEdgeStyle;rounded=1;orthogonalLoop=1;jettySize=auto;html=1;exitX=0.5;exitY=1;exitDx=0;exitDy=0;entryX=0;entryY=0.5;entryDx=0;entryDy=0;endArrow=none;endFill=0;" parent="1" source="a_6csDNS0PU0sw6D-ZlP-41" target="l1qlM_hG5PVcN0XE2cs9-1" edge="1">
          <mxGeometry relative="1" as="geometry" />
        </mxCell>
        <mxCell id="a_6csDNS0PU0sw6D-ZlP-41" value="GenereFilm" style="shape=rhombus;perimeter=rhombusPerimeter;whiteSpace=wrap;html=1;align=center;" parent="1" vertex="1">
          <mxGeometry x="402" y="533" width="105" height="55" as="geometry" />
        </mxCell>
        <mxCell id="a_6csDNS0PU0sw6D-ZlP-44" value="(1, 1)" style="text;html=1;align=center;verticalAlign=middle;resizable=0;points=[];autosize=1;strokeColor=none;fillColor=none;" parent="1" vertex="1">
          <mxGeometry x="407" y="573" width="50" height="30" as="geometry" />
        </mxCell>
        <mxCell id="a_6csDNS0PU0sw6D-ZlP-48" value="FormatoFilm" style="shape=rhombus;perimeter=rhombusPerimeter;whiteSpace=wrap;html=1;align=center;" parent="1" vertex="1">
          <mxGeometry x="207" y="608" width="120" height="60" as="geometry" />
        </mxCell>
        <mxCell id="a_6csDNS0PU0sw6D-ZlP-50" value="" style="endArrow=none;html=1;rounded=0;entryX=0;entryY=0.75;entryDx=0;entryDy=0;exitX=1;exitY=0.5;exitDx=0;exitDy=0;" parent="1" source="a_6csDNS0PU0sw6D-ZlP-48" target="l1qlM_hG5PVcN0XE2cs9-1" edge="1">
          <mxGeometry relative="1" as="geometry">
            <mxPoint x="377" y="688" as="sourcePoint" />
            <mxPoint x="537" y="688" as="targetPoint" />
          </mxGeometry>
        </mxCell>
        <mxCell id="a_6csDNS0PU0sw6D-ZlP-51" value="(1, 1)" style="text;html=1;align=center;verticalAlign=middle;resizable=0;points=[];autosize=1;strokeColor=none;fillColor=none;" parent="1" vertex="1">
          <mxGeometry x="267" y="588" width="50" height="30" as="geometry" />
        </mxCell>
        <mxCell id="a_6csDNS0PU0sw6D-ZlP-52" value="(1, N)" style="text;html=1;align=center;verticalAlign=middle;resizable=0;points=[];autosize=1;strokeColor=none;fillColor=none;" parent="1" vertex="1">
          <mxGeometry x="317" y="608" width="50" height="30" as="geometry" />
        </mxCell>
        <mxCell id="a_6csDNS0PU0sw6D-ZlP-54" value="" style="endArrow=none;html=1;rounded=0;exitX=0.5;exitY=0;exitDx=0;exitDy=0;entryX=0.5;entryY=1;entryDx=0;entryDy=0;" parent="1" source="a_6csDNS0PU0sw6D-ZlP-41" target="lc_thMG3hRJmn10JfuWX-1" edge="1">
          <mxGeometry relative="1" as="geometry">
            <mxPoint x="407" y="925.5" as="sourcePoint" />
            <mxPoint x="567" y="925.5" as="targetPoint" />
            <Array as="points" />
          </mxGeometry>
        </mxCell>
        <mxCell id="a_6csDNS0PU0sw6D-ZlP-56" value="Audio" style="shape=rhombus;perimeter=rhombusPerimeter;whiteSpace=wrap;html=1;align=center;" parent="1" vertex="1">
          <mxGeometry x="75" y="228" width="120" height="60" as="geometry" />
        </mxCell>
        <mxCell id="a_6csDNS0PU0sw6D-ZlP-58" value="Sottotitolo" style="shape=rhombus;perimeter=rhombusPerimeter;whiteSpace=wrap;html=1;align=center;" parent="1" vertex="1">
          <mxGeometry x="337" y="228" width="120" height="60" as="geometry" />
        </mxCell>
        <mxCell id="l1qlM_hG5PVcN0XE2cs9-43" value="Geolocalizzazione" style="shape=rhombus;perimeter=rhombusPerimeter;whiteSpace=wrap;html=1;align=center;" parent="1" vertex="1">
          <mxGeometry x="1037" y="778" width="120" height="60" as="geometry" />
        </mxCell>
        <mxCell id="a_6csDNS0PU0sw6D-ZlP-68" value="" style="endArrow=none;html=1;rounded=0;exitX=1;exitY=0.5;exitDx=0;exitDy=0;entryX=0;entryY=0.5;entryDx=0;entryDy=0;" parent="1" source="lc_thMG3hRJmn10JfuWX-3" target="a_6csDNS0PU0sw6D-ZlP-69" edge="1">
          <mxGeometry relative="1" as="geometry">
            <mxPoint x="277" y="1050.5" as="sourcePoint" />
            <mxPoint x="427" y="1020.5" as="targetPoint" />
          </mxGeometry>
        </mxCell>
        <mxCell id="a_6csDNS0PU0sw6D-ZlP-69" value="Posizione" style="shape=rhombus;perimeter=rhombusPerimeter;whiteSpace=wrap;html=1;align=center;" parent="1" vertex="1">
          <mxGeometry x="827" y="890.5" width="120" height="60" as="geometry" />
        </mxCell>
        <mxCell id="PAqqVsTEMDmfQBmjxhDG-18" style="edgeStyle=orthogonalEdgeStyle;rounded=0;orthogonalLoop=1;jettySize=auto;html=1;exitX=0.5;exitY=1;exitDx=0;exitDy=0;entryX=0.5;entryY=0;entryDx=0;entryDy=0;endArrow=none;endFill=0;" parent="1" source="a_6csDNS0PU0sw6D-ZlP-71" target="l1qlM_hG5PVcN0XE2cs9-5" edge="1">
          <mxGeometry relative="1" as="geometry" />
        </mxCell>
        <mxCell id="a_6csDNS0PU0sw6D-ZlP-71" value="Utilizzo" style="shape=rhombus;perimeter=rhombusPerimeter;whiteSpace=wrap;html=1;align=center;" parent="1" vertex="1">
          <mxGeometry x="1207" y="900.5" width="120" height="60" as="geometry" />
        </mxCell>
        <mxCell id="a_6csDNS0PU0sw6D-ZlP-78" value="PaeseRestrizione" style="shape=rhombus;perimeter=rhombusPerimeter;whiteSpace=wrap;html=1;align=center;" parent="1" vertex="1">
          <mxGeometry x="372" y="778" width="120" height="60" as="geometry" />
        </mxCell>
        <mxCell id="a_6csDNS0PU0sw6D-ZlP-80" value="" style="endArrow=none;html=1;rounded=0;entryX=0;entryY=0.5;entryDx=0;entryDy=0;exitX=1;exitY=0.5;exitDx=0;exitDy=0;" parent="1" source="lc_thMG3hRJmn10JfuWX-6" target="a_6csDNS0PU0sw6D-ZlP-78" edge="1">
          <mxGeometry relative="1" as="geometry">
            <mxPoint x="147" y="1130.5" as="sourcePoint" />
            <mxPoint x="307" y="1130.5" as="targetPoint" />
          </mxGeometry>
        </mxCell>
        <mxCell id="a_6csDNS0PU0sw6D-ZlP-81" value="FormRestr" style="shape=rhombus;perimeter=rhombusPerimeter;whiteSpace=wrap;html=1;align=center;" parent="1" vertex="1">
          <mxGeometry x="87" y="548" width="120" height="60" as="geometry" />
        </mxCell>
        <mxCell id="PAqqVsTEMDmfQBmjxhDG-2" style="edgeStyle=orthogonalEdgeStyle;rounded=1;orthogonalLoop=1;jettySize=auto;html=1;exitX=0.5;exitY=1;exitDx=0;exitDy=0;entryX=1;entryY=0.5;entryDx=0;entryDy=0;endArrow=none;endFill=0;" parent="1" source="l1qlM_hG5PVcN0XE2cs9-52" target="l1qlM_hG5PVcN0XE2cs9-1" edge="1">
          <mxGeometry relative="1" as="geometry" />
        </mxCell>
        <mxCell id="l1qlM_hG5PVcN0XE2cs9-52" value="Critica" style="shape=rhombus;perimeter=rhombusPerimeter;whiteSpace=wrap;html=1;align=center;direction=east;" parent="1" vertex="1">
          <mxGeometry x="807" y="468" width="120" height="60" as="geometry" />
        </mxCell>
        <mxCell id="l1qlM_hG5PVcN0XE2cs9-55" value="(0, N)" style="text;html=1;align=center;verticalAlign=middle;resizable=0;points=[];autosize=1;strokeColor=none;fillColor=none;" parent="1" vertex="1">
          <mxGeometry x="817" y="513" width="50" height="30" as="geometry" />
        </mxCell>
        <mxCell id="a_6csDNS0PU0sw6D-ZlP-82" value="" style="endArrow=none;html=1;rounded=0;exitX=0.5;exitY=0;exitDx=0;exitDy=0;entryX=0.5;entryY=1;entryDx=0;entryDy=0;" parent="1" source="lc_thMG3hRJmn10JfuWX-6" target="a_6csDNS0PU0sw6D-ZlP-81" edge="1">
          <mxGeometry relative="1" as="geometry">
            <mxPoint x="187" y="558" as="sourcePoint" />
            <mxPoint x="347" y="558" as="targetPoint" />
          </mxGeometry>
        </mxCell>
        <mxCell id="a_6csDNS0PU0sw6D-ZlP-86" value="" style="endArrow=none;html=1;rounded=1;exitX=0.5;exitY=0;exitDx=0;exitDy=0;entryX=0;entryY=0.75;entryDx=0;entryDy=0;" parent="1" source="a_6csDNS0PU0sw6D-ZlP-81" target="lc_thMG3hRJmn10JfuWX-5" edge="1">
          <mxGeometry relative="1" as="geometry">
            <mxPoint x="177" y="788" as="sourcePoint" />
            <mxPoint x="337" y="788" as="targetPoint" />
            <Array as="points">
              <mxPoint x="145" y="471" />
            </Array>
          </mxGeometry>
        </mxCell>
        <mxCell id="PAqqVsTEMDmfQBmjxhDG-1" value="" style="endArrow=none;html=1;rounded=0;entryX=0.5;entryY=0;entryDx=0;entryDy=0;exitX=0.5;exitY=1;exitDx=0;exitDy=0;" parent="1" source="l1qlM_hG5PVcN0XE2cs9-18" target="l1qlM_hG5PVcN0XE2cs9-52" edge="1">
          <mxGeometry width="50" height="50" relative="1" as="geometry">
            <mxPoint x="817" y="488" as="sourcePoint" />
            <mxPoint x="867" y="438" as="targetPoint" />
          </mxGeometry>
        </mxCell>
        <mxCell id="PAqqVsTEMDmfQBmjxhDG-3" value="" style="endArrow=none;html=1;rounded=1;entryX=0.75;entryY=0;entryDx=0;entryDy=0;exitX=0;exitY=0.5;exitDx=0;exitDy=0;" parent="1" source="a_6csDNS0PU0sw6D-ZlP-5" target="lc_thMG3hRJmn10JfuWX-2" edge="1">
          <mxGeometry width="50" height="50" relative="1" as="geometry">
            <mxPoint x="1037" y="498" as="sourcePoint" />
            <mxPoint x="1087" y="448" as="targetPoint" />
            <Array as="points">
              <mxPoint x="1049" y="348" />
            </Array>
          </mxGeometry>
        </mxCell>
        <mxCell id="PAqqVsTEMDmfQBmjxhDG-4" value="" style="endArrow=none;html=1;rounded=1;entryX=1;entryY=0.5;entryDx=0;entryDy=0;exitX=0.5;exitY=0;exitDx=0;exitDy=0;" parent="1" source="lc_thMG3hRJmn10JfuWX-9" target="a_6csDNS0PU0sw6D-ZlP-5" edge="1">
          <mxGeometry width="50" height="50" relative="1" as="geometry">
            <mxPoint x="1037" y="498" as="sourcePoint" />
            <mxPoint x="1087" y="448" as="targetPoint" />
            <Array as="points">
              <mxPoint x="1417" y="348" />
            </Array>
          </mxGeometry>
        </mxCell>
        <mxCell id="PAqqVsTEMDmfQBmjxhDG-6" value="Recensione" style="shape=rhombus;perimeter=rhombusPerimeter;whiteSpace=wrap;html=1;align=center;" parent="1" vertex="1">
          <mxGeometry x="974" y="473" width="100" height="50" as="geometry" />
        </mxCell>
        <mxCell id="76W873bkZ4WT25iF2PZ7-3" value="" style="endArrow=none;html=1;rounded=0;entryX=0.5;entryY=1;entryDx=0;entryDy=0;exitX=0.5;exitY=0;exitDx=0;exitDy=0;" parent="1" source="a_6csDNS0PU0sw6D-ZlP-17" target="lc_thMG3hRJmn10JfuWX-9" edge="1">
          <mxGeometry width="50" height="50" relative="1" as="geometry">
            <mxPoint x="1147" y="598" as="sourcePoint" />
            <mxPoint x="1197" y="548" as="targetPoint" />
          </mxGeometry>
        </mxCell>
        <mxCell id="76W873bkZ4WT25iF2PZ7-4" value="Fattura&lt;br&gt;" style="whiteSpace=wrap;html=1;align=center;rounded=1;" parent="1" vertex="1">
          <mxGeometry x="1367" y="653" width="100" height="40" as="geometry" />
        </mxCell>
        <mxCell id="76W873bkZ4WT25iF2PZ7-2" value="" style="endArrow=none;html=1;rounded=0;entryX=0.5;entryY=0;entryDx=0;entryDy=0;exitX=0.5;exitY=1;exitDx=0;exitDy=0;" parent="1" source="a_6csDNS0PU0sw6D-ZlP-17" target="76W873bkZ4WT25iF2PZ7-4" edge="1">
          <mxGeometry relative="1" as="geometry">
            <mxPoint x="1087" y="568" as="sourcePoint" />
            <mxPoint x="1247" y="568" as="targetPoint" />
          </mxGeometry>
        </mxCell>
        <mxCell id="PAqqVsTEMDmfQBmjxhDG-7" value="" style="endArrow=none;html=1;rounded=1;entryX=0.5;entryY=1;entryDx=0;entryDy=0;exitX=1;exitY=0.75;exitDx=0;exitDy=0;" parent="1" source="l1qlM_hG5PVcN0XE2cs9-1" target="PAqqVsTEMDmfQBmjxhDG-6" edge="1">
          <mxGeometry width="50" height="50" relative="1" as="geometry">
            <mxPoint x="707" y="678" as="sourcePoint" />
            <mxPoint x="1007" y="558" as="targetPoint" />
            <Array as="points">
              <mxPoint x="1024" y="638" />
            </Array>
          </mxGeometry>
        </mxCell>
        <mxCell id="l1qlM_hG5PVcN0XE2cs9-26" value="(1, N)" style="text;html=1;align=center;verticalAlign=middle;resizable=0;points=[];autosize=1;strokeColor=none;fillColor=none;" parent="1" vertex="1">
          <mxGeometry x="507" y="448" width="50" height="30" as="geometry" />
        </mxCell>
        <mxCell id="PAqqVsTEMDmfQBmjxhDG-8" value="" style="endArrow=none;html=1;rounded=0;entryX=0.5;entryY=1;entryDx=0;entryDy=0;exitX=0.5;exitY=0;exitDx=0;exitDy=0;" parent="1" source="l1qlM_hG5PVcN0XE2cs9-21" target="l1qlM_hG5PVcN0XE2cs9-8" edge="1">
          <mxGeometry width="50" height="50" relative="1" as="geometry">
            <mxPoint x="497" y="538" as="sourcePoint" />
            <mxPoint x="547" y="488" as="targetPoint" />
          </mxGeometry>
        </mxCell>
        <mxCell id="PAqqVsTEMDmfQBmjxhDG-9" value="" style="endArrow=none;html=1;rounded=1;entryX=0.5;entryY=1;entryDx=0;entryDy=0;exitX=0;exitY=0.25;exitDx=0;exitDy=0;" parent="1" source="l1qlM_hG5PVcN0XE2cs9-1" target="l1qlM_hG5PVcN0XE2cs9-21" edge="1">
          <mxGeometry width="50" height="50" relative="1" as="geometry">
            <mxPoint x="557" y="628" as="sourcePoint" />
            <mxPoint x="557" y="533" as="targetPoint" />
            <Array as="points">
              <mxPoint x="557" y="618" />
            </Array>
          </mxGeometry>
        </mxCell>
        <mxCell id="76W873bkZ4WT25iF2PZ7-6" value="" style="endArrow=none;html=1;rounded=1;entryX=1;entryY=0.25;entryDx=0;entryDy=0;exitX=0.5;exitY=0;exitDx=0;exitDy=0;" parent="1" source="a_6csDNS0PU0sw6D-ZlP-16" target="lc_thMG3hRJmn10JfuWX-2" edge="1">
          <mxGeometry width="50" height="50" relative="1" as="geometry">
            <mxPoint x="1047" y="578" as="sourcePoint" />
            <mxPoint x="1097" y="528" as="targetPoint" />
            <Array as="points">
              <mxPoint x="1227" y="408" />
            </Array>
          </mxGeometry>
        </mxCell>
        <mxCell id="76W873bkZ4WT25iF2PZ7-7" value="" style="endArrow=none;html=1;rounded=1;entryX=0.5;entryY=1;entryDx=0;entryDy=0;exitX=0;exitY=0.5;exitDx=0;exitDy=0;" parent="1" source="76W873bkZ4WT25iF2PZ7-4" target="a_6csDNS0PU0sw6D-ZlP-16" edge="1">
          <mxGeometry width="50" height="50" relative="1" as="geometry">
            <mxPoint x="1087" y="628" as="sourcePoint" />
            <mxPoint x="1137" y="578" as="targetPoint" />
            <Array as="points">
              <mxPoint x="1227" y="673" />
            </Array>
          </mxGeometry>
        </mxCell>
        <mxCell id="PAqqVsTEMDmfQBmjxhDG-10" value="(0, N)" style="text;html=1;align=center;verticalAlign=middle;resizable=0;points=[];autosize=1;strokeColor=none;fillColor=none;" parent="1" vertex="1">
          <mxGeometry x="824" y="448" width="50" height="30" as="geometry" />
        </mxCell>
        <mxCell id="76W873bkZ4WT25iF2PZ7-8" value="(1, N)" style="text;html=1;align=center;verticalAlign=middle;resizable=0;points=[];autosize=1;strokeColor=none;fillColor=none;" parent="1" vertex="1">
          <mxGeometry x="1125" y="318" width="50" height="30" as="geometry" />
        </mxCell>
        <mxCell id="76W873bkZ4WT25iF2PZ7-9" value="(1, N)" style="text;html=1;align=center;verticalAlign=middle;resizable=0;points=[];autosize=1;strokeColor=none;fillColor=none;" parent="1" vertex="1">
          <mxGeometry x="1277" y="318" width="50" height="30" as="geometry" />
        </mxCell>
        <mxCell id="76W873bkZ4WT25iF2PZ7-10" value="(1, N)" style="text;html=1;align=center;verticalAlign=middle;resizable=0;points=[];autosize=1;strokeColor=none;fillColor=none;" parent="1" vertex="1">
          <mxGeometry x="1375" y="498" width="50" height="30" as="geometry" />
        </mxCell>
        <mxCell id="76W873bkZ4WT25iF2PZ7-11" value="(1, 1)" style="text;html=1;align=center;verticalAlign=middle;resizable=0;points=[];autosize=1;strokeColor=none;fillColor=none;" parent="1" vertex="1">
          <mxGeometry x="1367" y="573" width="50" height="30" as="geometry" />
        </mxCell>
        <mxCell id="PAqqVsTEMDmfQBmjxhDG-12" value="(0, N)" style="text;html=1;align=center;verticalAlign=middle;resizable=0;points=[];autosize=1;strokeColor=none;fillColor=none;" parent="1" vertex="1">
          <mxGeometry x="407" y="503" width="50" height="30" as="geometry" />
        </mxCell>
        <mxCell id="76W873bkZ4WT25iF2PZ7-12" value="(1, N)" style="text;html=1;align=center;verticalAlign=middle;resizable=0;points=[];autosize=1;strokeColor=none;fillColor=none;" parent="1" vertex="1">
          <mxGeometry x="1134" y="168" width="50" height="30" as="geometry" />
        </mxCell>
        <mxCell id="76W873bkZ4WT25iF2PZ7-13" value="(1, 1)" style="text;html=1;align=center;verticalAlign=middle;resizable=0;points=[];autosize=1;strokeColor=none;fillColor=none;" parent="1" vertex="1">
          <mxGeometry x="1134" y="253" width="50" height="30" as="geometry" />
        </mxCell>
        <mxCell id="76W873bkZ4WT25iF2PZ7-16" value="(1, N)" style="text;html=1;align=center;verticalAlign=middle;resizable=0;points=[];autosize=1;strokeColor=none;fillColor=none;" parent="1" vertex="1">
          <mxGeometry x="974" y="523" width="50" height="30" as="geometry" />
        </mxCell>
        <mxCell id="76W873bkZ4WT25iF2PZ7-18" value="" style="endArrow=none;html=1;rounded=0;entryX=0.5;entryY=1;entryDx=0;entryDy=0;exitX=0.5;exitY=0;exitDx=0;exitDy=0;" parent="1" source="PAqqVsTEMDmfQBmjxhDG-6" target="lc_thMG3hRJmn10JfuWX-2" edge="1">
          <mxGeometry width="50" height="50" relative="1" as="geometry">
            <mxPoint x="917" y="678" as="sourcePoint" />
            <mxPoint x="967" y="628" as="targetPoint" />
          </mxGeometry>
        </mxCell>
        <mxCell id="76W873bkZ4WT25iF2PZ7-19" value="(1, N)" style="text;html=1;align=center;verticalAlign=middle;resizable=0;points=[];autosize=1;strokeColor=none;fillColor=none;" parent="1" vertex="1">
          <mxGeometry x="974" y="443" width="50" height="30" as="geometry" />
        </mxCell>
        <mxCell id="PAqqVsTEMDmfQBmjxhDG-14" value="" style="endArrow=none;html=1;rounded=0;entryX=0;entryY=0.5;entryDx=0;entryDy=0;exitX=1;exitY=0.5;exitDx=0;exitDy=0;" parent="1" source="l1qlM_hG5PVcN0XE2cs9-3" target="l1qlM_hG5PVcN0XE2cs9-43" edge="1">
          <mxGeometry width="50" height="50" relative="1" as="geometry">
            <mxPoint x="1057" y="940.5" as="sourcePoint" />
            <mxPoint x="1107" y="890.5" as="targetPoint" />
          </mxGeometry>
        </mxCell>
        <mxCell id="76W873bkZ4WT25iF2PZ7-20" value="" style="endArrow=none;html=1;rounded=0;entryX=0.5;entryY=1;entryDx=0;entryDy=0;exitX=0.5;exitY=0;exitDx=0;exitDy=0;" parent="1" source="a_6csDNS0PU0sw6D-ZlP-48" target="lc_thMG3hRJmn10JfuWX-5" edge="1">
          <mxGeometry width="50" height="50" relative="1" as="geometry">
            <mxPoint x="242" y="608" as="sourcePoint" />
            <mxPoint x="292" y="558" as="targetPoint" />
          </mxGeometry>
        </mxCell>
        <mxCell id="PAqqVsTEMDmfQBmjxhDG-16" value="(0, N)" style="text;html=1;align=center;verticalAlign=middle;resizable=0;points=[];autosize=1;strokeColor=none;fillColor=none;" parent="1" vertex="1">
          <mxGeometry x="997" y="778" width="50" height="30" as="geometry" />
        </mxCell>
        <mxCell id="PAqqVsTEMDmfQBmjxhDG-19" value="(1, N)" style="text;html=1;align=center;verticalAlign=middle;resizable=0;points=[];autosize=1;strokeColor=none;fillColor=none;" parent="1" vertex="1">
          <mxGeometry x="1217" y="870.5" width="50" height="30" as="geometry" />
        </mxCell>
        <mxCell id="PAqqVsTEMDmfQBmjxhDG-20" value="(1, 1)" style="text;html=1;align=center;verticalAlign=middle;resizable=0;points=[];autosize=1;strokeColor=none;fillColor=none;" parent="1" vertex="1">
          <mxGeometry x="1217" y="950.5" width="50" height="30" as="geometry" />
        </mxCell>
        <mxCell id="76W873bkZ4WT25iF2PZ7-22" value="" style="endArrow=none;html=1;rounded=0;entryX=0;entryY=0.5;entryDx=0;entryDy=0;exitX=1;exitY=0.5;exitDx=0;exitDy=0;" parent="1" source="a_6csDNS0PU0sw6D-ZlP-78" target="l1qlM_hG5PVcN0XE2cs9-3" edge="1">
          <mxGeometry width="50" height="50" relative="1" as="geometry">
            <mxPoint x="507" y="820.5" as="sourcePoint" />
            <mxPoint x="857" y="760.5" as="targetPoint" />
          </mxGeometry>
        </mxCell>
        <mxCell id="PAqqVsTEMDmfQBmjxhDG-21" value="(1, 1)" style="text;html=1;align=center;verticalAlign=middle;resizable=0;points=[];autosize=1;strokeColor=none;fillColor=none;" parent="1" vertex="1">
          <mxGeometry x="1227" y="503" width="50" height="30" as="geometry" />
        </mxCell>
        <mxCell id="PAqqVsTEMDmfQBmjxhDG-22" value="(1, N)" style="text;html=1;align=center;verticalAlign=middle;resizable=0;points=[];autosize=1;strokeColor=none;fillColor=none;" parent="1" vertex="1">
          <mxGeometry x="1227" y="428" width="50" height="30" as="geometry" />
        </mxCell>
        <mxCell id="PAqqVsTEMDmfQBmjxhDG-15" value="(1, 1)" style="text;html=1;align=center;verticalAlign=middle;resizable=0;points=[];autosize=1;strokeColor=none;fillColor=none;" parent="1" vertex="1">
          <mxGeometry x="1157" y="808" width="50" height="30" as="geometry" />
        </mxCell>
        <mxCell id="76W873bkZ4WT25iF2PZ7-23" value="" style="endArrow=none;html=1;rounded=0;entryX=0.5;entryY=1;entryDx=0;entryDy=0;exitX=0.5;exitY=0;exitDx=0;exitDy=0;" parent="1" source="a_6csDNS0PU0sw6D-ZlP-69" target="l1qlM_hG5PVcN0XE2cs9-3" edge="1">
          <mxGeometry width="50" height="50" relative="1" as="geometry">
            <mxPoint x="827" y="1000.5" as="sourcePoint" />
            <mxPoint x="877" y="950.5" as="targetPoint" />
          </mxGeometry>
        </mxCell>
        <mxCell id="PAqqVsTEMDmfQBmjxhDG-27" value="(0, N)" style="text;html=1;align=center;verticalAlign=middle;resizable=0;points=[];autosize=1;strokeColor=none;fillColor=none;" parent="1" vertex="1">
          <mxGeometry x="467" y="778" width="50" height="30" as="geometry" />
        </mxCell>
        <mxCell id="PAqqVsTEMDmfQBmjxhDG-28" value="(1, N)" style="text;html=1;align=center;verticalAlign=middle;resizable=0;points=[];autosize=1;strokeColor=none;fillColor=none;" parent="1" vertex="1">
          <mxGeometry x="345" y="778" width="50" height="30" as="geometry" />
        </mxCell>
        <mxCell id="PAqqVsTEMDmfQBmjxhDG-30" value="Connessione" style="shape=rhombus;perimeter=rhombusPerimeter;whiteSpace=wrap;html=1;align=center;" parent="1" vertex="1">
          <mxGeometry x="947" y="990.5" width="120" height="60" as="geometry" />
        </mxCell>
        <mxCell id="PAqqVsTEMDmfQBmjxhDG-31" value="" style="endArrow=none;html=1;rounded=1;entryX=0;entryY=0.5;entryDx=0;entryDy=0;exitX=1;exitY=0.75;exitDx=0;exitDy=0;" parent="1" source="lc_thMG3hRJmn10JfuWX-3" target="PAqqVsTEMDmfQBmjxhDG-30" edge="1">
          <mxGeometry width="50" height="50" relative="1" as="geometry">
            <mxPoint x="852" y="1060.5" as="sourcePoint" />
            <mxPoint x="902" y="1010.5" as="targetPoint" />
            <Array as="points">
              <mxPoint x="785" y="930.5" />
              <mxPoint x="785" y="1020.5" />
            </Array>
          </mxGeometry>
        </mxCell>
        <mxCell id="PAqqVsTEMDmfQBmjxhDG-32" value="" style="endArrow=none;html=1;rounded=0;exitX=1;exitY=0.5;exitDx=0;exitDy=0;entryX=0;entryY=0.5;entryDx=0;entryDy=0;" parent="1" source="PAqqVsTEMDmfQBmjxhDG-30" target="l1qlM_hG5PVcN0XE2cs9-5" edge="1">
          <mxGeometry width="50" height="50" relative="1" as="geometry">
            <mxPoint x="1085" y="1010.5" as="sourcePoint" />
            <mxPoint x="1135" y="960.5" as="targetPoint" />
          </mxGeometry>
        </mxCell>
        <mxCell id="PAqqVsTEMDmfQBmjxhDG-33" value="(0, N)" style="text;html=1;align=center;verticalAlign=middle;resizable=0;points=[];autosize=1;strokeColor=none;fillColor=none;" parent="1" vertex="1">
          <mxGeometry x="905" y="990.5" width="50" height="30" as="geometry" />
        </mxCell>
        <mxCell id="PAqqVsTEMDmfQBmjxhDG-34" value="(1, N)" style="text;html=1;align=center;verticalAlign=middle;resizable=0;points=[];autosize=1;strokeColor=none;fillColor=none;" parent="1" vertex="1">
          <mxGeometry x="1055" y="990.5" width="50" height="30" as="geometry" />
        </mxCell>
        <mxCell id="3goZI-bj5xCnPwmELsUS-1" value="(0, N)" style="text;html=1;align=center;verticalAlign=middle;resizable=0;points=[];autosize=1;strokeColor=none;fillColor=none;" parent="1" vertex="1">
          <mxGeometry x="147" y="518" width="50" height="30" as="geometry" />
        </mxCell>
        <mxCell id="3goZI-bj5xCnPwmELsUS-2" value="(1, N)" style="text;html=1;align=center;verticalAlign=middle;resizable=0;points=[];autosize=1;strokeColor=none;fillColor=none;" parent="1" vertex="1">
          <mxGeometry x="147" y="603" width="50" height="30" as="geometry" />
        </mxCell>
        <mxCell id="3goZI-bj5xCnPwmELsUS-3" value="P.o.P." style="shape=rhombus;perimeter=rhombusPerimeter;whiteSpace=wrap;html=1;align=center;" parent="1" vertex="1">
          <mxGeometry x="65" y="890.5" width="120" height="60" as="geometry" />
        </mxCell>
        <mxCell id="PAqqVsTEMDmfQBmjxhDG-35" value="" style="endArrow=none;html=1;rounded=1;entryX=0;entryY=0.5;entryDx=0;entryDy=0;exitX=0;exitY=0.5;exitDx=0;exitDy=0;" parent="1" source="3goZI-bj5xCnPwmELsUS-3" target="lc_thMG3hRJmn10JfuWX-5" edge="1">
          <mxGeometry width="50" height="50" relative="1" as="geometry">
            <mxPoint x="65" y="458" as="sourcePoint" />
            <mxPoint x="115" y="448" as="targetPoint" />
            <Array as="points">
              <mxPoint x="65" y="463" />
            </Array>
          </mxGeometry>
        </mxCell>
        <mxCell id="3goZI-bj5xCnPwmELsUS-5" value="" style="endArrow=none;html=1;rounded=0;entryX=0;entryY=0.5;entryDx=0;entryDy=0;exitX=1;exitY=0.5;exitDx=0;exitDy=0;" parent="1" source="3goZI-bj5xCnPwmELsUS-3" target="lc_thMG3hRJmn10JfuWX-3" edge="1">
          <mxGeometry width="50" height="50" relative="1" as="geometry">
            <mxPoint x="485" y="780.5" as="sourcePoint" />
            <mxPoint x="535" y="730.5" as="targetPoint" />
          </mxGeometry>
        </mxCell>
        <mxCell id="PAqqVsTEMDmfQBmjxhDG-36" value="(1, N)" style="text;html=1;align=center;verticalAlign=middle;resizable=0;points=[];autosize=1;strokeColor=none;fillColor=none;" parent="1" vertex="1">
          <mxGeometry x="172" y="890.5" width="50" height="30" as="geometry" />
        </mxCell>
        <mxCell id="PAqqVsTEMDmfQBmjxhDG-37" value="(1, N)" style="text;html=1;align=center;verticalAlign=middle;resizable=0;points=[];autosize=1;strokeColor=none;fillColor=none;" parent="1" vertex="1">
          <mxGeometry x="60" y="878" width="50" height="30" as="geometry" />
        </mxCell>
        <mxCell id="PAqqVsTEMDmfQBmjxhDG-39" value="(1, 1)" style="text;html=1;align=center;verticalAlign=middle;resizable=0;points=[];autosize=1;strokeColor=none;fillColor=none;" parent="1" vertex="1">
          <mxGeometry x="795" y="890.5" width="50" height="30" as="geometry" />
        </mxCell>
        <mxCell id="PAqqVsTEMDmfQBmjxhDG-40" value="Premio" style="whiteSpace=wrap;html=1;align=center;rounded=1;" parent="1" vertex="1">
          <mxGeometry x="749.5" y="178" width="100" height="40" as="geometry" />
        </mxCell>
        <mxCell id="PAqqVsTEMDmfQBmjxhDG-41" value="Vincita" style="shape=rhombus;perimeter=rhombusPerimeter;whiteSpace=wrap;html=1;align=center;" parent="1" vertex="1">
          <mxGeometry x="742.25" y="278" width="114.5" height="55" as="geometry" />
        </mxCell>
        <mxCell id="PAqqVsTEMDmfQBmjxhDG-42" value="" style="endArrow=none;html=1;rounded=0;entryX=0.5;entryY=1;entryDx=0;entryDy=0;exitX=0.5;exitY=0;exitDx=0;exitDy=0;" parent="1" source="PAqqVsTEMDmfQBmjxhDG-41" target="PAqqVsTEMDmfQBmjxhDG-40" edge="1">
          <mxGeometry width="50" height="50" relative="1" as="geometry">
            <mxPoint x="805" y="258" as="sourcePoint" />
            <mxPoint x="855" y="208" as="targetPoint" />
          </mxGeometry>
        </mxCell>
        <mxCell id="PAqqVsTEMDmfQBmjxhDG-43" value="" style="endArrow=none;html=1;rounded=1;entryX=0.5;entryY=1;entryDx=0;entryDy=0;exitX=1;exitY=0.25;exitDx=0;exitDy=0;" parent="1" source="l1qlM_hG5PVcN0XE2cs9-1" target="PAqqVsTEMDmfQBmjxhDG-41" edge="1">
          <mxGeometry width="50" height="50" relative="1" as="geometry">
            <mxPoint x="805" y="508" as="sourcePoint" />
            <mxPoint x="855" y="458" as="targetPoint" />
            <Array as="points">
              <mxPoint x="800" y="618" />
            </Array>
          </mxGeometry>
        </mxCell>
        <mxCell id="PAqqVsTEMDmfQBmjxhDG-44" value="(1, N)" style="text;html=1;align=center;verticalAlign=middle;resizable=0;points=[];autosize=1;strokeColor=none;fillColor=none;" parent="1" vertex="1">
          <mxGeometry x="795" y="258" width="50" height="30" as="geometry" />
        </mxCell>
        <mxCell id="PAqqVsTEMDmfQBmjxhDG-45" value="(0, N)" style="text;html=1;align=center;verticalAlign=middle;resizable=0;points=[];autosize=1;strokeColor=none;fillColor=none;" parent="1" vertex="1">
          <mxGeometry x="795" y="323" width="50" height="30" as="geometry" />
        </mxCell>
        <mxCell id="ar00X5rX__aBlhbaafOq-2" value="Produzione" style="shape=rhombus;perimeter=rhombusPerimeter;whiteSpace=wrap;html=1;align=center;" parent="1" vertex="1">
          <mxGeometry x="697" y="685.5" width="120" height="60" as="geometry" />
        </mxCell>
        <mxCell id="ar00X5rX__aBlhbaafOq-3" value="" style="endArrow=none;html=1;rounded=1;exitX=0.5;exitY=1;exitDx=0;exitDy=0;entryX=0;entryY=0.5;entryDx=0;entryDy=0;" parent="1" source="l1qlM_hG5PVcN0XE2cs9-1" target="ar00X5rX__aBlhbaafOq-2" edge="1">
          <mxGeometry relative="1" as="geometry">
            <mxPoint x="635" y="828" as="sourcePoint" />
            <mxPoint x="795" y="828" as="targetPoint" />
            <Array as="points">
              <mxPoint x="617" y="716" />
            </Array>
          </mxGeometry>
        </mxCell>
        <mxCell id="ar00X5rX__aBlhbaafOq-5" value="" style="endArrow=none;html=1;rounded=1;entryX=0.5;entryY=0;entryDx=0;entryDy=0;exitX=1;exitY=0.5;exitDx=0;exitDy=0;" parent="1" source="ar00X5rX__aBlhbaafOq-2" target="l1qlM_hG5PVcN0XE2cs9-3" edge="1">
          <mxGeometry relative="1" as="geometry">
            <mxPoint x="635" y="828" as="sourcePoint" />
            <mxPoint x="795" y="828" as="targetPoint" />
            <Array as="points">
              <mxPoint x="887" y="716" />
            </Array>
          </mxGeometry>
        </mxCell>
        <mxCell id="ar00X5rX__aBlhbaafOq-7" value="(0, N)" style="text;html=1;align=center;verticalAlign=middle;resizable=0;points=[];autosize=1;strokeColor=none;fillColor=none;" parent="1" vertex="1">
          <mxGeometry x="815" y="685.5" width="50" height="30" as="geometry" />
        </mxCell>
        <mxCell id="ar00X5rX__aBlhbaafOq-8" value="(1, N)" style="text;html=1;align=center;verticalAlign=middle;resizable=0;points=[];autosize=1;strokeColor=none;fillColor=none;" parent="1" vertex="1">
          <mxGeometry x="644" y="685.5" width="50" height="30" as="geometry" />
        </mxCell>
        <mxCell id="MVnxgxXVzic-VUVAY7so-1" value="" style="endArrow=none;html=1;rounded=1;entryX=0.25;entryY=0;entryDx=0;entryDy=0;exitX=0.5;exitY=1;exitDx=0;exitDy=0;" parent="1" source="a_6csDNS0PU0sw6D-ZlP-56" target="lc_thMG3hRJmn10JfuWX-5" edge="1">
          <mxGeometry width="50" height="50" relative="1" as="geometry">
            <mxPoint x="135" y="298" as="sourcePoint" />
            <mxPoint x="125" y="398" as="targetPoint" />
            <Array as="points">
              <mxPoint x="135" y="420" />
              <mxPoint x="242" y="420" />
            </Array>
          </mxGeometry>
        </mxCell>
        <mxCell id="MVnxgxXVzic-VUVAY7so-2" value="" style="endArrow=none;html=1;rounded=1;entryX=0.5;entryY=1;entryDx=0;entryDy=0;" parent="1" target="a_6csDNS0PU0sw6D-ZlP-58" edge="1">
          <mxGeometry width="50" height="50" relative="1" as="geometry">
            <mxPoint x="317" y="458" as="sourcePoint" />
            <mxPoint x="395" y="288" as="targetPoint" />
            <Array as="points">
              <mxPoint x="397" y="458" />
            </Array>
          </mxGeometry>
        </mxCell>
        <mxCell id="ar00X5rX__aBlhbaafOq-10" value="" style="endArrow=none;html=1;rounded=1;entryX=0.5;entryY=0;entryDx=0;entryDy=0;exitX=1;exitY=0.5;exitDx=0;exitDy=0;" parent="1" source="l1qlM_hG5PVcN0XE2cs9-4" target="a_6csDNS0PU0sw6D-ZlP-58" edge="1">
          <mxGeometry relative="1" as="geometry">
            <mxPoint x="155" y="248" as="sourcePoint" />
            <mxPoint x="315" y="248" as="targetPoint" />
            <Array as="points">
              <mxPoint x="397" y="156" />
            </Array>
          </mxGeometry>
        </mxCell>
        <mxCell id="ar00X5rX__aBlhbaafOq-11" value="" style="endArrow=none;html=1;rounded=1;exitX=0.5;exitY=0;exitDx=0;exitDy=0;entryX=0;entryY=0.5;entryDx=0;entryDy=0;" parent="1" source="a_6csDNS0PU0sw6D-ZlP-56" target="l1qlM_hG5PVcN0XE2cs9-4" edge="1">
          <mxGeometry relative="1" as="geometry">
            <mxPoint x="155" y="248" as="sourcePoint" />
            <mxPoint x="315" y="248" as="targetPoint" />
            <Array as="points">
              <mxPoint x="135" y="156" />
            </Array>
          </mxGeometry>
        </mxCell>
        <mxCell id="MVnxgxXVzic-VUVAY7so-3" value="(1, N)" style="text;html=1;align=center;verticalAlign=middle;resizable=0;points=[];autosize=1;strokeColor=none;fillColor=none;" parent="1" vertex="1">
          <mxGeometry x="75" y="290.5" width="50" height="30" as="geometry" />
        </mxCell>
        <mxCell id="ar00X5rX__aBlhbaafOq-12" value="(1, N)" style="text;html=1;align=center;verticalAlign=middle;resizable=0;points=[];autosize=1;strokeColor=none;fillColor=none;" parent="1" vertex="1">
          <mxGeometry x="85" y="198" width="50" height="30" as="geometry" />
        </mxCell>
        <mxCell id="MVnxgxXVzic-VUVAY7so-4" value="(1, N)" style="text;html=1;align=center;verticalAlign=middle;resizable=0;points=[];autosize=1;strokeColor=none;fillColor=none;" parent="1" vertex="1">
          <mxGeometry x="395" y="283" width="50" height="30" as="geometry" />
        </mxCell>
        <mxCell id="ar00X5rX__aBlhbaafOq-13" value="(1, N)" style="text;html=1;align=center;verticalAlign=middle;resizable=0;points=[];autosize=1;strokeColor=none;fillColor=none;" parent="1" vertex="1">
          <mxGeometry x="395" y="198" width="50" height="30" as="geometry" />
        </mxCell>
        <mxCell id="MVnxgxXVzic-VUVAY7so-5" value="" style="endArrow=none;html=1;rounded=1;entryX=1;entryY=0.5;entryDx=0;entryDy=0;exitX=0;exitY=0.25;exitDx=0;exitDy=0;" parent="1" source="l1qlM_hG5PVcN0XE2cs9-5" target="l1qlM_hG5PVcN0XE2cs9-43" edge="1">
          <mxGeometry width="50" height="50" relative="1" as="geometry">
            <mxPoint x="1157" y="988" as="sourcePoint" />
            <mxPoint x="1207" y="823" as="targetPoint" />
            <Array as="points">
              <mxPoint x="1157" y="1011" />
            </Array>
          </mxGeometry>
        </mxCell>
        <mxCell id="MVnxgxXVzic-VUVAY7so-6" value="Abbonamento" style="whiteSpace=wrap;html=1;align=center;rounded=1;" parent="1" vertex="1">
          <mxGeometry x="1084" y="118" width="100" height="40" as="geometry" />
        </mxCell>
        <mxCell id="MVnxgxXVzic-VUVAY7so-7" value="AbbonamUtente" style="shape=rhombus;perimeter=rhombusPerimeter;whiteSpace=wrap;html=1;align=center;" parent="1" vertex="1">
          <mxGeometry x="1074" y="198" width="120" height="60" as="geometry" />
        </mxCell>
        <mxCell id="MVnxgxXVzic-VUVAY7so-8" value="" style="endArrow=none;html=1;rounded=0;entryX=0.5;entryY=1;entryDx=0;entryDy=0;" parent="1" target="MVnxgxXVzic-VUVAY7so-6" edge="1">
          <mxGeometry width="50" height="50" relative="1" as="geometry">
            <mxPoint x="1134" y="198" as="sourcePoint" />
            <mxPoint x="1134" y="158" as="targetPoint" />
          </mxGeometry>
        </mxCell>
        <mxCell id="MVnxgxXVzic-VUVAY7so-9" value="" style="endArrow=none;html=1;rounded=1;entryX=0.5;entryY=1;entryDx=0;entryDy=0;exitX=0.615;exitY=0.004;exitDx=0;exitDy=0;exitPerimeter=0;" parent="1" source="lc_thMG3hRJmn10JfuWX-2" target="MVnxgxXVzic-VUVAY7so-7" edge="1">
          <mxGeometry width="50" height="50" relative="1" as="geometry">
            <mxPoint x="1075" y="268" as="sourcePoint" />
            <mxPoint x="1125" y="218" as="targetPoint" />
            <Array as="points">
              <mxPoint x="1035" y="288" />
              <mxPoint x="1135" y="288" />
            </Array>
          </mxGeometry>
        </mxCell>
        <mxCell id="MVnxgxXVzic-VUVAY7so-10" value="Visualizzazione" style="shape=rhombus;perimeter=rhombusPerimeter;whiteSpace=wrap;html=1;align=center;" parent="1" vertex="1">
          <mxGeometry x="497" y="1040.5" width="120" height="60" as="geometry" />
        </mxCell>
        <mxCell id="MVnxgxXVzic-VUVAY7so-11" value="" style="endArrow=none;html=1;rounded=1;exitX=1;exitY=0.5;exitDx=0;exitDy=0;entryX=0.5;entryY=1;entryDx=0;entryDy=0;" parent="1" source="MVnxgxXVzic-VUVAY7so-10" target="l1qlM_hG5PVcN0XE2cs9-5" edge="1">
          <mxGeometry width="50" height="50" relative="1" as="geometry">
            <mxPoint x="664.5" y="1060" as="sourcePoint" />
            <mxPoint x="714.5" y="1010" as="targetPoint" />
            <Array as="points">
              <mxPoint x="1267" y="1070" />
            </Array>
          </mxGeometry>
        </mxCell>
        <mxCell id="MVnxgxXVzic-VUVAY7so-12" value="" style="endArrow=none;html=1;rounded=1;entryX=0;entryY=0.5;entryDx=0;entryDy=0;exitX=0;exitY=0.25;exitDx=0;exitDy=0;" parent="1" source="lc_thMG3hRJmn10JfuWX-5" target="MVnxgxXVzic-VUVAY7so-10" edge="1">
          <mxGeometry width="50" height="50" relative="1" as="geometry">
            <mxPoint x="20" y="1070" as="sourcePoint" />
            <mxPoint x="427" y="1070" as="targetPoint" />
            <Array as="points">
              <mxPoint x="30" y="456" />
              <mxPoint x="30" y="1070" />
            </Array>
          </mxGeometry>
        </mxCell>
        <mxCell id="ar00X5rX__aBlhbaafOq-15" value="(0, N)" style="text;html=1;align=center;verticalAlign=middle;resizable=0;points=[];autosize=1;strokeColor=none;fillColor=none;" parent="1" vertex="1">
          <mxGeometry x="447" y="1040.5" width="50" height="30" as="geometry" />
        </mxCell>
        <mxCell id="MVnxgxXVzic-VUVAY7so-14" value="(1, 1)" style="text;html=1;align=center;verticalAlign=middle;resizable=0;points=[];autosize=1;strokeColor=none;fillColor=none;" parent="1" vertex="1">
          <mxGeometry x="617" y="1040.5" width="50" height="30" as="geometry" />
        </mxCell>
        <mxCell id="ar00X5rX__aBlhbaafOq-16" value="(0, N)" style="text;html=1;align=center;verticalAlign=middle;resizable=0;points=[];autosize=1;strokeColor=none;fillColor=none;" parent="1" vertex="1">
          <mxGeometry x="887" y="860.5" width="50" height="30" as="geometry" />
        </mxCell>
        <mxCell id="1nwxLZV6FVW2qh2XziLg-143" value="Film" style="whiteSpace=wrap;html=1;align=center;rounded=1;" vertex="1" parent="1">
          <mxGeometry x="-940" y="1760" width="100" height="40" as="geometry" />
        </mxCell>
        <mxCell id="1nwxLZV6FVW2qh2XziLg-144" value="File" style="whiteSpace=wrap;html=1;align=center;rounded=1;" vertex="1" parent="1">
          <mxGeometry x="-1380" y="2020" width="100" height="30" as="geometry" />
        </mxCell>
        <mxCell id="1nwxLZV6FVW2qh2XziLg-145" value="Server" style="whiteSpace=wrap;html=1;align=center;rounded=1;" vertex="1" parent="1">
          <mxGeometry x="-1150" y="2162.5" width="100" height="40" as="geometry" />
        </mxCell>
        <mxCell id="1nwxLZV6FVW2qh2XziLg-146" value="Utente" style="whiteSpace=wrap;html=1;align=center;rounded=1;direction=east;" vertex="1" parent="1">
          <mxGeometry x="-280" y="1762" width="100" height="38" as="geometry" />
        </mxCell>
        <mxCell id="1nwxLZV6FVW2qh2XziLg-147" value="Dispositivo&lt;br&gt;" style="whiteSpace=wrap;html=1;align=center;rounded=1;" vertex="1" parent="1">
          <mxGeometry x="-280" y="2162.5" width="100" height="40" as="geometry" />
        </mxCell>
        <mxCell id="1nwxLZV6FVW2qh2XziLg-148" value="Paese" style="whiteSpace=wrap;html=1;align=center;rounded=1;" vertex="1" parent="1">
          <mxGeometry x="-760" y="2020" width="100" height="40" as="geometry" />
        </mxCell>
        <mxCell id="1nwxLZV6FVW2qh2XziLg-149" value="Geolocalizzazione" style="shape=rhombus;perimeter=rhombusPerimeter;whiteSpace=wrap;html=1;align=center;" vertex="1" parent="1">
          <mxGeometry x="-520" y="2067.5" width="120" height="60" as="geometry" />
        </mxCell>
        <mxCell id="1nwxLZV6FVW2qh2XziLg-150" value="Utilizzo" style="shape=rhombus;perimeter=rhombusPerimeter;whiteSpace=wrap;html=1;align=center;" vertex="1" parent="1">
          <mxGeometry x="-290" y="1980" width="120" height="60" as="geometry" />
        </mxCell>
        <mxCell id="1nwxLZV6FVW2qh2XziLg-151" value="" style="endArrow=none;html=1;rounded=0;entryX=0.5;entryY=0;entryDx=0;entryDy=0;exitX=0.5;exitY=1;exitDx=0;exitDy=0;" edge="1" parent="1" source="1nwxLZV6FVW2qh2XziLg-150" target="1nwxLZV6FVW2qh2XziLg-147">
          <mxGeometry relative="1" as="geometry">
            <mxPoint x="190" y="2152" as="sourcePoint" />
            <mxPoint x="350" y="2152" as="targetPoint" />
          </mxGeometry>
        </mxCell>
        <mxCell id="1nwxLZV6FVW2qh2XziLg-152" value="" style="endArrow=none;html=1;rounded=0;exitX=0.5;exitY=1;exitDx=0;exitDy=0;entryX=0.5;entryY=0;entryDx=0;entryDy=0;" edge="1" parent="1" source="1nwxLZV6FVW2qh2XziLg-146" target="1nwxLZV6FVW2qh2XziLg-150">
          <mxGeometry relative="1" as="geometry">
            <mxPoint x="190" y="2092" as="sourcePoint" />
            <mxPoint x="350" y="2092" as="targetPoint" />
          </mxGeometry>
        </mxCell>
        <mxCell id="1nwxLZV6FVW2qh2XziLg-153" value="(1, N)" style="text;html=1;align=center;verticalAlign=middle;resizable=0;points=[];autosize=1;strokeColor=none;fillColor=none;" vertex="1" parent="1">
          <mxGeometry x="-230" y="1950" width="50" height="30" as="geometry" />
        </mxCell>
        <mxCell id="1nwxLZV6FVW2qh2XziLg-154" value="(1, 1)" style="text;html=1;align=center;verticalAlign=middle;resizable=0;points=[];autosize=1;strokeColor=none;fillColor=none;" vertex="1" parent="1">
          <mxGeometry x="-230" y="2042.5" width="50" height="30" as="geometry" />
        </mxCell>
        <mxCell id="1nwxLZV6FVW2qh2XziLg-155" value="Critico" style="whiteSpace=wrap;html=1;align=center;rounded=1;direction=east;" vertex="1" parent="1">
          <mxGeometry x="-280" y="1620" width="100" height="42" as="geometry" />
        </mxCell>
        <mxCell id="1nwxLZV6FVW2qh2XziLg-156" value="" style="endArrow=none;html=1;rounded=1;exitX=1;exitY=0.5;exitDx=0;exitDy=0;entryX=0.5;entryY=0;entryDx=0;entryDy=0;" edge="1" parent="1" source="1nwxLZV6FVW2qh2XziLg-148" target="1nwxLZV6FVW2qh2XziLg-149">
          <mxGeometry relative="1" as="geometry">
            <mxPoint x="-540" y="2132" as="sourcePoint" />
            <mxPoint x="-380" y="2132" as="targetPoint" />
            <Array as="points">
              <mxPoint x="-460" y="2040" />
            </Array>
          </mxGeometry>
        </mxCell>
        <mxCell id="1nwxLZV6FVW2qh2XziLg-157" value="" style="endArrow=none;html=1;rounded=1;exitX=1;exitY=0.5;exitDx=0;exitDy=0;" edge="1" parent="1" source="1nwxLZV6FVW2qh2XziLg-149">
          <mxGeometry relative="1" as="geometry">
            <mxPoint x="-540" y="2132" as="sourcePoint" />
            <mxPoint x="-270" y="2162" as="targetPoint" />
            <Array as="points">
              <mxPoint x="-270" y="2098" />
            </Array>
          </mxGeometry>
        </mxCell>
        <mxCell id="1nwxLZV6FVW2qh2XziLg-158" value="" style="shape=flexArrow;endArrow=classic;html=1;rounded=0;fillColor=#000000;" edge="1" parent="1">
          <mxGeometry width="50" height="50" relative="1" as="geometry">
            <mxPoint x="-310" y="1712.34" as="sourcePoint" />
            <mxPoint x="-350" y="1712.46" as="targetPoint" />
          </mxGeometry>
        </mxCell>
        <mxCell id="1nwxLZV6FVW2qh2XziLg-159" value="(0, N)" style="text;html=1;align=center;verticalAlign=middle;resizable=0;points=[];autosize=1;strokeColor=none;fillColor=none;" vertex="1" parent="1">
          <mxGeometry x="-460" y="2037.5" width="50" height="30" as="geometry" />
        </mxCell>
        <mxCell id="1nwxLZV6FVW2qh2XziLg-160" value="Persona" style="whiteSpace=wrap;html=1;align=center;rounded=1;direction=east;" vertex="1" parent="1">
          <mxGeometry x="-450" y="1692.5" width="100" height="40" as="geometry" />
        </mxCell>
        <mxCell id="1nwxLZV6FVW2qh2XziLg-161" value="(1, 1)" style="text;html=1;align=center;verticalAlign=middle;resizable=0;points=[];autosize=1;strokeColor=none;fillColor=none;" vertex="1" parent="1">
          <mxGeometry x="-400" y="2067.5" width="50" height="30" as="geometry" />
        </mxCell>
        <mxCell id="1nwxLZV6FVW2qh2XziLg-162" value="Recensione" style="shape=rhombus;perimeter=rhombusPerimeter;whiteSpace=wrap;html=1;align=center;" vertex="1" parent="1">
          <mxGeometry x="-590" y="1755" width="100" height="50" as="geometry" />
        </mxCell>
        <mxCell id="1nwxLZV6FVW2qh2XziLg-163" value="" style="endArrow=none;html=1;rounded=0;exitX=1;exitY=0.5;exitDx=0;exitDy=0;entryX=0;entryY=0.5;entryDx=0;entryDy=0;" edge="1" parent="1" source="1nwxLZV6FVW2qh2XziLg-162" target="1nwxLZV6FVW2qh2XziLg-146">
          <mxGeometry width="50" height="50" relative="1" as="geometry">
            <mxPoint x="-370" y="1762" as="sourcePoint" />
            <mxPoint x="-320" y="1712" as="targetPoint" />
          </mxGeometry>
        </mxCell>
        <mxCell id="1nwxLZV6FVW2qh2XziLg-164" value="" style="endArrow=none;html=1;rounded=0;exitX=1;exitY=0.5;exitDx=0;exitDy=0;entryX=0;entryY=0.5;entryDx=0;entryDy=0;" edge="1" parent="1" source="1nwxLZV6FVW2qh2XziLg-143" target="1nwxLZV6FVW2qh2XziLg-162">
          <mxGeometry width="50" height="50" relative="1" as="geometry">
            <mxPoint x="-670" y="1762" as="sourcePoint" />
            <mxPoint x="-620" y="1712" as="targetPoint" />
          </mxGeometry>
        </mxCell>
        <mxCell id="1nwxLZV6FVW2qh2XziLg-165" value="Posizione" style="shape=rhombus;perimeter=rhombusPerimeter;whiteSpace=wrap;html=1;align=center;" vertex="1" parent="1">
          <mxGeometry x="-1000" y="2075" width="120" height="60" as="geometry" />
        </mxCell>
        <mxCell id="1nwxLZV6FVW2qh2XziLg-166" value="" style="endArrow=none;html=1;rounded=0;exitX=0.5;exitY=1;exitDx=0;exitDy=0;entryX=0.5;entryY=0;entryDx=0;entryDy=0;" edge="1" parent="1" source="1nwxLZV6FVW2qh2XziLg-174" target="1nwxLZV6FVW2qh2XziLg-148">
          <mxGeometry relative="1" as="geometry">
            <mxPoint x="-670" y="1941.0900000000001" as="sourcePoint" />
            <mxPoint x="-510" y="1941.0900000000001" as="targetPoint" />
          </mxGeometry>
        </mxCell>
        <mxCell id="1nwxLZV6FVW2qh2XziLg-167" value="(1, N)" style="text;html=1;align=center;verticalAlign=middle;resizable=0;points=[];autosize=1;strokeColor=none;fillColor=none;" vertex="1" parent="1">
          <mxGeometry x="-710" y="1825" width="50" height="30" as="geometry" />
        </mxCell>
        <mxCell id="1nwxLZV6FVW2qh2XziLg-168" value="(0, N)" style="text;html=1;align=center;verticalAlign=middle;resizable=0;points=[];autosize=1;strokeColor=none;fillColor=none;" vertex="1" parent="1">
          <mxGeometry x="-710" y="1970" width="50" height="30" as="geometry" />
        </mxCell>
        <mxCell id="1nwxLZV6FVW2qh2XziLg-169" value="(1, N)" style="text;html=1;align=center;verticalAlign=middle;resizable=0;points=[];autosize=1;strokeColor=none;fillColor=none;" vertex="1" parent="1">
          <mxGeometry x="-490" y="1752" width="50" height="30" as="geometry" />
        </mxCell>
        <mxCell id="1nwxLZV6FVW2qh2XziLg-170" value="" style="endArrow=none;html=1;rounded=0;entryX=0;entryY=0.5;entryDx=0;entryDy=0;exitX=1;exitY=0.5;exitDx=0;exitDy=0;" edge="1" parent="1" source="1nwxLZV6FVW2qh2XziLg-171" target="1nwxLZV6FVW2qh2XziLg-155">
          <mxGeometry width="50" height="50" relative="1" as="geometry">
            <mxPoint x="-520" y="1822" as="sourcePoint" />
            <mxPoint x="-470" y="1772" as="targetPoint" />
          </mxGeometry>
        </mxCell>
        <mxCell id="1nwxLZV6FVW2qh2XziLg-171" value="Critica" style="shape=rhombus;perimeter=rhombusPerimeter;whiteSpace=wrap;html=1;align=center;direction=east;" vertex="1" parent="1">
          <mxGeometry x="-600" y="1610" width="120" height="60" as="geometry" />
        </mxCell>
        <mxCell id="1nwxLZV6FVW2qh2XziLg-172" value="" style="endArrow=none;html=1;rounded=1;exitX=1;exitY=0.25;exitDx=0;exitDy=0;entryX=0;entryY=0.5;entryDx=0;entryDy=0;" edge="1" parent="1" source="1nwxLZV6FVW2qh2XziLg-143" target="1nwxLZV6FVW2qh2XziLg-171">
          <mxGeometry width="50" height="50" relative="1" as="geometry">
            <mxPoint x="-800" y="1685" as="sourcePoint" />
            <mxPoint x="-750" y="1635" as="targetPoint" />
            <Array as="points">
              <mxPoint x="-670" y="1770" />
              <mxPoint x="-670" y="1640" />
            </Array>
          </mxGeometry>
        </mxCell>
        <mxCell id="1nwxLZV6FVW2qh2XziLg-173" value="" style="endArrow=none;html=1;rounded=1;exitX=1;exitY=0.75;exitDx=0;exitDy=0;entryX=0.5;entryY=0;entryDx=0;entryDy=0;" edge="1" parent="1" source="1nwxLZV6FVW2qh2XziLg-143" target="1nwxLZV6FVW2qh2XziLg-174">
          <mxGeometry relative="1" as="geometry">
            <mxPoint x="-650" y="1862" as="sourcePoint" />
            <mxPoint x="-490" y="1862" as="targetPoint" />
            <Array as="points">
              <mxPoint x="-710" y="1792" />
            </Array>
          </mxGeometry>
        </mxCell>
        <mxCell id="1nwxLZV6FVW2qh2XziLg-174" value="Produzione" style="shape=rhombus;perimeter=rhombusPerimeter;whiteSpace=wrap;html=1;align=center;" vertex="1" parent="1">
          <mxGeometry x="-770" y="1912" width="120" height="60" as="geometry" />
        </mxCell>
        <mxCell id="1nwxLZV6FVW2qh2XziLg-175" value="(1, N)" style="text;html=1;align=center;verticalAlign=middle;resizable=0;points=[];autosize=1;strokeColor=none;fillColor=none;" vertex="1" parent="1">
          <mxGeometry x="-640" y="1752" width="50" height="30" as="geometry" />
        </mxCell>
        <mxCell id="1nwxLZV6FVW2qh2XziLg-176" value="(0, N)" style="text;html=1;align=center;verticalAlign=middle;resizable=0;points=[];autosize=1;strokeColor=none;fillColor=none;" vertex="1" parent="1">
          <mxGeometry x="-485" y="1615" width="50" height="30" as="geometry" />
        </mxCell>
        <mxCell id="1nwxLZV6FVW2qh2XziLg-177" value="" style="endArrow=none;html=1;rounded=1;exitX=0.5;exitY=0;exitDx=0;exitDy=0;entryX=0;entryY=0.5;entryDx=0;entryDy=0;" edge="1" parent="1" source="1nwxLZV6FVW2qh2XziLg-145" target="1nwxLZV6FVW2qh2XziLg-165">
          <mxGeometry relative="1" as="geometry">
            <mxPoint x="-920" y="2142" as="sourcePoint" />
            <mxPoint x="-760" y="2142" as="targetPoint" />
            <Array as="points">
              <mxPoint x="-1100" y="2105" />
            </Array>
          </mxGeometry>
        </mxCell>
        <mxCell id="1nwxLZV6FVW2qh2XziLg-178" value="(0, N)" style="text;html=1;align=center;verticalAlign=middle;resizable=0;points=[];autosize=1;strokeColor=none;fillColor=none;" vertex="1" parent="1">
          <mxGeometry x="-640" y="1615" width="50" height="30" as="geometry" />
        </mxCell>
        <mxCell id="1nwxLZV6FVW2qh2XziLg-179" value="" style="endArrow=none;html=1;rounded=1;entryX=0.5;entryY=1;entryDx=0;entryDy=0;exitX=1;exitY=0.5;exitDx=0;exitDy=0;" edge="1" parent="1" source="1nwxLZV6FVW2qh2XziLg-165" target="1nwxLZV6FVW2qh2XziLg-148">
          <mxGeometry relative="1" as="geometry">
            <mxPoint x="-920" y="2142" as="sourcePoint" />
            <mxPoint x="-760" y="2142" as="targetPoint" />
            <Array as="points">
              <mxPoint x="-710" y="2105" />
            </Array>
          </mxGeometry>
        </mxCell>
        <mxCell id="1nwxLZV6FVW2qh2XziLg-180" value="(1, 1)" style="text;html=1;align=center;verticalAlign=middle;resizable=0;points=[];autosize=1;strokeColor=none;fillColor=none;" vertex="1" parent="1">
          <mxGeometry x="-1050" y="2075" width="50" height="30" as="geometry" />
        </mxCell>
        <mxCell id="1nwxLZV6FVW2qh2XziLg-181" value="(0, N)" style="text;html=1;align=center;verticalAlign=middle;resizable=0;points=[];autosize=1;strokeColor=none;fillColor=none;" vertex="1" parent="1">
          <mxGeometry x="-880" y="2075" width="50" height="30" as="geometry" />
        </mxCell>
        <mxCell id="1nwxLZV6FVW2qh2XziLg-182" value="Abbonamento" style="whiteSpace=wrap;html=1;align=center;rounded=1;" vertex="1" parent="1">
          <mxGeometry x="-110" y="1942.5" width="100" height="40" as="geometry" />
        </mxCell>
        <mxCell id="1nwxLZV6FVW2qh2XziLg-183" value="Connessione" style="shape=rhombus;perimeter=rhombusPerimeter;whiteSpace=wrap;html=1;align=center;" vertex="1" parent="1">
          <mxGeometry x="-730" y="2152.5" width="120" height="60" as="geometry" />
        </mxCell>
        <mxCell id="1nwxLZV6FVW2qh2XziLg-184" value="AbbonamUtente" style="shape=rhombus;perimeter=rhombusPerimeter;whiteSpace=wrap;html=1;align=center;" vertex="1" parent="1">
          <mxGeometry x="-120" y="1805" width="120" height="60" as="geometry" />
        </mxCell>
        <mxCell id="1nwxLZV6FVW2qh2XziLg-185" value="" style="endArrow=none;html=1;rounded=1;exitX=1;exitY=0.75;exitDx=0;exitDy=0;entryX=0.5;entryY=0;entryDx=0;entryDy=0;" edge="1" parent="1" source="1nwxLZV6FVW2qh2XziLg-146" target="1nwxLZV6FVW2qh2XziLg-184">
          <mxGeometry width="50" height="50" relative="1" as="geometry">
            <mxPoint x="-30" y="1702" as="sourcePoint" />
            <mxPoint x="20" y="1652" as="targetPoint" />
            <Array as="points">
              <mxPoint x="-60" y="1791" />
            </Array>
          </mxGeometry>
        </mxCell>
        <mxCell id="1nwxLZV6FVW2qh2XziLg-186" value="" style="endArrow=none;html=1;rounded=0;entryX=0;entryY=0.5;entryDx=0;entryDy=0;exitX=1;exitY=0.5;exitDx=0;exitDy=0;" edge="1" parent="1" source="1nwxLZV6FVW2qh2XziLg-145" target="1nwxLZV6FVW2qh2XziLg-183">
          <mxGeometry relative="1" as="geometry">
            <mxPoint x="-960" y="2272" as="sourcePoint" />
            <mxPoint x="-800" y="2272" as="targetPoint" />
          </mxGeometry>
        </mxCell>
        <mxCell id="1nwxLZV6FVW2qh2XziLg-187" value="" style="endArrow=none;html=1;rounded=0;exitX=0.5;exitY=0;exitDx=0;exitDy=0;entryX=0.5;entryY=1;entryDx=0;entryDy=0;" edge="1" parent="1" source="1nwxLZV6FVW2qh2XziLg-182" target="1nwxLZV6FVW2qh2XziLg-184">
          <mxGeometry width="50" height="50" relative="1" as="geometry">
            <mxPoint x="-30" y="1802" as="sourcePoint" />
            <mxPoint x="20" y="1752" as="targetPoint" />
          </mxGeometry>
        </mxCell>
        <mxCell id="1nwxLZV6FVW2qh2XziLg-188" value="" style="endArrow=none;html=1;rounded=0;entryX=0;entryY=0.5;entryDx=0;entryDy=0;exitX=1;exitY=0.5;exitDx=0;exitDy=0;" edge="1" parent="1" source="1nwxLZV6FVW2qh2XziLg-183" target="1nwxLZV6FVW2qh2XziLg-147">
          <mxGeometry relative="1" as="geometry">
            <mxPoint x="-650" y="2127.5" as="sourcePoint" />
            <mxPoint x="-100" y="2358" as="targetPoint" />
          </mxGeometry>
        </mxCell>
        <mxCell id="1nwxLZV6FVW2qh2XziLg-189" value="" style="endArrow=none;html=1;rounded=1;entryX=0;entryY=0.75;entryDx=0;entryDy=0;exitX=0;exitY=0.25;exitDx=0;exitDy=0;" edge="1" parent="1" source="1nwxLZV6FVW2qh2XziLg-146" target="1nwxLZV6FVW2qh2XziLg-155">
          <mxGeometry width="50" height="50" relative="1" as="geometry">
            <mxPoint x="-280" y="1722" as="sourcePoint" />
            <mxPoint x="-230" y="1672" as="targetPoint" />
            <Array as="points">
              <mxPoint x="-310" y="1772" />
              <mxPoint x="-310" y="1712" />
              <mxPoint x="-310" y="1652" />
            </Array>
          </mxGeometry>
        </mxCell>
        <mxCell id="1nwxLZV6FVW2qh2XziLg-190" value="(1, N)" style="text;html=1;align=center;verticalAlign=middle;resizable=0;points=[];autosize=1;strokeColor=none;fillColor=none;" vertex="1" parent="1">
          <mxGeometry x="-60" y="1860" width="50" height="30" as="geometry" />
        </mxCell>
        <mxCell id="1nwxLZV6FVW2qh2XziLg-191" value="(1, N)" style="text;html=1;align=center;verticalAlign=middle;resizable=0;points=[];autosize=1;strokeColor=none;fillColor=none;" vertex="1" parent="1">
          <mxGeometry x="-610" y="2152.5" width="50" height="30" as="geometry" />
        </mxCell>
        <mxCell id="1nwxLZV6FVW2qh2XziLg-192" value="Fattura&lt;br&gt;" style="whiteSpace=wrap;html=1;align=center;rounded=1;" vertex="1" parent="1">
          <mxGeometry x="-110" y="1280" width="100" height="40" as="geometry" />
        </mxCell>
        <mxCell id="1nwxLZV6FVW2qh2XziLg-193" value="(0, N)" style="text;html=1;align=center;verticalAlign=middle;resizable=0;points=[];autosize=1;strokeColor=none;fillColor=none;" vertex="1" parent="1">
          <mxGeometry x="-780" y="2152.5" width="50" height="30" as="geometry" />
        </mxCell>
        <mxCell id="1nwxLZV6FVW2qh2XziLg-194" value="(1, 1)" style="text;html=1;align=center;verticalAlign=middle;resizable=0;points=[];autosize=1;strokeColor=none;fillColor=none;" vertex="1" parent="1">
          <mxGeometry x="-60" y="1782" width="50" height="30" as="geometry" />
        </mxCell>
        <mxCell id="1nwxLZV6FVW2qh2XziLg-195" value="Fatturazione" style="shape=rhombus;perimeter=rhombusPerimeter;whiteSpace=wrap;html=1;align=center;" vertex="1" parent="1">
          <mxGeometry x="-120" y="1380" width="120" height="60" as="geometry" />
        </mxCell>
        <mxCell id="1nwxLZV6FVW2qh2XziLg-196" value="P.o.P" style="shape=rhombus;perimeter=rhombusPerimeter;whiteSpace=wrap;html=1;align=center;" vertex="1" parent="1">
          <mxGeometry x="-1210" y="2082" width="80" height="45.5" as="geometry" />
        </mxCell>
        <mxCell id="1nwxLZV6FVW2qh2XziLg-197" value="FormatoFilm" style="shape=rhombus;perimeter=rhombusPerimeter;whiteSpace=wrap;html=1;align=center;" vertex="1" parent="1">
          <mxGeometry x="-1190" y="1751" width="120" height="60" as="geometry" />
        </mxCell>
        <mxCell id="1nwxLZV6FVW2qh2XziLg-198" value="" style="endArrow=none;html=1;rounded=1;exitX=1;exitY=0.5;exitDx=0;exitDy=0;entryX=0.5;entryY=1;entryDx=0;entryDy=0;" edge="1" parent="1" source="1nwxLZV6FVW2qh2XziLg-146" target="1nwxLZV6FVW2qh2XziLg-195">
          <mxGeometry width="50" height="50" relative="1" as="geometry">
            <mxPoint x="-140" y="1740" as="sourcePoint" />
            <mxPoint x="-90" y="1690" as="targetPoint" />
            <Array as="points">
              <mxPoint x="-60" y="1781" />
            </Array>
          </mxGeometry>
        </mxCell>
        <mxCell id="1nwxLZV6FVW2qh2XziLg-199" value="" style="endArrow=none;html=1;rounded=0;entryX=0;entryY=0.5;entryDx=0;entryDy=0;exitX=1;exitY=0.5;exitDx=0;exitDy=0;" edge="1" parent="1" source="1nwxLZV6FVW2qh2XziLg-197" target="1nwxLZV6FVW2qh2XziLg-143">
          <mxGeometry relative="1" as="geometry">
            <mxPoint x="-1390" y="1752" as="sourcePoint" />
            <mxPoint x="-1230" y="1752" as="targetPoint" />
          </mxGeometry>
        </mxCell>
        <mxCell id="1nwxLZV6FVW2qh2XziLg-200" value="Preferenza" style="shape=rhombus;perimeter=rhombusPerimeter;whiteSpace=wrap;html=1;align=center;" vertex="1" parent="1">
          <mxGeometry x="-460" y="1455" width="120" height="60" as="geometry" />
        </mxCell>
        <mxCell id="1nwxLZV6FVW2qh2XziLg-201" value="Carta" style="whiteSpace=wrap;html=1;align=center;direction=east;rounded=1;" vertex="1" parent="1">
          <mxGeometry x="-450" y="1280" width="100" height="40" as="geometry" />
        </mxCell>
        <mxCell id="1nwxLZV6FVW2qh2XziLg-202" value="(1, N)" style="text;html=1;align=center;verticalAlign=middle;resizable=0;points=[];autosize=1;strokeColor=none;fillColor=none;" vertex="1" parent="1">
          <mxGeometry x="-1040" y="1750" width="50" height="30" as="geometry" />
        </mxCell>
        <mxCell id="1nwxLZV6FVW2qh2XziLg-203" value="(1, N)" style="text;html=1;align=center;verticalAlign=middle;resizable=0;points=[];autosize=1;strokeColor=none;fillColor=none;" vertex="1" parent="1">
          <mxGeometry x="-1240" y="1750" width="50" height="30" as="geometry" />
        </mxCell>
        <mxCell id="1nwxLZV6FVW2qh2XziLg-204" value="(1, N)" style="text;html=1;align=center;verticalAlign=middle;resizable=0;points=[];autosize=1;strokeColor=none;fillColor=none;" vertex="1" parent="1">
          <mxGeometry x="-350" y="1455" width="50" height="30" as="geometry" />
        </mxCell>
        <mxCell id="1nwxLZV6FVW2qh2XziLg-205" value="(1, 1)" style="text;html=1;align=center;verticalAlign=middle;resizable=0;points=[];autosize=1;strokeColor=none;fillColor=none;" vertex="1" parent="1">
          <mxGeometry x="-450" y="1430" width="50" height="30" as="geometry" />
        </mxCell>
        <mxCell id="1nwxLZV6FVW2qh2XziLg-206" value="(1, N)" style="text;html=1;align=center;verticalAlign=middle;resizable=0;points=[];autosize=1;strokeColor=none;fillColor=none;" vertex="1" parent="1">
          <mxGeometry x="-60" y="1435" width="50" height="30" as="geometry" />
        </mxCell>
        <mxCell id="1nwxLZV6FVW2qh2XziLg-207" value="(1, 1)" style="text;html=1;align=center;verticalAlign=middle;resizable=0;points=[];autosize=1;strokeColor=none;fillColor=none;" vertex="1" parent="1">
          <mxGeometry x="-60" y="1352" width="50" height="30" as="geometry" />
        </mxCell>
        <mxCell id="1nwxLZV6FVW2qh2XziLg-208" value="(1, 1)" style="text;html=1;align=center;verticalAlign=middle;resizable=0;points=[];autosize=1;strokeColor=none;fillColor=none;" vertex="1" parent="1">
          <mxGeometry x="-180" y="1270" width="50" height="30" as="geometry" />
        </mxCell>
        <mxCell id="1nwxLZV6FVW2qh2XziLg-209" value="(1, N)" style="text;html=1;align=center;verticalAlign=middle;resizable=0;points=[];autosize=1;strokeColor=none;fillColor=none;" vertex="1" parent="1">
          <mxGeometry x="-330" y="1275" width="50" height="30" as="geometry" />
        </mxCell>
        <mxCell id="1nwxLZV6FVW2qh2XziLg-210" value="" style="endArrow=none;html=1;rounded=1;exitX=0.5;exitY=1;exitDx=0;exitDy=0;entryX=0;entryY=0.25;entryDx=0;entryDy=0;" edge="1" parent="1" source="1nwxLZV6FVW2qh2XziLg-196" target="1nwxLZV6FVW2qh2XziLg-145">
          <mxGeometry relative="1" as="geometry">
            <mxPoint x="-1300" y="2022.08" as="sourcePoint" />
            <mxPoint x="-1130" y="2162" as="targetPoint" />
            <Array as="points">
              <mxPoint x="-1170" y="2172" />
            </Array>
          </mxGeometry>
        </mxCell>
        <mxCell id="1nwxLZV6FVW2qh2XziLg-211" value="" style="endArrow=none;html=1;rounded=1;entryX=0;entryY=0.5;entryDx=0;entryDy=0;exitX=0.822;exitY=-0.007;exitDx=0;exitDy=0;exitPerimeter=0;" edge="1" parent="1" source="1nwxLZV6FVW2qh2XziLg-144" target="1nwxLZV6FVW2qh2XziLg-197">
          <mxGeometry relative="1" as="geometry">
            <mxPoint x="-1340" y="1770" as="sourcePoint" />
            <mxPoint x="-1180" y="1770" as="targetPoint" />
            <Array as="points">
              <mxPoint x="-1298" y="1781" />
            </Array>
          </mxGeometry>
        </mxCell>
        <mxCell id="1nwxLZV6FVW2qh2XziLg-212" value="" style="endArrow=none;html=1;rounded=1;entryX=0.5;entryY=0;entryDx=0;entryDy=0;exitX=1;exitY=0.75;exitDx=0;exitDy=0;" edge="1" parent="1" source="1nwxLZV6FVW2qh2XziLg-144" target="1nwxLZV6FVW2qh2XziLg-196">
          <mxGeometry relative="1" as="geometry">
            <mxPoint x="-1160" y="1982" as="sourcePoint" />
            <mxPoint x="-1000" y="1982" as="targetPoint" />
            <Array as="points">
              <mxPoint x="-1170" y="2042" />
            </Array>
          </mxGeometry>
        </mxCell>
        <mxCell id="1nwxLZV6FVW2qh2XziLg-213" value="Premio" style="whiteSpace=wrap;html=1;align=center;rounded=1;" vertex="1" parent="1">
          <mxGeometry x="-779.75" y="1352" width="100" height="40" as="geometry" />
        </mxCell>
        <mxCell id="1nwxLZV6FVW2qh2XziLg-214" value="Vincita" style="shape=rhombus;perimeter=rhombusPerimeter;whiteSpace=wrap;html=1;align=center;" vertex="1" parent="1">
          <mxGeometry x="-787" y="1467.5" width="114.5" height="55" as="geometry" />
        </mxCell>
        <mxCell id="1nwxLZV6FVW2qh2XziLg-215" value="Visualizzazione" style="shape=rhombus;perimeter=rhombusPerimeter;whiteSpace=wrap;html=1;align=center;" vertex="1" parent="1">
          <mxGeometry x="-1350" y="2237.5" width="120" height="60" as="geometry" />
        </mxCell>
        <mxCell id="1nwxLZV6FVW2qh2XziLg-216" value="" style="endArrow=none;html=1;rounded=0;exitX=0.5;exitY=0;exitDx=0;exitDy=0;entryX=0.906;entryY=1.001;entryDx=0;entryDy=0;entryPerimeter=0;" edge="1" parent="1" source="1nwxLZV6FVW2qh2XziLg-215" target="1nwxLZV6FVW2qh2XziLg-144">
          <mxGeometry relative="1" as="geometry">
            <mxPoint x="-1420" y="2062" as="sourcePoint" />
            <mxPoint x="-1290" y="2052" as="targetPoint" />
          </mxGeometry>
        </mxCell>
        <mxCell id="1nwxLZV6FVW2qh2XziLg-217" value="" style="endArrow=none;html=1;rounded=1;entryX=1;entryY=0.5;entryDx=0;entryDy=0;" edge="1" parent="1" target="1nwxLZV6FVW2qh2XziLg-200">
          <mxGeometry width="50" height="50" relative="1" as="geometry">
            <mxPoint x="-180" y="1772" as="sourcePoint" />
            <mxPoint x="-130" y="1725" as="targetPoint" />
            <Array as="points">
              <mxPoint x="-100" y="1772" />
              <mxPoint x="-100" y="1512" />
              <mxPoint x="-100" y="1485" />
              <mxPoint x="-210" y="1485" />
            </Array>
          </mxGeometry>
        </mxCell>
        <mxCell id="1nwxLZV6FVW2qh2XziLg-218" value="" style="endArrow=none;html=1;rounded=0;entryX=0.5;entryY=0;entryDx=0;entryDy=0;exitX=0.5;exitY=1;exitDx=0;exitDy=0;" edge="1" parent="1" source="1nwxLZV6FVW2qh2XziLg-192" target="1nwxLZV6FVW2qh2XziLg-195">
          <mxGeometry width="50" height="50" relative="1" as="geometry">
            <mxPoint x="-330" y="1452" as="sourcePoint" />
            <mxPoint x="-280" y="1402" as="targetPoint" />
          </mxGeometry>
        </mxCell>
        <mxCell id="1nwxLZV6FVW2qh2XziLg-219" value="Pagamento&lt;br&gt;" style="shape=rhombus;perimeter=rhombusPerimeter;whiteSpace=wrap;html=1;align=center;" vertex="1" parent="1">
          <mxGeometry x="-290" y="1270" width="120" height="60" as="geometry" />
        </mxCell>
        <mxCell id="1nwxLZV6FVW2qh2XziLg-220" value="" style="endArrow=none;html=1;rounded=0;exitX=0.5;exitY=0;exitDx=0;exitDy=0;entryX=0.5;entryY=1;entryDx=0;entryDy=0;" edge="1" parent="1" source="1nwxLZV6FVW2qh2XziLg-200" target="1nwxLZV6FVW2qh2XziLg-201">
          <mxGeometry width="50" height="50" relative="1" as="geometry">
            <mxPoint x="-250" y="1342" as="sourcePoint" />
            <mxPoint x="-200" y="1292" as="targetPoint" />
          </mxGeometry>
        </mxCell>
        <mxCell id="1nwxLZV6FVW2qh2XziLg-221" value="" style="endArrow=none;html=1;rounded=0;exitX=1;exitY=0.5;exitDx=0;exitDy=0;entryX=0;entryY=0.5;entryDx=0;entryDy=0;" edge="1" parent="1" source="1nwxLZV6FVW2qh2XziLg-201" target="1nwxLZV6FVW2qh2XziLg-219">
          <mxGeometry width="50" height="50" relative="1" as="geometry">
            <mxPoint x="-250" y="1342" as="sourcePoint" />
            <mxPoint x="-200" y="1292" as="targetPoint" />
          </mxGeometry>
        </mxCell>
        <mxCell id="1nwxLZV6FVW2qh2XziLg-222" value="" style="endArrow=none;html=1;rounded=0;exitX=1;exitY=0.5;exitDx=0;exitDy=0;entryX=0;entryY=0.5;entryDx=0;entryDy=0;" edge="1" parent="1">
          <mxGeometry width="50" height="50" relative="1" as="geometry">
            <mxPoint x="-170" y="1299.71" as="sourcePoint" />
            <mxPoint x="-110" y="1299.71" as="targetPoint" />
          </mxGeometry>
        </mxCell>
        <mxCell id="1nwxLZV6FVW2qh2XziLg-223" value="Formato Video" style="whiteSpace=wrap;html=1;align=center;rounded=1;" vertex="1" parent="1">
          <mxGeometry x="-1467" y="2247.5" width="84" height="40" as="geometry" />
        </mxCell>
        <mxCell id="1nwxLZV6FVW2qh2XziLg-224" value="FormatoAudio" style="whiteSpace=wrap;html=1;align=center;rounded=1;" vertex="1" parent="1">
          <mxGeometry x="-1600" y="2247.5" width="84" height="40" as="geometry" />
        </mxCell>
        <mxCell id="1nwxLZV6FVW2qh2XziLg-228" value="Recitazione" style="shape=rhombus;perimeter=rhombusPerimeter;whiteSpace=wrap;html=1;align=center;" vertex="1" parent="1">
          <mxGeometry x="-1060" y="1450" width="120" height="60" as="geometry" />
        </mxCell>
        <mxCell id="1nwxLZV6FVW2qh2XziLg-229" value="Regia" style="shape=rhombus;perimeter=rhombusPerimeter;whiteSpace=wrap;html=1;align=center;" vertex="1" parent="1">
          <mxGeometry x="-920" y="1450" width="120" height="60" as="geometry" />
        </mxCell>
        <mxCell id="1nwxLZV6FVW2qh2XziLg-230" value="Audio" style="shape=rhombus;perimeter=rhombusPerimeter;whiteSpace=wrap;html=1;align=center;" vertex="1" parent="1">
          <mxGeometry x="-1530" y="1675" width="120" height="60" as="geometry" />
        </mxCell>
        <mxCell id="1nwxLZV6FVW2qh2XziLg-231" value="" style="endArrow=none;html=1;rounded=1;entryX=0.5;entryY=1;entryDx=0;entryDy=0;exitX=1;exitY=0.5;exitDx=0;exitDy=0;" edge="1" parent="1" source="1nwxLZV6FVW2qh2XziLg-215" target="1nwxLZV6FVW2qh2XziLg-147">
          <mxGeometry relative="1" as="geometry">
            <mxPoint x="-770" y="2262" as="sourcePoint" />
            <mxPoint x="-240" y="2092" as="targetPoint" />
            <Array as="points">
              <mxPoint x="-230" y="2272" />
            </Array>
          </mxGeometry>
        </mxCell>
        <mxCell id="1nwxLZV6FVW2qh2XziLg-232" value="" style="endArrow=none;html=1;rounded=0;entryX=0.5;entryY=1;entryDx=0;entryDy=0;exitX=0.585;exitY=0.003;exitDx=0;exitDy=0;exitPerimeter=0;" edge="1" parent="1" source="1nwxLZV6FVW2qh2XziLg-144" target="1nwxLZV6FVW2qh2XziLg-238">
          <mxGeometry relative="1" as="geometry">
            <mxPoint x="-1340" y="1792" as="sourcePoint" />
            <mxPoint x="-1180" y="1792" as="targetPoint" />
          </mxGeometry>
        </mxCell>
        <mxCell id="1nwxLZV6FVW2qh2XziLg-233" value="GenereFilm" style="shape=rhombus;perimeter=rhombusPerimeter;whiteSpace=wrap;html=1;align=center;" vertex="1" parent="1">
          <mxGeometry x="-1212.5" y="1465" width="105" height="55" as="geometry" />
        </mxCell>
        <mxCell id="1nwxLZV6FVW2qh2XziLg-234" value="(1, 1)" style="text;html=1;align=center;verticalAlign=middle;resizable=0;points=[];autosize=1;strokeColor=none;fillColor=none;" vertex="1" parent="1">
          <mxGeometry x="-1230" y="2237.5" width="50" height="30" as="geometry" />
        </mxCell>
        <mxCell id="1nwxLZV6FVW2qh2XziLg-235" value="(0, N)" style="text;html=1;align=center;verticalAlign=middle;resizable=0;points=[];autosize=1;strokeColor=none;fillColor=none;" vertex="1" parent="1">
          <mxGeometry x="-1290" y="2207.5" width="50" height="30" as="geometry" />
        </mxCell>
        <mxCell id="1nwxLZV6FVW2qh2XziLg-236" value="Genere" style="whiteSpace=wrap;html=1;align=center;rounded=1;" vertex="1" parent="1">
          <mxGeometry x="-1210" y="1360" width="100" height="40" as="geometry" />
        </mxCell>
        <mxCell id="1nwxLZV6FVW2qh2XziLg-237" value="Cineasta" style="whiteSpace=wrap;html=1;align=center;rounded=1;" vertex="1" parent="1">
          <mxGeometry x="-980" y="1240" width="100" height="40" as="geometry" />
        </mxCell>
        <mxCell id="1nwxLZV6FVW2qh2XziLg-238" value="Sottotitolo" style="shape=rhombus;perimeter=rhombusPerimeter;whiteSpace=wrap;html=1;align=center;" vertex="1" parent="1">
          <mxGeometry x="-1380" y="1672.5" width="120" height="60" as="geometry" />
        </mxCell>
        <mxCell id="1nwxLZV6FVW2qh2XziLg-239" value="" style="endArrow=none;html=1;rounded=1;entryX=0.25;entryY=0;entryDx=0;entryDy=0;exitX=0.5;exitY=1;exitDx=0;exitDy=0;" edge="1" parent="1" source="1nwxLZV6FVW2qh2XziLg-230" target="1nwxLZV6FVW2qh2XziLg-144">
          <mxGeometry relative="1" as="geometry">
            <mxPoint x="-1340" y="1792" as="sourcePoint" />
            <mxPoint x="-1180" y="1792" as="targetPoint" />
            <Array as="points">
              <mxPoint x="-1470" y="1782" />
              <mxPoint x="-1355" y="1782" />
            </Array>
          </mxGeometry>
        </mxCell>
        <mxCell id="1nwxLZV6FVW2qh2XziLg-240" value="" style="endArrow=none;html=1;rounded=1;entryX=0.5;entryY=1;entryDx=0;entryDy=0;" edge="1" parent="1" target="1nwxLZV6FVW2qh2XziLg-214">
          <mxGeometry width="50" height="50" relative="1" as="geometry">
            <mxPoint x="-850" y="1760" as="sourcePoint" />
            <mxPoint x="-900" y="1642" as="targetPoint" />
            <Array as="points">
              <mxPoint x="-730" y="1760" />
            </Array>
          </mxGeometry>
        </mxCell>
        <mxCell id="1nwxLZV6FVW2qh2XziLg-241" value="Lingua" style="whiteSpace=wrap;html=1;align=center;rounded=1;" vertex="1" parent="1">
          <mxGeometry x="-1440" y="1555" width="100" height="40" as="geometry" />
        </mxCell>
        <mxCell id="1nwxLZV6FVW2qh2XziLg-242" value="" style="endArrow=none;html=1;rounded=1;entryX=1;entryY=0.5;entryDx=0;entryDy=0;exitX=0.5;exitY=0;exitDx=0;exitDy=0;" edge="1" parent="1" source="1nwxLZV6FVW2qh2XziLg-238" target="1nwxLZV6FVW2qh2XziLg-241">
          <mxGeometry relative="1" as="geometry">
            <mxPoint x="-1340" y="1732" as="sourcePoint" />
            <mxPoint x="-1180" y="1732" as="targetPoint" />
            <Array as="points">
              <mxPoint x="-1320" y="1575" />
            </Array>
          </mxGeometry>
        </mxCell>
        <mxCell id="1nwxLZV6FVW2qh2XziLg-243" value="" style="endArrow=none;html=1;rounded=1;entryX=0;entryY=0.5;entryDx=0;entryDy=0;exitX=0.5;exitY=0;exitDx=0;exitDy=0;" edge="1" parent="1" source="1nwxLZV6FVW2qh2XziLg-230" target="1nwxLZV6FVW2qh2XziLg-241">
          <mxGeometry relative="1" as="geometry">
            <mxPoint x="-1340" y="1732" as="sourcePoint" />
            <mxPoint x="-1180" y="1732" as="targetPoint" />
            <Array as="points">
              <mxPoint x="-1470" y="1575" />
            </Array>
          </mxGeometry>
        </mxCell>
        <mxCell id="1nwxLZV6FVW2qh2XziLg-244" value="" style="endArrow=none;html=1;rounded=0;entryX=0.5;entryY=1;entryDx=0;entryDy=0;exitX=0.814;exitY=-0.003;exitDx=0;exitDy=0;exitPerimeter=0;" edge="1" parent="1">
          <mxGeometry width="50" height="50" relative="1" as="geometry">
            <mxPoint x="-859.3000000000001" y="1759.88" as="sourcePoint" />
            <mxPoint x="-860.7" y="1510" as="targetPoint" />
            <Array as="points" />
          </mxGeometry>
        </mxCell>
        <mxCell id="1nwxLZV6FVW2qh2XziLg-245" value="(1, N)" style="text;html=1;align=center;verticalAlign=middle;resizable=0;points=[];autosize=1;strokeColor=none;fillColor=none;" vertex="1" parent="1">
          <mxGeometry x="-1320" y="1642.5" width="50" height="30" as="geometry" />
        </mxCell>
        <mxCell id="1nwxLZV6FVW2qh2XziLg-246" value="" style="endArrow=none;html=1;rounded=1;exitX=0.25;exitY=0;exitDx=0;exitDy=0;entryX=0.5;entryY=1;entryDx=0;entryDy=0;" edge="1" parent="1" source="1nwxLZV6FVW2qh2XziLg-143" target="1nwxLZV6FVW2qh2XziLg-233">
          <mxGeometry width="50" height="50" relative="1" as="geometry">
            <mxPoint x="-950" y="1692" as="sourcePoint" />
            <mxPoint x="-900" y="1642" as="targetPoint" />
            <Array as="points">
              <mxPoint x="-915" y="1672" />
              <mxPoint x="-1160" y="1672" />
            </Array>
          </mxGeometry>
        </mxCell>
        <mxCell id="1nwxLZV6FVW2qh2XziLg-247" value="(1, N)" style="text;html=1;align=center;verticalAlign=middle;resizable=0;points=[];autosize=1;strokeColor=none;fillColor=none;" vertex="1" parent="1">
          <mxGeometry x="-1320" y="1735" width="50" height="30" as="geometry" />
        </mxCell>
        <mxCell id="1nwxLZV6FVW2qh2XziLg-248" value="" style="endArrow=none;html=1;rounded=0;exitX=0.5;exitY=0;exitDx=0;exitDy=0;entryX=0.5;entryY=1;entryDx=0;entryDy=0;" edge="1" parent="1" source="1nwxLZV6FVW2qh2XziLg-214" target="1nwxLZV6FVW2qh2XziLg-213">
          <mxGeometry relative="1" as="geometry">
            <mxPoint x="-890" y="1462" as="sourcePoint" />
            <mxPoint x="-730" y="1420" as="targetPoint" />
          </mxGeometry>
        </mxCell>
        <mxCell id="1nwxLZV6FVW2qh2XziLg-249" value="" style="endArrow=none;html=1;rounded=0;entryX=0.5;entryY=1;entryDx=0;entryDy=0;exitX=0.5;exitY=0;exitDx=0;exitDy=0;" edge="1" parent="1" source="1nwxLZV6FVW2qh2XziLg-233" target="1nwxLZV6FVW2qh2XziLg-236">
          <mxGeometry width="50" height="50" relative="1" as="geometry">
            <mxPoint x="-980" y="1452" as="sourcePoint" />
            <mxPoint x="-930" y="1402" as="targetPoint" />
          </mxGeometry>
        </mxCell>
        <mxCell id="1nwxLZV6FVW2qh2XziLg-250" value="(0, N)" style="text;html=1;align=center;verticalAlign=middle;resizable=0;points=[];autosize=1;strokeColor=none;fillColor=none;" vertex="1" parent="1">
          <mxGeometry x="-729.75" y="1522.5" width="50" height="30" as="geometry" />
        </mxCell>
        <mxCell id="1nwxLZV6FVW2qh2XziLg-251" value="(1, N)" style="text;html=1;align=center;verticalAlign=middle;resizable=0;points=[];autosize=1;strokeColor=none;fillColor=none;" vertex="1" parent="1">
          <mxGeometry x="-1470" y="1645" width="50" height="30" as="geometry" />
        </mxCell>
        <mxCell id="1nwxLZV6FVW2qh2XziLg-252" value="(1, N)" style="text;html=1;align=center;verticalAlign=middle;resizable=0;points=[];autosize=1;strokeColor=none;fillColor=none;" vertex="1" parent="1">
          <mxGeometry x="-1470" y="1732.5" width="50" height="30" as="geometry" />
        </mxCell>
        <mxCell id="1nwxLZV6FVW2qh2XziLg-253" value="" style="endArrow=none;html=1;rounded=1;entryX=0.5;entryY=1;entryDx=0;entryDy=0;exitX=0.5;exitY=0;exitDx=0;exitDy=0;" edge="1" parent="1" source="1nwxLZV6FVW2qh2XziLg-143" target="1nwxLZV6FVW2qh2XziLg-228">
          <mxGeometry width="50" height="50" relative="1" as="geometry">
            <mxPoint x="-1020" y="1642" as="sourcePoint" />
            <mxPoint x="-970" y="1592" as="targetPoint" />
            <Array as="points">
              <mxPoint x="-890" y="1562" />
              <mxPoint x="-1000" y="1562" />
            </Array>
          </mxGeometry>
        </mxCell>
        <mxCell id="1nwxLZV6FVW2qh2XziLg-254" value="" style="endArrow=none;html=1;rounded=1;entryX=0.75;entryY=1;entryDx=0;entryDy=0;exitX=0.5;exitY=0;exitDx=0;exitDy=0;curved=0;" edge="1" parent="1" source="1nwxLZV6FVW2qh2XziLg-229" target="1nwxLZV6FVW2qh2XziLg-237">
          <mxGeometry width="50" height="50" relative="1" as="geometry">
            <mxPoint x="-980" y="1452" as="sourcePoint" />
            <mxPoint x="-860" y="1405" as="targetPoint" />
            <Array as="points">
              <mxPoint x="-860" y="1360" />
              <mxPoint x="-905" y="1360" />
            </Array>
          </mxGeometry>
        </mxCell>
        <mxCell id="1nwxLZV6FVW2qh2XziLg-255" value="" style="endArrow=none;html=1;rounded=1;exitX=0.5;exitY=0;exitDx=0;exitDy=0;entryX=0.25;entryY=1;entryDx=0;entryDy=0;curved=0;" edge="1" parent="1" source="1nwxLZV6FVW2qh2XziLg-228" target="1nwxLZV6FVW2qh2XziLg-237">
          <mxGeometry width="50" height="50" relative="1" as="geometry">
            <mxPoint x="-980" y="1452" as="sourcePoint" />
            <mxPoint x="-1000" y="1405" as="targetPoint" />
            <Array as="points">
              <mxPoint x="-1000" y="1360" />
              <mxPoint x="-955" y="1360" />
            </Array>
          </mxGeometry>
        </mxCell>
        <mxCell id="1nwxLZV6FVW2qh2XziLg-257" value="(1, 1)" style="text;html=1;align=center;verticalAlign=middle;resizable=0;points=[];autosize=1;strokeColor=none;fillColor=none;" vertex="1" parent="1">
          <mxGeometry x="-1160" y="1520" width="50" height="30" as="geometry" />
        </mxCell>
        <mxCell id="1nwxLZV6FVW2qh2XziLg-258" value="(0, N)" style="text;html=1;align=center;verticalAlign=middle;resizable=0;points=[];autosize=1;strokeColor=none;fillColor=none;" vertex="1" parent="1">
          <mxGeometry x="-1160" y="1437.5" width="50" height="30" as="geometry" />
        </mxCell>
        <mxCell id="1nwxLZV6FVW2qh2XziLg-259" value="(1, N)" style="text;html=1;align=center;verticalAlign=middle;resizable=0;points=[];autosize=1;strokeColor=none;fillColor=none;" vertex="1" parent="1">
          <mxGeometry x="-1000" y="1505" width="50" height="30" as="geometry" />
        </mxCell>
        <mxCell id="1nwxLZV6FVW2qh2XziLg-260" value="(1, N)" style="text;html=1;align=center;verticalAlign=middle;resizable=0;points=[];autosize=1;strokeColor=none;fillColor=none;" vertex="1" parent="1">
          <mxGeometry x="-860" y="1505" width="50" height="30" as="geometry" />
        </mxCell>
        <mxCell id="1nwxLZV6FVW2qh2XziLg-261" value="(1, 1)" style="text;html=1;align=center;verticalAlign=middle;resizable=0;points=[];autosize=1;strokeColor=none;fillColor=none;" vertex="1" parent="1">
          <mxGeometry x="-729.75" y="1440" width="50" height="30" as="geometry" />
        </mxCell>
        <mxCell id="1nwxLZV6FVW2qh2XziLg-262" value="(1, N)" style="text;html=1;align=center;verticalAlign=middle;resizable=0;points=[];autosize=1;strokeColor=none;fillColor=none;" vertex="1" parent="1">
          <mxGeometry x="-860" y="1425" width="50" height="30" as="geometry" />
        </mxCell>
        <mxCell id="1nwxLZV6FVW2qh2XziLg-263" value="(1, N)" style="text;html=1;align=center;verticalAlign=middle;resizable=0;points=[];autosize=1;strokeColor=none;fillColor=none;" vertex="1" parent="1">
          <mxGeometry x="-1000" y="1425" width="50" height="30" as="geometry" />
        </mxCell>
        <mxCell id="1nwxLZV6FVW2qh2XziLg-264" value="Restrizione" style="whiteSpace=wrap;html=1;align=center;rounded=1;" vertex="1" parent="1">
          <mxGeometry x="-1050" y="1917.75" width="100" height="40" as="geometry" />
        </mxCell>
        <mxCell id="1nwxLZV6FVW2qh2XziLg-265" value="FormRestr" style="shape=rhombus;perimeter=rhombusPerimeter;whiteSpace=wrap;html=1;align=center;" vertex="1" parent="1">
          <mxGeometry x="-1197.5" y="1917.75" width="90" height="44.5" as="geometry" />
        </mxCell>
        <mxCell id="1nwxLZV6FVW2qh2XziLg-266" value="PaeseRestrizione" style="shape=rhombus;perimeter=rhombusPerimeter;whiteSpace=wrap;html=1;align=center;" vertex="1" parent="1">
          <mxGeometry x="-895" y="1912.5" width="115" height="52" as="geometry" />
        </mxCell>
        <mxCell id="1nwxLZV6FVW2qh2XziLg-267" value="" style="endArrow=none;html=1;rounded=1;exitX=0;exitY=0.5;exitDx=0;exitDy=0;entryX=0;entryY=0.5;entryDx=0;entryDy=0;" edge="1" parent="1" source="1nwxLZV6FVW2qh2XziLg-277" target="1nwxLZV6FVW2qh2XziLg-265">
          <mxGeometry width="50" height="50" relative="1" as="geometry">
            <mxPoint x="-1160" y="1972" as="sourcePoint" />
            <mxPoint x="-1110" y="1922" as="targetPoint" />
            <Array as="points">
              <mxPoint x="-1630" y="2143" />
              <mxPoint x="-1630" y="1940" />
              <mxPoint x="-1280" y="1940" />
            </Array>
          </mxGeometry>
        </mxCell>
        <mxCell id="1nwxLZV6FVW2qh2XziLg-268" value="" style="endArrow=none;html=1;rounded=1;entryX=-0.003;entryY=0.556;entryDx=0;entryDy=0;exitX=0.5;exitY=1;exitDx=0;exitDy=0;entryPerimeter=0;" edge="1" parent="1" source="1nwxLZV6FVW2qh2XziLg-266" target="1nwxLZV6FVW2qh2XziLg-148">
          <mxGeometry relative="1" as="geometry">
            <mxPoint x="-1010" y="1902" as="sourcePoint" />
            <mxPoint x="-850" y="1902" as="targetPoint" />
            <Array as="points">
              <mxPoint x="-837" y="2042" />
            </Array>
          </mxGeometry>
        </mxCell>
        <mxCell id="1nwxLZV6FVW2qh2XziLg-269" value="" style="endArrow=none;html=1;rounded=0;exitX=1;exitY=0.5;exitDx=0;exitDy=0;entryX=-0.001;entryY=0.556;entryDx=0;entryDy=0;entryPerimeter=0;" edge="1" parent="1" source="1nwxLZV6FVW2qh2XziLg-265" target="1nwxLZV6FVW2qh2XziLg-264">
          <mxGeometry width="50" height="50" relative="1" as="geometry">
            <mxPoint x="-1100" y="1912" as="sourcePoint" />
            <mxPoint x="-1050" y="1862" as="targetPoint" />
          </mxGeometry>
        </mxCell>
        <mxCell id="1nwxLZV6FVW2qh2XziLg-270" value="(0, N)" style="text;html=1;align=center;verticalAlign=middle;resizable=0;points=[];autosize=1;strokeColor=none;fillColor=none;" vertex="1" parent="1">
          <mxGeometry x="-1240" y="1912.5" width="50" height="30" as="geometry" />
        </mxCell>
        <mxCell id="1nwxLZV6FVW2qh2XziLg-271" value="(1, N)" style="text;html=1;align=center;verticalAlign=middle;resizable=0;points=[];autosize=1;strokeColor=none;fillColor=none;" vertex="1" parent="1">
          <mxGeometry x="-1120" y="1912.5" width="50" height="30" as="geometry" />
        </mxCell>
        <mxCell id="1nwxLZV6FVW2qh2XziLg-272" value="(0, N)" style="text;html=1;align=center;verticalAlign=middle;resizable=0;points=[];autosize=1;strokeColor=none;fillColor=none;" vertex="1" parent="1">
          <mxGeometry x="-840" y="1962.25" width="50" height="30" as="geometry" />
        </mxCell>
        <mxCell id="1nwxLZV6FVW2qh2XziLg-273" value="" style="endArrow=none;html=1;rounded=0;entryX=0;entryY=0.5;entryDx=0;entryDy=0;exitX=1;exitY=0.5;exitDx=0;exitDy=0;" edge="1" parent="1" source="1nwxLZV6FVW2qh2XziLg-264" target="1nwxLZV6FVW2qh2XziLg-266">
          <mxGeometry relative="1" as="geometry">
            <mxPoint x="-940" y="1982" as="sourcePoint" />
            <mxPoint x="-780" y="1982" as="targetPoint" />
          </mxGeometry>
        </mxCell>
        <mxCell id="1nwxLZV6FVW2qh2XziLg-274" value="(1, N)" style="text;html=1;align=center;verticalAlign=middle;resizable=0;points=[];autosize=1;strokeColor=none;fillColor=none;" vertex="1" parent="1">
          <mxGeometry x="-930" y="1910" width="50" height="30" as="geometry" />
        </mxCell>
        <mxCell id="1nwxLZV6FVW2qh2XziLg-275" value="(1, N)" style="text;html=1;align=center;verticalAlign=middle;resizable=0;points=[];autosize=1;strokeColor=none;fillColor=none;" vertex="1" parent="1">
          <mxGeometry x="-1220" y="2127.5" width="50" height="30" as="geometry" />
        </mxCell>
        <mxCell id="1nwxLZV6FVW2qh2XziLg-276" value="(1, N)" style="text;html=1;align=center;verticalAlign=middle;resizable=0;points=[];autosize=1;strokeColor=none;fillColor=none;" vertex="1" parent="1">
          <mxGeometry x="-1220" y="2052.5" width="50" height="30" as="geometry" />
        </mxCell>
        <mxCell id="1nwxLZV6FVW2qh2XziLg-277" value="Formato" style="whiteSpace=wrap;html=1;align=center;fillStyle=auto;rounded=1;" vertex="1" parent="1">
          <mxGeometry x="-1540" y="2122.5" width="100" height="40" as="geometry" />
        </mxCell>
        <mxCell id="1nwxLZV6FVW2qh2XziLg-278" value="" style="endArrow=none;html=1;rounded=1;exitX=0.5;exitY=0;exitDx=0;exitDy=0;entryX=0.5;entryY=0;entryDx=0;entryDy=0;" edge="1" parent="1" source="1nwxLZV6FVW2qh2XziLg-224" target="1nwxLZV6FVW2qh2XziLg-223">
          <mxGeometry width="50" height="50" relative="1" as="geometry">
            <mxPoint x="-1560" y="2172" as="sourcePoint" />
            <mxPoint x="-1430" y="2222" as="targetPoint" />
            <Array as="points">
              <mxPoint x="-1558" y="2212" />
              <mxPoint x="-1500" y="2212" />
              <mxPoint x="-1425" y="2212" />
            </Array>
          </mxGeometry>
        </mxCell>
        <mxCell id="1nwxLZV6FVW2qh2XziLg-279" value="FormatoFile" style="shape=rhombus;perimeter=rhombusPerimeter;whiteSpace=wrap;html=1;align=center;" vertex="1" parent="1">
          <mxGeometry x="-1550" y="2005" width="120" height="60" as="geometry" />
        </mxCell>
        <mxCell id="1nwxLZV6FVW2qh2XziLg-280" value="" style="endArrow=none;html=1;rounded=0;entryX=0.5;entryY=0;entryDx=0;entryDy=0;exitX=0.5;exitY=1;exitDx=0;exitDy=0;" edge="1" parent="1" source="1nwxLZV6FVW2qh2XziLg-279" target="1nwxLZV6FVW2qh2XziLg-277">
          <mxGeometry relative="1" as="geometry">
            <mxPoint x="-1410" y="2032" as="sourcePoint" />
            <mxPoint x="-1250" y="2032" as="targetPoint" />
          </mxGeometry>
        </mxCell>
        <mxCell id="1nwxLZV6FVW2qh2XziLg-281" value="" style="shape=flexArrow;endArrow=classic;html=1;rounded=0;fillColor=#000000;entryX=0.5;entryY=1;entryDx=0;entryDy=0;" edge="1" parent="1" target="1nwxLZV6FVW2qh2XziLg-277">
          <mxGeometry width="50" height="50" relative="1" as="geometry">
            <mxPoint x="-1490" y="2212" as="sourcePoint" />
            <mxPoint x="-1470" y="2172" as="targetPoint" />
          </mxGeometry>
        </mxCell>
        <mxCell id="1nwxLZV6FVW2qh2XziLg-282" value="" style="endArrow=none;html=1;rounded=0;entryX=1;entryY=0.5;entryDx=0;entryDy=0;exitX=0;exitY=0.5;exitDx=0;exitDy=0;" edge="1" parent="1" source="1nwxLZV6FVW2qh2XziLg-144" target="1nwxLZV6FVW2qh2XziLg-279">
          <mxGeometry relative="1" as="geometry">
            <mxPoint x="-1410" y="2032" as="sourcePoint" />
            <mxPoint x="-1250" y="2032" as="targetPoint" />
          </mxGeometry>
        </mxCell>
        <mxCell id="1nwxLZV6FVW2qh2XziLg-283" value="(1, 1)" style="text;html=1;align=center;verticalAlign=middle;resizable=0;points=[];autosize=1;strokeColor=none;fillColor=none;" vertex="1" parent="1">
          <mxGeometry x="-1433" y="2005" width="50" height="30" as="geometry" />
        </mxCell>
        <mxCell id="1nwxLZV6FVW2qh2XziLg-284" value="(1, N)" style="text;html=1;align=center;verticalAlign=middle;resizable=0;points=[];autosize=1;strokeColor=none;fillColor=none;" vertex="1" parent="1">
          <mxGeometry x="-1490" y="2065" width="50" height="30" as="geometry" />
        </mxCell>
        <mxCell id="2AI2-PvDSzkwWwsy-X7Z-1" value="(0, N)" style="text;html=1;align=center;verticalAlign=middle;resizable=0;points=[];autosize=1;strokeColor=none;fillColor=none;" vertex="1" parent="1">
          <mxGeometry x="-827" y="1230" width="50" height="30" as="geometry" />
        </mxCell>
        <mxCell id="1nwxLZV6FVW2qh2XziLg-285" value="CineastaPremio" style="shape=rhombus;perimeter=rhombusPerimeter;whiteSpace=wrap;html=1;align=center;" vertex="1" parent="1">
          <mxGeometry x="-790" y="1230" width="120" height="60" as="geometry" />
        </mxCell>
        <mxCell id="2AI2-PvDSzkwWwsy-X7Z-2" value="(1, 1)" style="text;html=1;align=center;verticalAlign=middle;resizable=0;points=[];autosize=1;strokeColor=none;fillColor=none;" vertex="1" parent="1">
          <mxGeometry x="-735" y="1280" width="50" height="30" as="geometry" />
        </mxCell>
        <mxCell id="1nwxLZV6FVW2qh2XziLg-286" value="" style="endArrow=none;html=1;rounded=0;entryX=0;entryY=0.5;entryDx=0;entryDy=0;exitX=1;exitY=0.5;exitDx=0;exitDy=0;" edge="1" parent="1" source="1nwxLZV6FVW2qh2XziLg-237" target="1nwxLZV6FVW2qh2XziLg-285">
          <mxGeometry relative="1" as="geometry">
            <mxPoint x="-1140" y="1550" as="sourcePoint" />
            <mxPoint x="-980" y="1550" as="targetPoint" />
          </mxGeometry>
        </mxCell>
        <mxCell id="1nwxLZV6FVW2qh2XziLg-287" value="" style="endArrow=none;html=1;rounded=0;entryX=0.5;entryY=1;entryDx=0;entryDy=0;exitX=0.5;exitY=0;exitDx=0;exitDy=0;" edge="1" parent="1" source="1nwxLZV6FVW2qh2XziLg-213" target="1nwxLZV6FVW2qh2XziLg-285">
          <mxGeometry relative="1" as="geometry">
            <mxPoint x="-1140" y="1550" as="sourcePoint" />
            <mxPoint x="-980" y="1550" as="targetPoint" />
          </mxGeometry>
        </mxCell>
        <mxCell id="2AI2-PvDSzkwWwsy-X7Z-3" value="Film" style="whiteSpace=wrap;html=1;align=center;rounded=1;" vertex="1" parent="1">
          <mxGeometry x="-952" y="614.25" width="100" height="40" as="geometry" />
        </mxCell>
        <mxCell id="2AI2-PvDSzkwWwsy-X7Z-4" value="File" style="whiteSpace=wrap;html=1;align=center;rounded=1;" vertex="1" parent="1">
          <mxGeometry x="-1392" y="874.25" width="100" height="30" as="geometry" />
        </mxCell>
        <mxCell id="2AI2-PvDSzkwWwsy-X7Z-5" value="Server" style="whiteSpace=wrap;html=1;align=center;rounded=1;" vertex="1" parent="1">
          <mxGeometry x="-1162" y="1016.75" width="100" height="40" as="geometry" />
        </mxCell>
        <mxCell id="2AI2-PvDSzkwWwsy-X7Z-6" value="Utente" style="whiteSpace=wrap;html=1;align=center;rounded=1;direction=east;" vertex="1" parent="1">
          <mxGeometry x="-292" y="616.25" width="100" height="38" as="geometry" />
        </mxCell>
        <mxCell id="2AI2-PvDSzkwWwsy-X7Z-7" value="Dispositivo&lt;br&gt;" style="whiteSpace=wrap;html=1;align=center;rounded=1;" vertex="1" parent="1">
          <mxGeometry x="-292" y="1016.75" width="100" height="40" as="geometry" />
        </mxCell>
        <mxCell id="2AI2-PvDSzkwWwsy-X7Z-8" value="Paese" style="whiteSpace=wrap;html=1;align=center;rounded=1;" vertex="1" parent="1">
          <mxGeometry x="-772" y="874.25" width="100" height="40" as="geometry" />
        </mxCell>
        <mxCell id="2AI2-PvDSzkwWwsy-X7Z-9" value="Geolocalizzazione" style="shape=rhombus;perimeter=rhombusPerimeter;whiteSpace=wrap;html=1;align=center;" vertex="1" parent="1">
          <mxGeometry x="-532" y="921.75" width="120" height="60" as="geometry" />
        </mxCell>
        <mxCell id="2AI2-PvDSzkwWwsy-X7Z-10" value="Utilizzo" style="shape=rhombus;perimeter=rhombusPerimeter;whiteSpace=wrap;html=1;align=center;" vertex="1" parent="1">
          <mxGeometry x="-302" y="834.25" width="120" height="60" as="geometry" />
        </mxCell>
        <mxCell id="2AI2-PvDSzkwWwsy-X7Z-11" value="" style="endArrow=none;html=1;rounded=0;entryX=0.5;entryY=0;entryDx=0;entryDy=0;exitX=0.5;exitY=1;exitDx=0;exitDy=0;" edge="1" parent="1" source="2AI2-PvDSzkwWwsy-X7Z-10" target="2AI2-PvDSzkwWwsy-X7Z-7">
          <mxGeometry relative="1" as="geometry">
            <mxPoint x="178" y="1006.25" as="sourcePoint" />
            <mxPoint x="338" y="1006.25" as="targetPoint" />
          </mxGeometry>
        </mxCell>
        <mxCell id="2AI2-PvDSzkwWwsy-X7Z-12" value="" style="endArrow=none;html=1;rounded=0;exitX=0.5;exitY=1;exitDx=0;exitDy=0;entryX=0.5;entryY=0;entryDx=0;entryDy=0;" edge="1" parent="1" source="2AI2-PvDSzkwWwsy-X7Z-6" target="2AI2-PvDSzkwWwsy-X7Z-10">
          <mxGeometry relative="1" as="geometry">
            <mxPoint x="178" y="946.25" as="sourcePoint" />
            <mxPoint x="338" y="946.25" as="targetPoint" />
          </mxGeometry>
        </mxCell>
        <mxCell id="2AI2-PvDSzkwWwsy-X7Z-13" value="(1, N)" style="text;html=1;align=center;verticalAlign=middle;resizable=0;points=[];autosize=1;strokeColor=none;fillColor=none;" vertex="1" parent="1">
          <mxGeometry x="-242" y="804.25" width="50" height="30" as="geometry" />
        </mxCell>
        <mxCell id="2AI2-PvDSzkwWwsy-X7Z-14" value="(1, 1)" style="text;html=1;align=center;verticalAlign=middle;resizable=0;points=[];autosize=1;strokeColor=none;fillColor=none;" vertex="1" parent="1">
          <mxGeometry x="-242" y="896.75" width="50" height="30" as="geometry" />
        </mxCell>
        <mxCell id="2AI2-PvDSzkwWwsy-X7Z-15" value="Critico" style="whiteSpace=wrap;html=1;align=center;rounded=1;direction=east;" vertex="1" parent="1">
          <mxGeometry x="-292" y="474.25" width="100" height="42" as="geometry" />
        </mxCell>
        <mxCell id="2AI2-PvDSzkwWwsy-X7Z-16" value="" style="endArrow=none;html=1;rounded=1;exitX=1;exitY=0.5;exitDx=0;exitDy=0;entryX=0.5;entryY=0;entryDx=0;entryDy=0;" edge="1" parent="1" source="2AI2-PvDSzkwWwsy-X7Z-8" target="2AI2-PvDSzkwWwsy-X7Z-9">
          <mxGeometry relative="1" as="geometry">
            <mxPoint x="-552" y="986.25" as="sourcePoint" />
            <mxPoint x="-392" y="986.25" as="targetPoint" />
            <Array as="points">
              <mxPoint x="-472" y="894.25" />
            </Array>
          </mxGeometry>
        </mxCell>
        <mxCell id="2AI2-PvDSzkwWwsy-X7Z-17" value="" style="endArrow=none;html=1;rounded=1;exitX=1;exitY=0.5;exitDx=0;exitDy=0;" edge="1" parent="1" source="2AI2-PvDSzkwWwsy-X7Z-9">
          <mxGeometry relative="1" as="geometry">
            <mxPoint x="-552" y="986.25" as="sourcePoint" />
            <mxPoint x="-282" y="1016.25" as="targetPoint" />
            <Array as="points">
              <mxPoint x="-282" y="952.25" />
            </Array>
          </mxGeometry>
        </mxCell>
        <mxCell id="2AI2-PvDSzkwWwsy-X7Z-18" value="" style="shape=flexArrow;endArrow=classic;html=1;rounded=0;fillColor=#000000;" edge="1" parent="1">
          <mxGeometry width="50" height="50" relative="1" as="geometry">
            <mxPoint x="-322" y="566.5899999999999" as="sourcePoint" />
            <mxPoint x="-362" y="566.71" as="targetPoint" />
          </mxGeometry>
        </mxCell>
        <mxCell id="2AI2-PvDSzkwWwsy-X7Z-19" value="(0, N)" style="text;html=1;align=center;verticalAlign=middle;resizable=0;points=[];autosize=1;strokeColor=none;fillColor=none;" vertex="1" parent="1">
          <mxGeometry x="-472" y="891.75" width="50" height="30" as="geometry" />
        </mxCell>
        <mxCell id="2AI2-PvDSzkwWwsy-X7Z-20" value="Persona" style="whiteSpace=wrap;html=1;align=center;rounded=1;direction=east;" vertex="1" parent="1">
          <mxGeometry x="-462" y="546.75" width="100" height="40" as="geometry" />
        </mxCell>
        <mxCell id="2AI2-PvDSzkwWwsy-X7Z-21" value="(1, 1)" style="text;html=1;align=center;verticalAlign=middle;resizable=0;points=[];autosize=1;strokeColor=none;fillColor=none;" vertex="1" parent="1">
          <mxGeometry x="-412" y="921.75" width="50" height="30" as="geometry" />
        </mxCell>
        <mxCell id="2AI2-PvDSzkwWwsy-X7Z-22" value="Recensione" style="shape=rhombus;perimeter=rhombusPerimeter;whiteSpace=wrap;html=1;align=center;" vertex="1" parent="1">
          <mxGeometry x="-602" y="609.25" width="100" height="50" as="geometry" />
        </mxCell>
        <mxCell id="2AI2-PvDSzkwWwsy-X7Z-23" value="" style="endArrow=none;html=1;rounded=0;exitX=1;exitY=0.5;exitDx=0;exitDy=0;entryX=0;entryY=0.5;entryDx=0;entryDy=0;" edge="1" parent="1" source="2AI2-PvDSzkwWwsy-X7Z-22" target="2AI2-PvDSzkwWwsy-X7Z-6">
          <mxGeometry width="50" height="50" relative="1" as="geometry">
            <mxPoint x="-382" y="616.25" as="sourcePoint" />
            <mxPoint x="-332" y="566.25" as="targetPoint" />
          </mxGeometry>
        </mxCell>
        <mxCell id="2AI2-PvDSzkwWwsy-X7Z-24" value="" style="endArrow=none;html=1;rounded=0;exitX=1;exitY=0.5;exitDx=0;exitDy=0;entryX=0;entryY=0.5;entryDx=0;entryDy=0;" edge="1" parent="1" source="2AI2-PvDSzkwWwsy-X7Z-3" target="2AI2-PvDSzkwWwsy-X7Z-22">
          <mxGeometry width="50" height="50" relative="1" as="geometry">
            <mxPoint x="-682" y="616.25" as="sourcePoint" />
            <mxPoint x="-632" y="566.25" as="targetPoint" />
          </mxGeometry>
        </mxCell>
        <mxCell id="2AI2-PvDSzkwWwsy-X7Z-25" value="Posizione" style="shape=rhombus;perimeter=rhombusPerimeter;whiteSpace=wrap;html=1;align=center;" vertex="1" parent="1">
          <mxGeometry x="-1012" y="929.25" width="120" height="60" as="geometry" />
        </mxCell>
        <mxCell id="2AI2-PvDSzkwWwsy-X7Z-26" value="" style="endArrow=none;html=1;rounded=0;exitX=0.5;exitY=1;exitDx=0;exitDy=0;entryX=0.5;entryY=0;entryDx=0;entryDy=0;" edge="1" parent="1" source="2AI2-PvDSzkwWwsy-X7Z-34" target="2AI2-PvDSzkwWwsy-X7Z-8">
          <mxGeometry relative="1" as="geometry">
            <mxPoint x="-682" y="795.3400000000001" as="sourcePoint" />
            <mxPoint x="-522" y="795.3400000000001" as="targetPoint" />
          </mxGeometry>
        </mxCell>
        <mxCell id="2AI2-PvDSzkwWwsy-X7Z-27" value="(1, N)" style="text;html=1;align=center;verticalAlign=middle;resizable=0;points=[];autosize=1;strokeColor=none;fillColor=none;" vertex="1" parent="1">
          <mxGeometry x="-722" y="679.25" width="50" height="30" as="geometry" />
        </mxCell>
        <mxCell id="2AI2-PvDSzkwWwsy-X7Z-28" value="(0, N)" style="text;html=1;align=center;verticalAlign=middle;resizable=0;points=[];autosize=1;strokeColor=none;fillColor=none;" vertex="1" parent="1">
          <mxGeometry x="-722" y="824.25" width="50" height="30" as="geometry" />
        </mxCell>
        <mxCell id="2AI2-PvDSzkwWwsy-X7Z-29" value="(1, N)" style="text;html=1;align=center;verticalAlign=middle;resizable=0;points=[];autosize=1;strokeColor=none;fillColor=none;" vertex="1" parent="1">
          <mxGeometry x="-502" y="606.25" width="50" height="30" as="geometry" />
        </mxCell>
        <mxCell id="2AI2-PvDSzkwWwsy-X7Z-30" value="" style="endArrow=none;html=1;rounded=0;entryX=0;entryY=0.5;entryDx=0;entryDy=0;exitX=1;exitY=0.5;exitDx=0;exitDy=0;" edge="1" parent="1" source="2AI2-PvDSzkwWwsy-X7Z-31" target="2AI2-PvDSzkwWwsy-X7Z-15">
          <mxGeometry width="50" height="50" relative="1" as="geometry">
            <mxPoint x="-532" y="676.25" as="sourcePoint" />
            <mxPoint x="-482" y="626.25" as="targetPoint" />
          </mxGeometry>
        </mxCell>
        <mxCell id="2AI2-PvDSzkwWwsy-X7Z-31" value="Critica" style="shape=rhombus;perimeter=rhombusPerimeter;whiteSpace=wrap;html=1;align=center;direction=east;" vertex="1" parent="1">
          <mxGeometry x="-612" y="464.25" width="120" height="60" as="geometry" />
        </mxCell>
        <mxCell id="2AI2-PvDSzkwWwsy-X7Z-32" value="" style="endArrow=none;html=1;rounded=1;exitX=1;exitY=0.25;exitDx=0;exitDy=0;entryX=0;entryY=0.5;entryDx=0;entryDy=0;" edge="1" parent="1" source="2AI2-PvDSzkwWwsy-X7Z-3" target="2AI2-PvDSzkwWwsy-X7Z-31">
          <mxGeometry width="50" height="50" relative="1" as="geometry">
            <mxPoint x="-812" y="539.25" as="sourcePoint" />
            <mxPoint x="-762" y="489.25" as="targetPoint" />
            <Array as="points">
              <mxPoint x="-682" y="624.25" />
              <mxPoint x="-682" y="494.25" />
            </Array>
          </mxGeometry>
        </mxCell>
        <mxCell id="2AI2-PvDSzkwWwsy-X7Z-33" value="" style="endArrow=none;html=1;rounded=1;exitX=1;exitY=0.75;exitDx=0;exitDy=0;entryX=0.5;entryY=0;entryDx=0;entryDy=0;" edge="1" parent="1" source="2AI2-PvDSzkwWwsy-X7Z-3" target="2AI2-PvDSzkwWwsy-X7Z-34">
          <mxGeometry relative="1" as="geometry">
            <mxPoint x="-662" y="716.25" as="sourcePoint" />
            <mxPoint x="-502" y="716.25" as="targetPoint" />
            <Array as="points">
              <mxPoint x="-722" y="646.25" />
            </Array>
          </mxGeometry>
        </mxCell>
        <mxCell id="2AI2-PvDSzkwWwsy-X7Z-34" value="Produzione" style="shape=rhombus;perimeter=rhombusPerimeter;whiteSpace=wrap;html=1;align=center;" vertex="1" parent="1">
          <mxGeometry x="-782" y="766.25" width="120" height="60" as="geometry" />
        </mxCell>
        <mxCell id="2AI2-PvDSzkwWwsy-X7Z-35" value="(1, N)" style="text;html=1;align=center;verticalAlign=middle;resizable=0;points=[];autosize=1;strokeColor=none;fillColor=none;" vertex="1" parent="1">
          <mxGeometry x="-652" y="606.25" width="50" height="30" as="geometry" />
        </mxCell>
        <mxCell id="2AI2-PvDSzkwWwsy-X7Z-36" value="(0, N)" style="text;html=1;align=center;verticalAlign=middle;resizable=0;points=[];autosize=1;strokeColor=none;fillColor=none;" vertex="1" parent="1">
          <mxGeometry x="-497" y="469.25" width="50" height="30" as="geometry" />
        </mxCell>
        <mxCell id="2AI2-PvDSzkwWwsy-X7Z-37" value="" style="endArrow=none;html=1;rounded=1;exitX=0.5;exitY=0;exitDx=0;exitDy=0;entryX=0;entryY=0.5;entryDx=0;entryDy=0;" edge="1" parent="1" source="2AI2-PvDSzkwWwsy-X7Z-5" target="2AI2-PvDSzkwWwsy-X7Z-25">
          <mxGeometry relative="1" as="geometry">
            <mxPoint x="-932" y="996.25" as="sourcePoint" />
            <mxPoint x="-772" y="996.25" as="targetPoint" />
            <Array as="points">
              <mxPoint x="-1112" y="959.25" />
            </Array>
          </mxGeometry>
        </mxCell>
        <mxCell id="2AI2-PvDSzkwWwsy-X7Z-38" value="(0, N)" style="text;html=1;align=center;verticalAlign=middle;resizable=0;points=[];autosize=1;strokeColor=none;fillColor=none;" vertex="1" parent="1">
          <mxGeometry x="-652" y="469.25" width="50" height="30" as="geometry" />
        </mxCell>
        <mxCell id="2AI2-PvDSzkwWwsy-X7Z-39" value="" style="endArrow=none;html=1;rounded=1;entryX=0.5;entryY=1;entryDx=0;entryDy=0;exitX=1;exitY=0.5;exitDx=0;exitDy=0;" edge="1" parent="1" source="2AI2-PvDSzkwWwsy-X7Z-25" target="2AI2-PvDSzkwWwsy-X7Z-8">
          <mxGeometry relative="1" as="geometry">
            <mxPoint x="-932" y="996.25" as="sourcePoint" />
            <mxPoint x="-772" y="996.25" as="targetPoint" />
            <Array as="points">
              <mxPoint x="-722" y="959.25" />
            </Array>
          </mxGeometry>
        </mxCell>
        <mxCell id="2AI2-PvDSzkwWwsy-X7Z-40" value="(1, 1)" style="text;html=1;align=center;verticalAlign=middle;resizable=0;points=[];autosize=1;strokeColor=none;fillColor=none;" vertex="1" parent="1">
          <mxGeometry x="-1062" y="929.25" width="50" height="30" as="geometry" />
        </mxCell>
        <mxCell id="2AI2-PvDSzkwWwsy-X7Z-41" value="(0, N)" style="text;html=1;align=center;verticalAlign=middle;resizable=0;points=[];autosize=1;strokeColor=none;fillColor=none;" vertex="1" parent="1">
          <mxGeometry x="-892" y="929.25" width="50" height="30" as="geometry" />
        </mxCell>
        <mxCell id="2AI2-PvDSzkwWwsy-X7Z-42" value="Abbonamento" style="whiteSpace=wrap;html=1;align=center;rounded=1;" vertex="1" parent="1">
          <mxGeometry x="-122" y="796.75" width="100" height="40" as="geometry" />
        </mxCell>
        <mxCell id="2AI2-PvDSzkwWwsy-X7Z-43" value="Connessione" style="shape=rhombus;perimeter=rhombusPerimeter;whiteSpace=wrap;html=1;align=center;" vertex="1" parent="1">
          <mxGeometry x="-742" y="1006.75" width="120" height="60" as="geometry" />
        </mxCell>
        <mxCell id="2AI2-PvDSzkwWwsy-X7Z-44" value="AbbonamUtente" style="shape=rhombus;perimeter=rhombusPerimeter;whiteSpace=wrap;html=1;align=center;" vertex="1" parent="1">
          <mxGeometry x="-132" y="659.25" width="120" height="60" as="geometry" />
        </mxCell>
        <mxCell id="2AI2-PvDSzkwWwsy-X7Z-45" value="" style="endArrow=none;html=1;rounded=1;exitX=1;exitY=0.75;exitDx=0;exitDy=0;entryX=0.5;entryY=0;entryDx=0;entryDy=0;" edge="1" parent="1" source="2AI2-PvDSzkwWwsy-X7Z-6" target="2AI2-PvDSzkwWwsy-X7Z-44">
          <mxGeometry width="50" height="50" relative="1" as="geometry">
            <mxPoint x="-42" y="556.25" as="sourcePoint" />
            <mxPoint x="8" y="506.25" as="targetPoint" />
            <Array as="points">
              <mxPoint x="-72" y="645.25" />
            </Array>
          </mxGeometry>
        </mxCell>
        <mxCell id="2AI2-PvDSzkwWwsy-X7Z-46" value="" style="endArrow=none;html=1;rounded=0;entryX=0;entryY=0.5;entryDx=0;entryDy=0;exitX=1;exitY=0.5;exitDx=0;exitDy=0;" edge="1" parent="1" source="2AI2-PvDSzkwWwsy-X7Z-5" target="2AI2-PvDSzkwWwsy-X7Z-43">
          <mxGeometry relative="1" as="geometry">
            <mxPoint x="-972" y="1126.25" as="sourcePoint" />
            <mxPoint x="-812" y="1126.25" as="targetPoint" />
          </mxGeometry>
        </mxCell>
        <mxCell id="2AI2-PvDSzkwWwsy-X7Z-47" value="" style="endArrow=none;html=1;rounded=0;exitX=0.5;exitY=0;exitDx=0;exitDy=0;entryX=0.5;entryY=1;entryDx=0;entryDy=0;" edge="1" parent="1" source="2AI2-PvDSzkwWwsy-X7Z-42" target="2AI2-PvDSzkwWwsy-X7Z-44">
          <mxGeometry width="50" height="50" relative="1" as="geometry">
            <mxPoint x="-42" y="656.25" as="sourcePoint" />
            <mxPoint x="8" y="606.25" as="targetPoint" />
          </mxGeometry>
        </mxCell>
        <mxCell id="2AI2-PvDSzkwWwsy-X7Z-48" value="" style="endArrow=none;html=1;rounded=0;entryX=0;entryY=0.5;entryDx=0;entryDy=0;exitX=1;exitY=0.5;exitDx=0;exitDy=0;" edge="1" parent="1" source="2AI2-PvDSzkwWwsy-X7Z-43" target="2AI2-PvDSzkwWwsy-X7Z-7">
          <mxGeometry relative="1" as="geometry">
            <mxPoint x="-662" y="981.75" as="sourcePoint" />
            <mxPoint x="-112" y="1212.25" as="targetPoint" />
          </mxGeometry>
        </mxCell>
        <mxCell id="2AI2-PvDSzkwWwsy-X7Z-49" value="" style="endArrow=none;html=1;rounded=1;entryX=0;entryY=0.75;entryDx=0;entryDy=0;exitX=0;exitY=0.25;exitDx=0;exitDy=0;" edge="1" parent="1" source="2AI2-PvDSzkwWwsy-X7Z-6" target="2AI2-PvDSzkwWwsy-X7Z-15">
          <mxGeometry width="50" height="50" relative="1" as="geometry">
            <mxPoint x="-292" y="576.25" as="sourcePoint" />
            <mxPoint x="-242" y="526.25" as="targetPoint" />
            <Array as="points">
              <mxPoint x="-322" y="626.25" />
              <mxPoint x="-322" y="566.25" />
              <mxPoint x="-322" y="506.25" />
            </Array>
          </mxGeometry>
        </mxCell>
        <mxCell id="2AI2-PvDSzkwWwsy-X7Z-50" value="(1, N)" style="text;html=1;align=center;verticalAlign=middle;resizable=0;points=[];autosize=1;strokeColor=none;fillColor=none;" vertex="1" parent="1">
          <mxGeometry x="-72" y="714.25" width="50" height="30" as="geometry" />
        </mxCell>
        <mxCell id="2AI2-PvDSzkwWwsy-X7Z-51" value="(1, N)" style="text;html=1;align=center;verticalAlign=middle;resizable=0;points=[];autosize=1;strokeColor=none;fillColor=none;" vertex="1" parent="1">
          <mxGeometry x="-622" y="1006.75" width="50" height="30" as="geometry" />
        </mxCell>
        <mxCell id="2AI2-PvDSzkwWwsy-X7Z-52" value="Fattura&lt;br&gt;" style="whiteSpace=wrap;html=1;align=center;rounded=1;" vertex="1" parent="1">
          <mxGeometry x="-122" y="134.25" width="100" height="40" as="geometry" />
        </mxCell>
        <mxCell id="2AI2-PvDSzkwWwsy-X7Z-53" value="(0, N)" style="text;html=1;align=center;verticalAlign=middle;resizable=0;points=[];autosize=1;strokeColor=none;fillColor=none;" vertex="1" parent="1">
          <mxGeometry x="-792" y="1006.75" width="50" height="30" as="geometry" />
        </mxCell>
        <mxCell id="2AI2-PvDSzkwWwsy-X7Z-54" value="(1, 1)" style="text;html=1;align=center;verticalAlign=middle;resizable=0;points=[];autosize=1;strokeColor=none;fillColor=none;" vertex="1" parent="1">
          <mxGeometry x="-72" y="636.25" width="50" height="30" as="geometry" />
        </mxCell>
        <mxCell id="2AI2-PvDSzkwWwsy-X7Z-55" value="Fatturazione" style="shape=rhombus;perimeter=rhombusPerimeter;whiteSpace=wrap;html=1;align=center;" vertex="1" parent="1">
          <mxGeometry x="-132" y="234.25" width="120" height="60" as="geometry" />
        </mxCell>
        <mxCell id="2AI2-PvDSzkwWwsy-X7Z-56" value="P.o.P" style="shape=rhombus;perimeter=rhombusPerimeter;whiteSpace=wrap;html=1;align=center;" vertex="1" parent="1">
          <mxGeometry x="-1222" y="936.25" width="80" height="45.5" as="geometry" />
        </mxCell>
        <mxCell id="2AI2-PvDSzkwWwsy-X7Z-57" value="FormatoFilm" style="shape=rhombus;perimeter=rhombusPerimeter;whiteSpace=wrap;html=1;align=center;" vertex="1" parent="1">
          <mxGeometry x="-1202" y="605.25" width="120" height="60" as="geometry" />
        </mxCell>
        <mxCell id="2AI2-PvDSzkwWwsy-X7Z-58" value="" style="endArrow=none;html=1;rounded=1;exitX=1;exitY=0.5;exitDx=0;exitDy=0;entryX=0.5;entryY=1;entryDx=0;entryDy=0;" edge="1" parent="1" source="2AI2-PvDSzkwWwsy-X7Z-6" target="2AI2-PvDSzkwWwsy-X7Z-55">
          <mxGeometry width="50" height="50" relative="1" as="geometry">
            <mxPoint x="-152" y="594.25" as="sourcePoint" />
            <mxPoint x="-102" y="544.25" as="targetPoint" />
            <Array as="points">
              <mxPoint x="-72" y="635.25" />
            </Array>
          </mxGeometry>
        </mxCell>
        <mxCell id="2AI2-PvDSzkwWwsy-X7Z-59" value="" style="endArrow=none;html=1;rounded=0;entryX=0;entryY=0.5;entryDx=0;entryDy=0;exitX=1;exitY=0.5;exitDx=0;exitDy=0;" edge="1" parent="1" source="2AI2-PvDSzkwWwsy-X7Z-57" target="2AI2-PvDSzkwWwsy-X7Z-3">
          <mxGeometry relative="1" as="geometry">
            <mxPoint x="-1402" y="606.25" as="sourcePoint" />
            <mxPoint x="-1242" y="606.25" as="targetPoint" />
          </mxGeometry>
        </mxCell>
        <mxCell id="2AI2-PvDSzkwWwsy-X7Z-60" value="Preferenza" style="shape=rhombus;perimeter=rhombusPerimeter;whiteSpace=wrap;html=1;align=center;" vertex="1" parent="1">
          <mxGeometry x="-472" y="309.25" width="120" height="60" as="geometry" />
        </mxCell>
        <mxCell id="2AI2-PvDSzkwWwsy-X7Z-61" value="Carta" style="whiteSpace=wrap;html=1;align=center;direction=east;rounded=1;" vertex="1" parent="1">
          <mxGeometry x="-462" y="134.25" width="100" height="40" as="geometry" />
        </mxCell>
        <mxCell id="2AI2-PvDSzkwWwsy-X7Z-62" value="(1, N)" style="text;html=1;align=center;verticalAlign=middle;resizable=0;points=[];autosize=1;strokeColor=none;fillColor=none;" vertex="1" parent="1">
          <mxGeometry x="-1052" y="604.25" width="50" height="30" as="geometry" />
        </mxCell>
        <mxCell id="2AI2-PvDSzkwWwsy-X7Z-63" value="(1, N)" style="text;html=1;align=center;verticalAlign=middle;resizable=0;points=[];autosize=1;strokeColor=none;fillColor=none;" vertex="1" parent="1">
          <mxGeometry x="-1252" y="604.25" width="50" height="30" as="geometry" />
        </mxCell>
        <mxCell id="2AI2-PvDSzkwWwsy-X7Z-64" value="(1, N)" style="text;html=1;align=center;verticalAlign=middle;resizable=0;points=[];autosize=1;strokeColor=none;fillColor=none;" vertex="1" parent="1">
          <mxGeometry x="-362" y="309.25" width="50" height="30" as="geometry" />
        </mxCell>
        <mxCell id="2AI2-PvDSzkwWwsy-X7Z-65" value="(1, 1)" style="text;html=1;align=center;verticalAlign=middle;resizable=0;points=[];autosize=1;strokeColor=none;fillColor=none;" vertex="1" parent="1">
          <mxGeometry x="-462" y="284.25" width="50" height="30" as="geometry" />
        </mxCell>
        <mxCell id="2AI2-PvDSzkwWwsy-X7Z-66" value="(1, N)" style="text;html=1;align=center;verticalAlign=middle;resizable=0;points=[];autosize=1;strokeColor=none;fillColor=none;" vertex="1" parent="1">
          <mxGeometry x="-72" y="289.25" width="50" height="30" as="geometry" />
        </mxCell>
        <mxCell id="2AI2-PvDSzkwWwsy-X7Z-67" value="(1, 1)" style="text;html=1;align=center;verticalAlign=middle;resizable=0;points=[];autosize=1;strokeColor=none;fillColor=none;" vertex="1" parent="1">
          <mxGeometry x="-72" y="206.25" width="50" height="30" as="geometry" />
        </mxCell>
        <mxCell id="2AI2-PvDSzkwWwsy-X7Z-68" value="(1, 1)" style="text;html=1;align=center;verticalAlign=middle;resizable=0;points=[];autosize=1;strokeColor=none;fillColor=none;" vertex="1" parent="1">
          <mxGeometry x="-192" y="124.25" width="50" height="30" as="geometry" />
        </mxCell>
        <mxCell id="2AI2-PvDSzkwWwsy-X7Z-69" value="(1, N)" style="text;html=1;align=center;verticalAlign=middle;resizable=0;points=[];autosize=1;strokeColor=none;fillColor=none;" vertex="1" parent="1">
          <mxGeometry x="-342" y="129.25" width="50" height="30" as="geometry" />
        </mxCell>
        <mxCell id="2AI2-PvDSzkwWwsy-X7Z-70" value="" style="endArrow=none;html=1;rounded=1;exitX=0.5;exitY=1;exitDx=0;exitDy=0;entryX=0;entryY=0.25;entryDx=0;entryDy=0;" edge="1" parent="1" source="2AI2-PvDSzkwWwsy-X7Z-56" target="2AI2-PvDSzkwWwsy-X7Z-5">
          <mxGeometry relative="1" as="geometry">
            <mxPoint x="-1312" y="876.3299999999999" as="sourcePoint" />
            <mxPoint x="-1142" y="1016.25" as="targetPoint" />
            <Array as="points">
              <mxPoint x="-1182" y="1026.25" />
            </Array>
          </mxGeometry>
        </mxCell>
        <mxCell id="2AI2-PvDSzkwWwsy-X7Z-71" value="" style="endArrow=none;html=1;rounded=1;entryX=0;entryY=0.5;entryDx=0;entryDy=0;exitX=0.822;exitY=-0.007;exitDx=0;exitDy=0;exitPerimeter=0;" edge="1" parent="1" source="2AI2-PvDSzkwWwsy-X7Z-4" target="2AI2-PvDSzkwWwsy-X7Z-57">
          <mxGeometry relative="1" as="geometry">
            <mxPoint x="-1352" y="624.25" as="sourcePoint" />
            <mxPoint x="-1192" y="624.25" as="targetPoint" />
            <Array as="points">
              <mxPoint x="-1310" y="635.25" />
            </Array>
          </mxGeometry>
        </mxCell>
        <mxCell id="2AI2-PvDSzkwWwsy-X7Z-72" value="" style="endArrow=none;html=1;rounded=1;entryX=0.5;entryY=0;entryDx=0;entryDy=0;exitX=1;exitY=0.75;exitDx=0;exitDy=0;" edge="1" parent="1" source="2AI2-PvDSzkwWwsy-X7Z-4" target="2AI2-PvDSzkwWwsy-X7Z-56">
          <mxGeometry relative="1" as="geometry">
            <mxPoint x="-1172" y="836.25" as="sourcePoint" />
            <mxPoint x="-1012" y="836.25" as="targetPoint" />
            <Array as="points">
              <mxPoint x="-1182" y="896.25" />
            </Array>
          </mxGeometry>
        </mxCell>
        <mxCell id="2AI2-PvDSzkwWwsy-X7Z-73" value="Premio" style="whiteSpace=wrap;html=1;align=center;rounded=1;" vertex="1" parent="1">
          <mxGeometry x="-791.75" y="206.25" width="100" height="40" as="geometry" />
        </mxCell>
        <mxCell id="2AI2-PvDSzkwWwsy-X7Z-74" value="Vincita" style="shape=rhombus;perimeter=rhombusPerimeter;whiteSpace=wrap;html=1;align=center;" vertex="1" parent="1">
          <mxGeometry x="-799" y="321.75" width="114.5" height="55" as="geometry" />
        </mxCell>
        <mxCell id="2AI2-PvDSzkwWwsy-X7Z-75" value="Visualizzazione" style="shape=rhombus;perimeter=rhombusPerimeter;whiteSpace=wrap;html=1;align=center;" vertex="1" parent="1">
          <mxGeometry x="-1362" y="1091.75" width="120" height="60" as="geometry" />
        </mxCell>
        <mxCell id="2AI2-PvDSzkwWwsy-X7Z-76" value="" style="endArrow=none;html=1;rounded=0;exitX=0.5;exitY=0;exitDx=0;exitDy=0;entryX=0.906;entryY=1.001;entryDx=0;entryDy=0;entryPerimeter=0;" edge="1" parent="1" source="2AI2-PvDSzkwWwsy-X7Z-75" target="2AI2-PvDSzkwWwsy-X7Z-4">
          <mxGeometry relative="1" as="geometry">
            <mxPoint x="-1432" y="916.25" as="sourcePoint" />
            <mxPoint x="-1302" y="906.25" as="targetPoint" />
          </mxGeometry>
        </mxCell>
        <mxCell id="2AI2-PvDSzkwWwsy-X7Z-77" value="" style="endArrow=none;html=1;rounded=1;entryX=1;entryY=0.5;entryDx=0;entryDy=0;" edge="1" parent="1" target="2AI2-PvDSzkwWwsy-X7Z-60">
          <mxGeometry width="50" height="50" relative="1" as="geometry">
            <mxPoint x="-192" y="626.25" as="sourcePoint" />
            <mxPoint x="-142" y="579.25" as="targetPoint" />
            <Array as="points">
              <mxPoint x="-112" y="626.25" />
              <mxPoint x="-112" y="366.25" />
              <mxPoint x="-112" y="339.25" />
              <mxPoint x="-222" y="339.25" />
            </Array>
          </mxGeometry>
        </mxCell>
        <mxCell id="2AI2-PvDSzkwWwsy-X7Z-78" value="" style="endArrow=none;html=1;rounded=0;entryX=0.5;entryY=0;entryDx=0;entryDy=0;exitX=0.5;exitY=1;exitDx=0;exitDy=0;" edge="1" parent="1" source="2AI2-PvDSzkwWwsy-X7Z-52" target="2AI2-PvDSzkwWwsy-X7Z-55">
          <mxGeometry width="50" height="50" relative="1" as="geometry">
            <mxPoint x="-342" y="306.25" as="sourcePoint" />
            <mxPoint x="-292" y="256.25" as="targetPoint" />
          </mxGeometry>
        </mxCell>
        <mxCell id="2AI2-PvDSzkwWwsy-X7Z-79" value="Pagamento&lt;br&gt;" style="shape=rhombus;perimeter=rhombusPerimeter;whiteSpace=wrap;html=1;align=center;" vertex="1" parent="1">
          <mxGeometry x="-302" y="124.25" width="120" height="60" as="geometry" />
        </mxCell>
        <mxCell id="2AI2-PvDSzkwWwsy-X7Z-80" value="" style="endArrow=none;html=1;rounded=0;exitX=0.5;exitY=0;exitDx=0;exitDy=0;entryX=0.5;entryY=1;entryDx=0;entryDy=0;" edge="1" parent="1" source="2AI2-PvDSzkwWwsy-X7Z-60" target="2AI2-PvDSzkwWwsy-X7Z-61">
          <mxGeometry width="50" height="50" relative="1" as="geometry">
            <mxPoint x="-262" y="196.25" as="sourcePoint" />
            <mxPoint x="-212" y="146.25" as="targetPoint" />
          </mxGeometry>
        </mxCell>
        <mxCell id="2AI2-PvDSzkwWwsy-X7Z-81" value="" style="endArrow=none;html=1;rounded=0;exitX=1;exitY=0.5;exitDx=0;exitDy=0;entryX=0;entryY=0.5;entryDx=0;entryDy=0;" edge="1" parent="1" source="2AI2-PvDSzkwWwsy-X7Z-61" target="2AI2-PvDSzkwWwsy-X7Z-79">
          <mxGeometry width="50" height="50" relative="1" as="geometry">
            <mxPoint x="-262" y="196.25" as="sourcePoint" />
            <mxPoint x="-212" y="146.25" as="targetPoint" />
          </mxGeometry>
        </mxCell>
        <mxCell id="2AI2-PvDSzkwWwsy-X7Z-82" value="" style="endArrow=none;html=1;rounded=0;exitX=1;exitY=0.5;exitDx=0;exitDy=0;entryX=0;entryY=0.5;entryDx=0;entryDy=0;" edge="1" parent="1">
          <mxGeometry width="50" height="50" relative="1" as="geometry">
            <mxPoint x="-182" y="153.96000000000004" as="sourcePoint" />
            <mxPoint x="-122" y="153.96000000000004" as="targetPoint" />
          </mxGeometry>
        </mxCell>
        <mxCell id="2AI2-PvDSzkwWwsy-X7Z-83" value="Formato Video" style="whiteSpace=wrap;html=1;align=center;rounded=1;" vertex="1" parent="1">
          <mxGeometry x="-1479" y="1101.75" width="84" height="40" as="geometry" />
        </mxCell>
        <mxCell id="2AI2-PvDSzkwWwsy-X7Z-84" value="FormatoAudio" style="whiteSpace=wrap;html=1;align=center;rounded=1;" vertex="1" parent="1">
          <mxGeometry x="-1612" y="1101.75" width="84" height="40" as="geometry" />
        </mxCell>
        <mxCell id="2AI2-PvDSzkwWwsy-X7Z-85" value="Attore" style="whiteSpace=wrap;html=1;align=center;rounded=1;" vertex="1" parent="1">
          <mxGeometry x="-1062" y="219.25" width="100" height="40" as="geometry" />
        </mxCell>
        <mxCell id="2AI2-PvDSzkwWwsy-X7Z-86" value="Regista" style="whiteSpace=wrap;html=1;align=center;rounded=1;" vertex="1" parent="1">
          <mxGeometry x="-922" y="219.25" width="100" height="40" as="geometry" />
        </mxCell>
        <mxCell id="2AI2-PvDSzkwWwsy-X7Z-87" value="" style="shape=flexArrow;endArrow=classic;html=1;rounded=0;fillColor=#000000;" edge="1" parent="1">
          <mxGeometry width="50" height="50" relative="1" as="geometry">
            <mxPoint x="-942" y="186.25" as="sourcePoint" />
            <mxPoint x="-942.3599999999999" y="134.25" as="targetPoint" />
          </mxGeometry>
        </mxCell>
        <mxCell id="2AI2-PvDSzkwWwsy-X7Z-88" value="Recitazione" style="shape=rhombus;perimeter=rhombusPerimeter;whiteSpace=wrap;html=1;align=center;" vertex="1" parent="1">
          <mxGeometry x="-1072" y="304.25" width="120" height="60" as="geometry" />
        </mxCell>
        <mxCell id="2AI2-PvDSzkwWwsy-X7Z-89" value="Regia" style="shape=rhombus;perimeter=rhombusPerimeter;whiteSpace=wrap;html=1;align=center;" vertex="1" parent="1">
          <mxGeometry x="-932" y="304.25" width="120" height="60" as="geometry" />
        </mxCell>
        <mxCell id="2AI2-PvDSzkwWwsy-X7Z-90" value="Audio" style="shape=rhombus;perimeter=rhombusPerimeter;whiteSpace=wrap;html=1;align=center;" vertex="1" parent="1">
          <mxGeometry x="-1542" y="529.25" width="120" height="60" as="geometry" />
        </mxCell>
        <mxCell id="2AI2-PvDSzkwWwsy-X7Z-91" value="" style="endArrow=none;html=1;rounded=1;entryX=0.5;entryY=1;entryDx=0;entryDy=0;exitX=1;exitY=0.5;exitDx=0;exitDy=0;" edge="1" parent="1" source="2AI2-PvDSzkwWwsy-X7Z-75" target="2AI2-PvDSzkwWwsy-X7Z-7">
          <mxGeometry relative="1" as="geometry">
            <mxPoint x="-782" y="1116.25" as="sourcePoint" />
            <mxPoint x="-252" y="946.25" as="targetPoint" />
            <Array as="points">
              <mxPoint x="-242" y="1126.25" />
            </Array>
          </mxGeometry>
        </mxCell>
        <mxCell id="2AI2-PvDSzkwWwsy-X7Z-92" value="" style="endArrow=none;html=1;rounded=0;entryX=0.5;entryY=1;entryDx=0;entryDy=0;exitX=0.585;exitY=0.003;exitDx=0;exitDy=0;exitPerimeter=0;" edge="1" parent="1" source="2AI2-PvDSzkwWwsy-X7Z-4" target="2AI2-PvDSzkwWwsy-X7Z-98">
          <mxGeometry relative="1" as="geometry">
            <mxPoint x="-1352" y="646.25" as="sourcePoint" />
            <mxPoint x="-1192" y="646.25" as="targetPoint" />
          </mxGeometry>
        </mxCell>
        <mxCell id="2AI2-PvDSzkwWwsy-X7Z-93" value="GenereFilm" style="shape=rhombus;perimeter=rhombusPerimeter;whiteSpace=wrap;html=1;align=center;" vertex="1" parent="1">
          <mxGeometry x="-1224.5" y="319.25" width="105" height="55" as="geometry" />
        </mxCell>
        <mxCell id="2AI2-PvDSzkwWwsy-X7Z-94" value="(1, 1)" style="text;html=1;align=center;verticalAlign=middle;resizable=0;points=[];autosize=1;strokeColor=none;fillColor=none;" vertex="1" parent="1">
          <mxGeometry x="-1242" y="1091.75" width="50" height="30" as="geometry" />
        </mxCell>
        <mxCell id="2AI2-PvDSzkwWwsy-X7Z-95" value="(0, N)" style="text;html=1;align=center;verticalAlign=middle;resizable=0;points=[];autosize=1;strokeColor=none;fillColor=none;" vertex="1" parent="1">
          <mxGeometry x="-1302" y="1061.75" width="50" height="30" as="geometry" />
        </mxCell>
        <mxCell id="2AI2-PvDSzkwWwsy-X7Z-96" value="Genere" style="whiteSpace=wrap;html=1;align=center;rounded=1;" vertex="1" parent="1">
          <mxGeometry x="-1222" y="214.25" width="100" height="40" as="geometry" />
        </mxCell>
        <mxCell id="2AI2-PvDSzkwWwsy-X7Z-97" value="Cineasta" style="whiteSpace=wrap;html=1;align=center;rounded=1;" vertex="1" parent="1">
          <mxGeometry x="-992" y="94.25" width="100" height="40" as="geometry" />
        </mxCell>
        <mxCell id="2AI2-PvDSzkwWwsy-X7Z-98" value="Sottotitolo" style="shape=rhombus;perimeter=rhombusPerimeter;whiteSpace=wrap;html=1;align=center;" vertex="1" parent="1">
          <mxGeometry x="-1392" y="526.75" width="120" height="60" as="geometry" />
        </mxCell>
        <mxCell id="2AI2-PvDSzkwWwsy-X7Z-99" value="" style="endArrow=none;html=1;rounded=1;entryX=0.25;entryY=0;entryDx=0;entryDy=0;exitX=0.5;exitY=1;exitDx=0;exitDy=0;" edge="1" parent="1" source="2AI2-PvDSzkwWwsy-X7Z-90" target="2AI2-PvDSzkwWwsy-X7Z-4">
          <mxGeometry relative="1" as="geometry">
            <mxPoint x="-1352" y="646.25" as="sourcePoint" />
            <mxPoint x="-1192" y="646.25" as="targetPoint" />
            <Array as="points">
              <mxPoint x="-1482" y="636.25" />
              <mxPoint x="-1367" y="636.25" />
            </Array>
          </mxGeometry>
        </mxCell>
        <mxCell id="2AI2-PvDSzkwWwsy-X7Z-100" value="" style="endArrow=none;html=1;rounded=1;entryX=0.5;entryY=1;entryDx=0;entryDy=0;" edge="1" parent="1" target="2AI2-PvDSzkwWwsy-X7Z-74">
          <mxGeometry width="50" height="50" relative="1" as="geometry">
            <mxPoint x="-862" y="614.25" as="sourcePoint" />
            <mxPoint x="-912" y="496.25" as="targetPoint" />
            <Array as="points">
              <mxPoint x="-742" y="614.25" />
            </Array>
          </mxGeometry>
        </mxCell>
        <mxCell id="2AI2-PvDSzkwWwsy-X7Z-101" value="Lingua" style="whiteSpace=wrap;html=1;align=center;rounded=1;" vertex="1" parent="1">
          <mxGeometry x="-1452" y="409.25" width="100" height="40" as="geometry" />
        </mxCell>
        <mxCell id="2AI2-PvDSzkwWwsy-X7Z-102" value="" style="endArrow=none;html=1;rounded=1;entryX=1;entryY=0.5;entryDx=0;entryDy=0;exitX=0.5;exitY=0;exitDx=0;exitDy=0;" edge="1" parent="1" source="2AI2-PvDSzkwWwsy-X7Z-98" target="2AI2-PvDSzkwWwsy-X7Z-101">
          <mxGeometry relative="1" as="geometry">
            <mxPoint x="-1352" y="586.25" as="sourcePoint" />
            <mxPoint x="-1192" y="586.25" as="targetPoint" />
            <Array as="points">
              <mxPoint x="-1332" y="429.25" />
            </Array>
          </mxGeometry>
        </mxCell>
        <mxCell id="2AI2-PvDSzkwWwsy-X7Z-103" value="" style="endArrow=none;html=1;rounded=1;entryX=0;entryY=0.5;entryDx=0;entryDy=0;exitX=0.5;exitY=0;exitDx=0;exitDy=0;" edge="1" parent="1" source="2AI2-PvDSzkwWwsy-X7Z-90" target="2AI2-PvDSzkwWwsy-X7Z-101">
          <mxGeometry relative="1" as="geometry">
            <mxPoint x="-1352" y="586.25" as="sourcePoint" />
            <mxPoint x="-1192" y="586.25" as="targetPoint" />
            <Array as="points">
              <mxPoint x="-1482" y="429.25" />
            </Array>
          </mxGeometry>
        </mxCell>
        <mxCell id="2AI2-PvDSzkwWwsy-X7Z-104" value="" style="endArrow=none;html=1;rounded=0;entryX=0.5;entryY=1;entryDx=0;entryDy=0;exitX=0.814;exitY=-0.003;exitDx=0;exitDy=0;exitPerimeter=0;" edge="1" parent="1">
          <mxGeometry width="50" height="50" relative="1" as="geometry">
            <mxPoint x="-871.3000000000001" y="614.1300000000001" as="sourcePoint" />
            <mxPoint x="-872.7" y="364.25" as="targetPoint" />
            <Array as="points" />
          </mxGeometry>
        </mxCell>
        <mxCell id="2AI2-PvDSzkwWwsy-X7Z-105" value="(1, N)" style="text;html=1;align=center;verticalAlign=middle;resizable=0;points=[];autosize=1;strokeColor=none;fillColor=none;" vertex="1" parent="1">
          <mxGeometry x="-1332" y="496.75" width="50" height="30" as="geometry" />
        </mxCell>
        <mxCell id="2AI2-PvDSzkwWwsy-X7Z-106" value="" style="endArrow=none;html=1;rounded=1;exitX=0.25;exitY=0;exitDx=0;exitDy=0;entryX=0.5;entryY=1;entryDx=0;entryDy=0;" edge="1" parent="1" source="2AI2-PvDSzkwWwsy-X7Z-3" target="2AI2-PvDSzkwWwsy-X7Z-93">
          <mxGeometry width="50" height="50" relative="1" as="geometry">
            <mxPoint x="-962" y="546.25" as="sourcePoint" />
            <mxPoint x="-912" y="496.25" as="targetPoint" />
            <Array as="points">
              <mxPoint x="-927" y="526.25" />
              <mxPoint x="-1172" y="526.25" />
            </Array>
          </mxGeometry>
        </mxCell>
        <mxCell id="2AI2-PvDSzkwWwsy-X7Z-107" value="(1, N)" style="text;html=1;align=center;verticalAlign=middle;resizable=0;points=[];autosize=1;strokeColor=none;fillColor=none;" vertex="1" parent="1">
          <mxGeometry x="-1332" y="589.25" width="50" height="30" as="geometry" />
        </mxCell>
        <mxCell id="2AI2-PvDSzkwWwsy-X7Z-108" value="" style="endArrow=none;html=1;rounded=0;exitX=0.5;exitY=0;exitDx=0;exitDy=0;entryX=0.5;entryY=1;entryDx=0;entryDy=0;" edge="1" parent="1" source="2AI2-PvDSzkwWwsy-X7Z-74" target="2AI2-PvDSzkwWwsy-X7Z-73">
          <mxGeometry relative="1" as="geometry">
            <mxPoint x="-902" y="316.25" as="sourcePoint" />
            <mxPoint x="-742" y="274.25" as="targetPoint" />
          </mxGeometry>
        </mxCell>
        <mxCell id="2AI2-PvDSzkwWwsy-X7Z-109" value="" style="endArrow=none;html=1;rounded=0;entryX=0.5;entryY=1;entryDx=0;entryDy=0;exitX=0.5;exitY=0;exitDx=0;exitDy=0;" edge="1" parent="1" source="2AI2-PvDSzkwWwsy-X7Z-93" target="2AI2-PvDSzkwWwsy-X7Z-96">
          <mxGeometry width="50" height="50" relative="1" as="geometry">
            <mxPoint x="-992" y="306.25" as="sourcePoint" />
            <mxPoint x="-942" y="256.25" as="targetPoint" />
          </mxGeometry>
        </mxCell>
        <mxCell id="2AI2-PvDSzkwWwsy-X7Z-110" value="(0, N)" style="text;html=1;align=center;verticalAlign=middle;resizable=0;points=[];autosize=1;strokeColor=none;fillColor=none;" vertex="1" parent="1">
          <mxGeometry x="-741.75" y="376.75" width="50" height="30" as="geometry" />
        </mxCell>
        <mxCell id="2AI2-PvDSzkwWwsy-X7Z-111" value="(1, N)" style="text;html=1;align=center;verticalAlign=middle;resizable=0;points=[];autosize=1;strokeColor=none;fillColor=none;" vertex="1" parent="1">
          <mxGeometry x="-1482" y="499.25" width="50" height="30" as="geometry" />
        </mxCell>
        <mxCell id="2AI2-PvDSzkwWwsy-X7Z-112" value="(1, N)" style="text;html=1;align=center;verticalAlign=middle;resizable=0;points=[];autosize=1;strokeColor=none;fillColor=none;" vertex="1" parent="1">
          <mxGeometry x="-1482" y="586.75" width="50" height="30" as="geometry" />
        </mxCell>
        <mxCell id="2AI2-PvDSzkwWwsy-X7Z-113" value="" style="endArrow=none;html=1;rounded=1;entryX=0.5;entryY=1;entryDx=0;entryDy=0;exitX=0.5;exitY=0;exitDx=0;exitDy=0;" edge="1" parent="1" source="2AI2-PvDSzkwWwsy-X7Z-3" target="2AI2-PvDSzkwWwsy-X7Z-88">
          <mxGeometry width="50" height="50" relative="1" as="geometry">
            <mxPoint x="-1032" y="496.25" as="sourcePoint" />
            <mxPoint x="-982" y="446.25" as="targetPoint" />
            <Array as="points">
              <mxPoint x="-902" y="416.25" />
              <mxPoint x="-1012" y="416.25" />
            </Array>
          </mxGeometry>
        </mxCell>
        <mxCell id="2AI2-PvDSzkwWwsy-X7Z-114" value="" style="endArrow=none;html=1;rounded=0;entryX=0.5;entryY=1;entryDx=0;entryDy=0;exitX=0.5;exitY=0;exitDx=0;exitDy=0;" edge="1" parent="1" source="2AI2-PvDSzkwWwsy-X7Z-89" target="2AI2-PvDSzkwWwsy-X7Z-86">
          <mxGeometry width="50" height="50" relative="1" as="geometry">
            <mxPoint x="-992" y="306.25" as="sourcePoint" />
            <mxPoint x="-942" y="256.25" as="targetPoint" />
          </mxGeometry>
        </mxCell>
        <mxCell id="2AI2-PvDSzkwWwsy-X7Z-115" value="" style="endArrow=none;html=1;rounded=0;exitX=0.5;exitY=0;exitDx=0;exitDy=0;entryX=0.5;entryY=1;entryDx=0;entryDy=0;" edge="1" parent="1" source="2AI2-PvDSzkwWwsy-X7Z-88" target="2AI2-PvDSzkwWwsy-X7Z-85">
          <mxGeometry width="50" height="50" relative="1" as="geometry">
            <mxPoint x="-992" y="306.25" as="sourcePoint" />
            <mxPoint x="-942" y="256.25" as="targetPoint" />
          </mxGeometry>
        </mxCell>
        <mxCell id="2AI2-PvDSzkwWwsy-X7Z-116" value="" style="endArrow=none;html=1;rounded=1;exitX=0.5;exitY=0;exitDx=0;exitDy=0;entryX=0.5;entryY=0;entryDx=0;entryDy=0;" edge="1" parent="1" source="2AI2-PvDSzkwWwsy-X7Z-85" target="2AI2-PvDSzkwWwsy-X7Z-86">
          <mxGeometry width="50" height="50" relative="1" as="geometry">
            <mxPoint x="-1112" y="206.25" as="sourcePoint" />
            <mxPoint x="-882" y="176.25" as="targetPoint" />
            <Array as="points">
              <mxPoint x="-1012" y="186.25" />
              <mxPoint x="-942" y="186.25" />
              <mxPoint x="-872" y="186.25" />
            </Array>
          </mxGeometry>
        </mxCell>
        <mxCell id="2AI2-PvDSzkwWwsy-X7Z-117" value="(1, 1)" style="text;html=1;align=center;verticalAlign=middle;resizable=0;points=[];autosize=1;strokeColor=none;fillColor=none;" vertex="1" parent="1">
          <mxGeometry x="-1172" y="374.25" width="50" height="30" as="geometry" />
        </mxCell>
        <mxCell id="2AI2-PvDSzkwWwsy-X7Z-118" value="(0, N)" style="text;html=1;align=center;verticalAlign=middle;resizable=0;points=[];autosize=1;strokeColor=none;fillColor=none;" vertex="1" parent="1">
          <mxGeometry x="-1172" y="291.75" width="50" height="30" as="geometry" />
        </mxCell>
        <mxCell id="2AI2-PvDSzkwWwsy-X7Z-119" value="(1, N)" style="text;html=1;align=center;verticalAlign=middle;resizable=0;points=[];autosize=1;strokeColor=none;fillColor=none;" vertex="1" parent="1">
          <mxGeometry x="-1012" y="359.25" width="50" height="30" as="geometry" />
        </mxCell>
        <mxCell id="2AI2-PvDSzkwWwsy-X7Z-120" value="(1, N)" style="text;html=1;align=center;verticalAlign=middle;resizable=0;points=[];autosize=1;strokeColor=none;fillColor=none;" vertex="1" parent="1">
          <mxGeometry x="-872" y="359.25" width="50" height="30" as="geometry" />
        </mxCell>
        <mxCell id="2AI2-PvDSzkwWwsy-X7Z-121" value="(1, 1)" style="text;html=1;align=center;verticalAlign=middle;resizable=0;points=[];autosize=1;strokeColor=none;fillColor=none;" vertex="1" parent="1">
          <mxGeometry x="-741.75" y="294.25" width="50" height="30" as="geometry" />
        </mxCell>
        <mxCell id="2AI2-PvDSzkwWwsy-X7Z-122" value="(1, N)" style="text;html=1;align=center;verticalAlign=middle;resizable=0;points=[];autosize=1;strokeColor=none;fillColor=none;" vertex="1" parent="1">
          <mxGeometry x="-872" y="279.25" width="50" height="30" as="geometry" />
        </mxCell>
        <mxCell id="2AI2-PvDSzkwWwsy-X7Z-123" value="(1, N)" style="text;html=1;align=center;verticalAlign=middle;resizable=0;points=[];autosize=1;strokeColor=none;fillColor=none;" vertex="1" parent="1">
          <mxGeometry x="-1012" y="279.25" width="50" height="30" as="geometry" />
        </mxCell>
        <mxCell id="2AI2-PvDSzkwWwsy-X7Z-124" value="Restrizione" style="whiteSpace=wrap;html=1;align=center;rounded=1;" vertex="1" parent="1">
          <mxGeometry x="-1062" y="772" width="100" height="40" as="geometry" />
        </mxCell>
        <mxCell id="2AI2-PvDSzkwWwsy-X7Z-125" value="FormRestr" style="shape=rhombus;perimeter=rhombusPerimeter;whiteSpace=wrap;html=1;align=center;" vertex="1" parent="1">
          <mxGeometry x="-1209.5" y="772" width="90" height="44.5" as="geometry" />
        </mxCell>
        <mxCell id="2AI2-PvDSzkwWwsy-X7Z-126" value="PaeseRestrizione" style="shape=rhombus;perimeter=rhombusPerimeter;whiteSpace=wrap;html=1;align=center;" vertex="1" parent="1">
          <mxGeometry x="-907" y="766.75" width="115" height="52" as="geometry" />
        </mxCell>
        <mxCell id="2AI2-PvDSzkwWwsy-X7Z-127" value="" style="endArrow=none;html=1;rounded=1;exitX=0;exitY=0.5;exitDx=0;exitDy=0;entryX=0;entryY=0.5;entryDx=0;entryDy=0;" edge="1" parent="1" source="2AI2-PvDSzkwWwsy-X7Z-137" target="2AI2-PvDSzkwWwsy-X7Z-125">
          <mxGeometry width="50" height="50" relative="1" as="geometry">
            <mxPoint x="-1172" y="826.25" as="sourcePoint" />
            <mxPoint x="-1122" y="776.25" as="targetPoint" />
            <Array as="points">
              <mxPoint x="-1642" y="997.25" />
              <mxPoint x="-1642" y="794.25" />
              <mxPoint x="-1292" y="794.25" />
            </Array>
          </mxGeometry>
        </mxCell>
        <mxCell id="2AI2-PvDSzkwWwsy-X7Z-128" value="" style="endArrow=none;html=1;rounded=1;entryX=-0.003;entryY=0.556;entryDx=0;entryDy=0;exitX=0.5;exitY=1;exitDx=0;exitDy=0;entryPerimeter=0;" edge="1" parent="1" source="2AI2-PvDSzkwWwsy-X7Z-126" target="2AI2-PvDSzkwWwsy-X7Z-8">
          <mxGeometry relative="1" as="geometry">
            <mxPoint x="-1022" y="756.25" as="sourcePoint" />
            <mxPoint x="-862" y="756.25" as="targetPoint" />
            <Array as="points">
              <mxPoint x="-849" y="896.25" />
            </Array>
          </mxGeometry>
        </mxCell>
        <mxCell id="2AI2-PvDSzkwWwsy-X7Z-129" value="" style="endArrow=none;html=1;rounded=0;exitX=1;exitY=0.5;exitDx=0;exitDy=0;entryX=-0.001;entryY=0.556;entryDx=0;entryDy=0;entryPerimeter=0;" edge="1" parent="1" source="2AI2-PvDSzkwWwsy-X7Z-125" target="2AI2-PvDSzkwWwsy-X7Z-124">
          <mxGeometry width="50" height="50" relative="1" as="geometry">
            <mxPoint x="-1112" y="766.25" as="sourcePoint" />
            <mxPoint x="-1062" y="716.25" as="targetPoint" />
          </mxGeometry>
        </mxCell>
        <mxCell id="2AI2-PvDSzkwWwsy-X7Z-130" value="(0, N)" style="text;html=1;align=center;verticalAlign=middle;resizable=0;points=[];autosize=1;strokeColor=none;fillColor=none;" vertex="1" parent="1">
          <mxGeometry x="-1252" y="766.75" width="50" height="30" as="geometry" />
        </mxCell>
        <mxCell id="2AI2-PvDSzkwWwsy-X7Z-131" value="(1, N)" style="text;html=1;align=center;verticalAlign=middle;resizable=0;points=[];autosize=1;strokeColor=none;fillColor=none;" vertex="1" parent="1">
          <mxGeometry x="-1132" y="766.75" width="50" height="30" as="geometry" />
        </mxCell>
        <mxCell id="2AI2-PvDSzkwWwsy-X7Z-132" value="(0, N)" style="text;html=1;align=center;verticalAlign=middle;resizable=0;points=[];autosize=1;strokeColor=none;fillColor=none;" vertex="1" parent="1">
          <mxGeometry x="-852" y="816.5" width="50" height="30" as="geometry" />
        </mxCell>
        <mxCell id="2AI2-PvDSzkwWwsy-X7Z-133" value="" style="endArrow=none;html=1;rounded=0;entryX=0;entryY=0.5;entryDx=0;entryDy=0;exitX=1;exitY=0.5;exitDx=0;exitDy=0;" edge="1" parent="1" source="2AI2-PvDSzkwWwsy-X7Z-124" target="2AI2-PvDSzkwWwsy-X7Z-126">
          <mxGeometry relative="1" as="geometry">
            <mxPoint x="-952" y="836.25" as="sourcePoint" />
            <mxPoint x="-792" y="836.25" as="targetPoint" />
          </mxGeometry>
        </mxCell>
        <mxCell id="2AI2-PvDSzkwWwsy-X7Z-134" value="(1, N)" style="text;html=1;align=center;verticalAlign=middle;resizable=0;points=[];autosize=1;strokeColor=none;fillColor=none;" vertex="1" parent="1">
          <mxGeometry x="-942" y="764.25" width="50" height="30" as="geometry" />
        </mxCell>
        <mxCell id="2AI2-PvDSzkwWwsy-X7Z-135" value="(1, N)" style="text;html=1;align=center;verticalAlign=middle;resizable=0;points=[];autosize=1;strokeColor=none;fillColor=none;" vertex="1" parent="1">
          <mxGeometry x="-1232" y="981.75" width="50" height="30" as="geometry" />
        </mxCell>
        <mxCell id="2AI2-PvDSzkwWwsy-X7Z-136" value="(1, N)" style="text;html=1;align=center;verticalAlign=middle;resizable=0;points=[];autosize=1;strokeColor=none;fillColor=none;" vertex="1" parent="1">
          <mxGeometry x="-1232" y="906.75" width="50" height="30" as="geometry" />
        </mxCell>
        <mxCell id="2AI2-PvDSzkwWwsy-X7Z-137" value="Formato" style="whiteSpace=wrap;html=1;align=center;fillStyle=auto;rounded=1;" vertex="1" parent="1">
          <mxGeometry x="-1552" y="976.75" width="100" height="40" as="geometry" />
        </mxCell>
        <mxCell id="2AI2-PvDSzkwWwsy-X7Z-138" value="" style="endArrow=none;html=1;rounded=1;exitX=0.5;exitY=0;exitDx=0;exitDy=0;entryX=0.5;entryY=0;entryDx=0;entryDy=0;" edge="1" parent="1" source="2AI2-PvDSzkwWwsy-X7Z-84" target="2AI2-PvDSzkwWwsy-X7Z-83">
          <mxGeometry width="50" height="50" relative="1" as="geometry">
            <mxPoint x="-1572" y="1026.25" as="sourcePoint" />
            <mxPoint x="-1442" y="1076.25" as="targetPoint" />
            <Array as="points">
              <mxPoint x="-1570" y="1066.25" />
              <mxPoint x="-1512" y="1066.25" />
              <mxPoint x="-1437" y="1066.25" />
            </Array>
          </mxGeometry>
        </mxCell>
        <mxCell id="2AI2-PvDSzkwWwsy-X7Z-139" value="FormatoFile" style="shape=rhombus;perimeter=rhombusPerimeter;whiteSpace=wrap;html=1;align=center;" vertex="1" parent="1">
          <mxGeometry x="-1562" y="859.25" width="120" height="60" as="geometry" />
        </mxCell>
        <mxCell id="2AI2-PvDSzkwWwsy-X7Z-140" value="" style="endArrow=none;html=1;rounded=0;entryX=0.5;entryY=0;entryDx=0;entryDy=0;exitX=0.5;exitY=1;exitDx=0;exitDy=0;" edge="1" parent="1" source="2AI2-PvDSzkwWwsy-X7Z-139" target="2AI2-PvDSzkwWwsy-X7Z-137">
          <mxGeometry relative="1" as="geometry">
            <mxPoint x="-1422" y="886.25" as="sourcePoint" />
            <mxPoint x="-1262" y="886.25" as="targetPoint" />
          </mxGeometry>
        </mxCell>
        <mxCell id="2AI2-PvDSzkwWwsy-X7Z-141" value="" style="shape=flexArrow;endArrow=classic;html=1;rounded=0;fillColor=#000000;entryX=0.5;entryY=1;entryDx=0;entryDy=0;" edge="1" parent="1" target="2AI2-PvDSzkwWwsy-X7Z-137">
          <mxGeometry width="50" height="50" relative="1" as="geometry">
            <mxPoint x="-1502" y="1066.25" as="sourcePoint" />
            <mxPoint x="-1482" y="1026.25" as="targetPoint" />
          </mxGeometry>
        </mxCell>
        <mxCell id="2AI2-PvDSzkwWwsy-X7Z-142" value="" style="endArrow=none;html=1;rounded=0;entryX=1;entryY=0.5;entryDx=0;entryDy=0;exitX=0;exitY=0.5;exitDx=0;exitDy=0;" edge="1" parent="1" source="2AI2-PvDSzkwWwsy-X7Z-4" target="2AI2-PvDSzkwWwsy-X7Z-139">
          <mxGeometry relative="1" as="geometry">
            <mxPoint x="-1422" y="886.25" as="sourcePoint" />
            <mxPoint x="-1262" y="886.25" as="targetPoint" />
          </mxGeometry>
        </mxCell>
        <mxCell id="2AI2-PvDSzkwWwsy-X7Z-143" value="(1, 1)" style="text;html=1;align=center;verticalAlign=middle;resizable=0;points=[];autosize=1;strokeColor=none;fillColor=none;" vertex="1" parent="1">
          <mxGeometry x="-1445" y="859.25" width="50" height="30" as="geometry" />
        </mxCell>
        <mxCell id="2AI2-PvDSzkwWwsy-X7Z-144" value="(1, N)" style="text;html=1;align=center;verticalAlign=middle;resizable=0;points=[];autosize=1;strokeColor=none;fillColor=none;" vertex="1" parent="1">
          <mxGeometry x="-1502" y="919.25" width="50" height="30" as="geometry" />
        </mxCell>
        <mxCell id="2AI2-PvDSzkwWwsy-X7Z-145" value="(0, N)" style="text;html=1;align=center;verticalAlign=middle;resizable=0;points=[];autosize=1;strokeColor=none;fillColor=none;" vertex="1" parent="1">
          <mxGeometry x="-839" y="84.25" width="50" height="30" as="geometry" />
        </mxCell>
        <mxCell id="2AI2-PvDSzkwWwsy-X7Z-146" value="CineastaPremio" style="shape=rhombus;perimeter=rhombusPerimeter;whiteSpace=wrap;html=1;align=center;" vertex="1" parent="1">
          <mxGeometry x="-802" y="84.25" width="120" height="60" as="geometry" />
        </mxCell>
        <mxCell id="2AI2-PvDSzkwWwsy-X7Z-147" value="(1, 1)" style="text;html=1;align=center;verticalAlign=middle;resizable=0;points=[];autosize=1;strokeColor=none;fillColor=none;" vertex="1" parent="1">
          <mxGeometry x="-747" y="134.25" width="50" height="30" as="geometry" />
        </mxCell>
        <mxCell id="2AI2-PvDSzkwWwsy-X7Z-148" value="" style="endArrow=none;html=1;rounded=0;entryX=0;entryY=0.5;entryDx=0;entryDy=0;exitX=1;exitY=0.5;exitDx=0;exitDy=0;" edge="1" parent="1" source="2AI2-PvDSzkwWwsy-X7Z-97" target="2AI2-PvDSzkwWwsy-X7Z-146">
          <mxGeometry relative="1" as="geometry">
            <mxPoint x="-1152" y="404.25" as="sourcePoint" />
            <mxPoint x="-992" y="404.25" as="targetPoint" />
          </mxGeometry>
        </mxCell>
        <mxCell id="2AI2-PvDSzkwWwsy-X7Z-149" value="" style="endArrow=none;html=1;rounded=0;entryX=0.5;entryY=1;entryDx=0;entryDy=0;exitX=0.5;exitY=0;exitDx=0;exitDy=0;" edge="1" parent="1" source="2AI2-PvDSzkwWwsy-X7Z-73" target="2AI2-PvDSzkwWwsy-X7Z-146">
          <mxGeometry relative="1" as="geometry">
            <mxPoint x="-1152" y="404.25" as="sourcePoint" />
            <mxPoint x="-992" y="404.25" as="targetPoint" />
          </mxGeometry>
        </mxCell>
        <mxCell id="2AI2-PvDSzkwWwsy-X7Z-163" value="" style="group" vertex="1" connectable="0" parent="1">
          <mxGeometry x="-1024.38" y="1255" width="34.38000000000011" height="70" as="geometry" />
        </mxCell>
        <mxCell id="2AI2-PvDSzkwWwsy-X7Z-165" value="" style="ellipse;whiteSpace=wrap;html=1;aspect=fixed;" vertex="1" parent="2AI2-PvDSzkwWwsy-X7Z-163">
          <mxGeometry width="8.75" height="8.75" as="geometry" />
        </mxCell>
        <mxCell id="2AI2-PvDSzkwWwsy-X7Z-171" value="" style="ellipse;whiteSpace=wrap;html=1;aspect=fixed;" vertex="1" parent="2AI2-PvDSzkwWwsy-X7Z-163">
          <mxGeometry y="20" width="8.75" height="8.75" as="geometry" />
        </mxCell>
        <mxCell id="2AI2-PvDSzkwWwsy-X7Z-173" value="" style="ellipse;whiteSpace=wrap;html=1;aspect=fixed;fillStyle=solid;fillColor=#000000;" vertex="1" parent="2AI2-PvDSzkwWwsy-X7Z-163">
          <mxGeometry x="12.190000000000055" y="35" width="10" height="10" as="geometry" />
        </mxCell>
        <mxCell id="1nwxLZV6FVW2qh2XziLg-479" style="edgeStyle=orthogonalEdgeStyle;rounded=1;orthogonalLoop=1;jettySize=auto;html=1;exitX=0;exitY=0.5;exitDx=0;exitDy=0;entryX=1;entryY=0.25;entryDx=0;entryDy=0;endArrow=none;endFill=0;curved=0;" edge="1" parent="1" source="1nwxLZV6FVW2qh2XziLg-469" target="1nwxLZV6FVW2qh2XziLg-213">
          <mxGeometry relative="1" as="geometry" />
        </mxCell>
        <mxCell id="1nwxLZV6FVW2qh2XziLg-469" value="" style="ellipse;whiteSpace=wrap;html=1;aspect=fixed;" vertex="1" parent="1">
          <mxGeometry x="-640" y="1342" width="10" height="10" as="geometry" />
        </mxCell>
        <mxCell id="2AI2-PvDSzkwWwsy-X7Z-172" style="edgeStyle=orthogonalEdgeStyle;rounded=0;orthogonalLoop=1;jettySize=auto;html=1;exitX=1;exitY=0.5;exitDx=0;exitDy=0;entryX=0;entryY=1;entryDx=0;entryDy=0;endArrow=none;endFill=0;" edge="1" parent="1" source="2AI2-PvDSzkwWwsy-X7Z-171" target="1nwxLZV6FVW2qh2XziLg-237">
          <mxGeometry relative="1" as="geometry" />
        </mxCell>
        <mxCell id="1nwxLZV6FVW2qh2XziLg-458" value="Luogo&lt;br&gt;Nascita" style="text;html=1;align=center;verticalAlign=middle;resizable=0;points=[];autosize=1;strokeColor=none;fillColor=none;" vertex="1" parent="1">
          <mxGeometry x="-935" y="1153.75" width="60" height="40" as="geometry" />
        </mxCell>
        <mxCell id="2AI2-PvDSzkwWwsy-X7Z-174" value="" style="endArrow=none;html=1;rounded=0;exitX=0.5;exitY=0;exitDx=0;exitDy=0;" edge="1" parent="1" source="2AI2-PvDSzkwWwsy-X7Z-173">
          <mxGeometry width="50" height="50" relative="1" as="geometry">
            <mxPoint x="-980" y="1240" as="sourcePoint" />
            <mxPoint x="-1007" y="1230" as="targetPoint" />
          </mxGeometry>
        </mxCell>
        <mxCell id="2AI2-PvDSzkwWwsy-X7Z-170" style="edgeStyle=orthogonalEdgeStyle;rounded=0;orthogonalLoop=1;jettySize=auto;html=1;exitX=1;exitY=0.5;exitDx=0;exitDy=0;entryX=0;entryY=0.5;entryDx=0;entryDy=0;endArrow=none;endFill=0;" edge="1" parent="1" source="2AI2-PvDSzkwWwsy-X7Z-165" target="1nwxLZV6FVW2qh2XziLg-237">
          <mxGeometry relative="1" as="geometry" />
        </mxCell>
        <mxCell id="1nwxLZV6FVW2qh2XziLg-453" value="" style="group" connectable="0" vertex="1" parent="1">
          <mxGeometry x="-910" y="1190" width="10" height="80" as="geometry" />
        </mxCell>
        <mxCell id="1nwxLZV6FVW2qh2XziLg-455" value="" style="ellipse;whiteSpace=wrap;html=1;aspect=fixed;" vertex="1" parent="1nwxLZV6FVW2qh2XziLg-453">
          <mxGeometry width="10" height="10" as="geometry" />
        </mxCell>
        <mxCell id="1nwxLZV6FVW2qh2XziLg-450" value="" style="ellipse;whiteSpace=wrap;html=1;aspect=fixed;" vertex="1" parent="1">
          <mxGeometry x="-973.75" y="1208.75" width="8.75" height="8.75" as="geometry" />
        </mxCell>
        <mxCell id="1nwxLZV6FVW2qh2XziLg-474" style="edgeStyle=orthogonalEdgeStyle;rounded=1;orthogonalLoop=1;jettySize=auto;html=1;exitX=0;exitY=0.5;exitDx=0;exitDy=0;curved=0;startArrow=none;startFill=0;endArrow=none;endFill=0;entryX=0.871;entryY=0.007;entryDx=0;entryDy=0;entryPerimeter=0;" edge="1" parent="1" source="1nwxLZV6FVW2qh2XziLg-470" target="1nwxLZV6FVW2qh2XziLg-213">
          <mxGeometry relative="1" as="geometry">
            <mxPoint x="-690" y="1350" as="targetPoint" />
          </mxGeometry>
        </mxCell>
        <mxCell id="1nwxLZV6FVW2qh2XziLg-470" value="" style="ellipse;whiteSpace=wrap;html=1;aspect=fixed;fillStyle=solid;fillColor=#000000;" vertex="1" parent="1">
          <mxGeometry x="-650" y="1320" width="10" height="10" as="geometry" />
        </mxCell>
        <mxCell id="1nwxLZV6FVW2qh2XziLg-447" value="Nome" style="text;html=1;align=center;verticalAlign=middle;resizable=0;points=[];autosize=1;strokeColor=none;fillColor=none;" vertex="1" parent="1">
          <mxGeometry x="-1072" y="1240" width="60" height="30" as="geometry" />
        </mxCell>
        <mxCell id="2AI2-PvDSzkwWwsy-X7Z-166" value="Cognome" style="text;html=1;align=center;verticalAlign=middle;resizable=0;points=[];autosize=1;strokeColor=none;fillColor=none;" vertex="1" parent="1">
          <mxGeometry x="-1095.63" y="1260" width="80" height="30" as="geometry" />
        </mxCell>
        <mxCell id="1nwxLZV6FVW2qh2XziLg-454" value="" style="endArrow=none;html=1;rounded=0;entryX=0.5;entryY=1;entryDx=0;entryDy=0;" edge="1" parent="1" target="1nwxLZV6FVW2qh2XziLg-455">
          <mxGeometry relative="1" as="geometry">
            <mxPoint x="-905" y="1240" as="sourcePoint" />
            <mxPoint x="-902" y="1169.0000000000002" as="targetPoint" />
          </mxGeometry>
        </mxCell>
        <mxCell id="1nwxLZV6FVW2qh2XziLg-475" value="ID" style="text;html=1;align=center;verticalAlign=middle;resizable=0;points=[];autosize=1;strokeColor=none;fillColor=none;" vertex="1" parent="1">
          <mxGeometry x="-647" y="1310" width="40" height="30" as="geometry" />
        </mxCell>
        <mxCell id="1nwxLZV6FVW2qh2XziLg-486" style="edgeStyle=orthogonalEdgeStyle;rounded=1;orthogonalLoop=1;jettySize=auto;html=1;exitX=0;exitY=0.5;exitDx=0;exitDy=0;entryX=1;entryY=0.5;entryDx=0;entryDy=0;endArrow=none;endFill=0;curved=0;" edge="1" parent="1" source="1nwxLZV6FVW2qh2XziLg-476" target="1nwxLZV6FVW2qh2XziLg-213">
          <mxGeometry relative="1" as="geometry" />
        </mxCell>
        <mxCell id="1nwxLZV6FVW2qh2XziLg-476" value="" style="ellipse;whiteSpace=wrap;html=1;aspect=fixed;" vertex="1" parent="1">
          <mxGeometry x="-635" y="1367" width="10" height="10" as="geometry" />
        </mxCell>
        <mxCell id="1nwxLZV6FVW2qh2XziLg-485" value="" style="edgeStyle=orthogonalEdgeStyle;rounded=1;orthogonalLoop=1;jettySize=auto;html=1;endArrow=none;endFill=0;curved=0;entryX=1;entryY=0.75;entryDx=0;entryDy=0;" edge="1" parent="1" source="1nwxLZV6FVW2qh2XziLg-477" target="1nwxLZV6FVW2qh2XziLg-213">
          <mxGeometry relative="1" as="geometry" />
        </mxCell>
        <mxCell id="1nwxLZV6FVW2qh2XziLg-477" value="" style="ellipse;whiteSpace=wrap;html=1;aspect=fixed;" vertex="1" parent="1">
          <mxGeometry x="-650" y="1392" width="10" height="10" as="geometry" />
        </mxCell>
        <mxCell id="1nwxLZV6FVW2qh2XziLg-478" value="" style="ellipse;whiteSpace=wrap;html=1;aspect=fixed;" vertex="1" parent="1">
          <mxGeometry x="-662" y="1420" width="10" height="10" as="geometry" />
        </mxCell>
        <mxCell id="2AI2-PvDSzkwWwsy-X7Z-175" value="NomePersonaggio" style="text;html=1;align=center;verticalAlign=middle;resizable=0;points=[];autosize=1;strokeColor=none;fillColor=none;" vertex="1" parent="1">
          <mxGeometry x="-1130" y="1412" width="120" height="30" as="geometry" />
        </mxCell>
        <mxCell id="1nwxLZV6FVW2qh2XziLg-480" value="Nome" style="text;html=1;align=center;verticalAlign=middle;resizable=0;points=[];autosize=1;strokeColor=none;fillColor=none;" vertex="1" parent="1">
          <mxGeometry x="-640" y="1332" width="60" height="30" as="geometry" />
        </mxCell>
        <mxCell id="1nwxLZV6FVW2qh2XziLg-481" value="Importanza" style="text;html=1;align=center;verticalAlign=middle;resizable=0;points=[];autosize=1;strokeColor=none;fillColor=none;" vertex="1" parent="1">
          <mxGeometry x="-630" y="1357" width="80" height="30" as="geometry" />
        </mxCell>
        <mxCell id="1nwxLZV6FVW2qh2XziLg-482" value="Data" style="text;html=1;align=center;verticalAlign=middle;resizable=0;points=[];autosize=1;strokeColor=none;fillColor=none;" vertex="1" parent="1">
          <mxGeometry x="-645" y="1382" width="50" height="30" as="geometry" />
        </mxCell>
        <mxCell id="2AI2-PvDSzkwWwsy-X7Z-176" value="" style="ellipse;whiteSpace=wrap;html=1;aspect=fixed;" vertex="1" parent="1">
          <mxGeometry x="-1060" y="1440" width="10" height="10" as="geometry" />
        </mxCell>
        <mxCell id="1nwxLZV6FVW2qh2XziLg-483" value="Categoria" style="text;html=1;align=center;verticalAlign=middle;resizable=0;points=[];autosize=1;strokeColor=none;fillColor=none;" vertex="1" parent="1">
          <mxGeometry x="-660" y="1410" width="80" height="30" as="geometry" />
        </mxCell>
        <mxCell id="1nwxLZV6FVW2qh2XziLg-487" style="edgeStyle=orthogonalEdgeStyle;rounded=1;orthogonalLoop=1;jettySize=auto;html=1;exitX=0;exitY=0.5;exitDx=0;exitDy=0;entryX=0.846;entryY=0.998;entryDx=0;entryDy=0;entryPerimeter=0;endArrow=none;endFill=0;curved=0;" edge="1" parent="1" source="1nwxLZV6FVW2qh2XziLg-478" target="1nwxLZV6FVW2qh2XziLg-213">
          <mxGeometry relative="1" as="geometry" />
        </mxCell>
        <mxCell id="2AI2-PvDSzkwWwsy-X7Z-178" value="ID" style="text;html=1;align=center;verticalAlign=middle;resizable=0;points=[];autosize=1;strokeColor=none;fillColor=none;" vertex="1" parent="1">
          <mxGeometry x="-1022" y="1782" width="40" height="30" as="geometry" />
        </mxCell>
        <mxCell id="2AI2-PvDSzkwWwsy-X7Z-179" value="Titolo" style="text;html=1;align=center;verticalAlign=middle;resizable=0;points=[];autosize=1;strokeColor=none;fillColor=none;" vertex="1" parent="1">
          <mxGeometry x="-965" y="1820" width="50" height="30" as="geometry" />
        </mxCell>
        <mxCell id="2AI2-PvDSzkwWwsy-X7Z-177" style="edgeStyle=orthogonalEdgeStyle;rounded=1;orthogonalLoop=1;jettySize=auto;html=1;exitX=1;exitY=0.5;exitDx=0;exitDy=0;entryX=0;entryY=0;entryDx=0;entryDy=0;endArrow=none;endFill=0;curved=0;" edge="1" parent="1" source="2AI2-PvDSzkwWwsy-X7Z-176" target="1nwxLZV6FVW2qh2XziLg-228">
          <mxGeometry relative="1" as="geometry" />
        </mxCell>
        <mxCell id="2AI2-PvDSzkwWwsy-X7Z-180" value="Descrizione" style="text;html=1;align=center;verticalAlign=middle;resizable=0;points=[];autosize=1;strokeColor=none;fillColor=none;" vertex="1" parent="1">
          <mxGeometry x="-955" y="1850" width="90" height="30" as="geometry" />
        </mxCell>
        <mxCell id="2AI2-PvDSzkwWwsy-X7Z-182" value="DataNascita" style="text;html=1;align=center;verticalAlign=middle;resizable=0;points=[];autosize=1;strokeColor=none;fillColor=none;" vertex="1" parent="1">
          <mxGeometry x="-1105.63" y="1225" width="90" height="30" as="geometry" />
        </mxCell>
        <mxCell id="2AI2-PvDSzkwWwsy-X7Z-184" style="edgeStyle=orthogonalEdgeStyle;rounded=0;orthogonalLoop=1;jettySize=auto;html=1;exitX=1;exitY=0.5;exitDx=0;exitDy=0;entryX=0;entryY=0;entryDx=0;entryDy=0;endArrow=none;endFill=0;" edge="1" parent="1" source="2AI2-PvDSzkwWwsy-X7Z-183" target="1nwxLZV6FVW2qh2XziLg-237">
          <mxGeometry relative="1" as="geometry" />
        </mxCell>
        <mxCell id="2AI2-PvDSzkwWwsy-X7Z-183" value="" style="ellipse;whiteSpace=wrap;html=1;aspect=fixed;" vertex="1" parent="1">
          <mxGeometry x="-1024.38" y="1235.63" width="8.75" height="8.75" as="geometry" />
        </mxCell>
        <mxCell id="2AI2-PvDSzkwWwsy-X7Z-181" value="Durata" style="text;html=1;align=center;verticalAlign=middle;resizable=0;points=[];autosize=1;strokeColor=none;fillColor=none;" vertex="1" parent="1">
          <mxGeometry x="-905" y="1820" width="60" height="30" as="geometry" />
        </mxCell>
        <mxCell id="2AI2-PvDSzkwWwsy-X7Z-185" value="AnnoDiProduzione" style="text;html=1;align=center;verticalAlign=middle;resizable=0;points=[];autosize=1;strokeColor=none;fillColor=none;" vertex="1" parent="1">
          <mxGeometry x="-875" y="1850" width="120" height="30" as="geometry" />
        </mxCell>
        <mxCell id="2AI2-PvDSzkwWwsy-X7Z-186" value="" style="ellipse;whiteSpace=wrap;html=1;aspect=fixed;fillColor=#000000;" vertex="1" parent="1">
          <mxGeometry x="-992" y="1792" width="10" height="10" as="geometry" />
        </mxCell>
        <mxCell id="1nwxLZV6FVW2qh2XziLg-508" style="edgeStyle=orthogonalEdgeStyle;rounded=1;orthogonalLoop=1;jettySize=auto;html=1;exitX=1;exitY=0.5;exitDx=0;exitDy=0;entryX=0.25;entryY=1;entryDx=0;entryDy=0;endArrow=none;endFill=0;curved=0;" edge="1" parent="1" source="1nwxLZV6FVW2qh2XziLg-495" target="1nwxLZV6FVW2qh2XziLg-201">
          <mxGeometry relative="1" as="geometry" />
        </mxCell>
        <mxCell id="1nwxLZV6FVW2qh2XziLg-495" value="" style="ellipse;whiteSpace=wrap;html=1;aspect=fixed;" vertex="1" parent="1">
          <mxGeometry x="-465" y="1335" width="10" height="10" as="geometry" />
        </mxCell>
        <mxCell id="1nwxLZV6FVW2qh2XziLg-506" style="edgeStyle=orthogonalEdgeStyle;rounded=0;orthogonalLoop=1;jettySize=auto;html=1;exitX=1;exitY=0.5;exitDx=0;exitDy=0;entryX=0;entryY=0.5;entryDx=0;entryDy=0;endArrow=none;endFill=0;" edge="1" parent="1" source="1nwxLZV6FVW2qh2XziLg-496" target="1nwxLZV6FVW2qh2XziLg-201">
          <mxGeometry relative="1" as="geometry" />
        </mxCell>
        <mxCell id="1nwxLZV6FVW2qh2XziLg-496" value="" style="ellipse;whiteSpace=wrap;html=1;aspect=fixed;" vertex="1" parent="1">
          <mxGeometry x="-512" y="1295" width="10" height="10" as="geometry" />
        </mxCell>
        <mxCell id="1nwxLZV6FVW2qh2XziLg-497" value="" style="ellipse;whiteSpace=wrap;html=1;aspect=fixed;" vertex="1" parent="1">
          <mxGeometry x="-477" y="1230" width="10" height="10" as="geometry" />
        </mxCell>
        <mxCell id="1nwxLZV6FVW2qh2XziLg-502" style="edgeStyle=orthogonalEdgeStyle;rounded=0;orthogonalLoop=1;jettySize=auto;html=1;exitX=0.5;exitY=1;exitDx=0;exitDy=0;entryX=0.25;entryY=0;entryDx=0;entryDy=0;endArrow=none;endFill=0;" edge="1" parent="1" source="1nwxLZV6FVW2qh2XziLg-498" target="1nwxLZV6FVW2qh2XziLg-201">
          <mxGeometry relative="1" as="geometry" />
        </mxCell>
        <mxCell id="1nwxLZV6FVW2qh2XziLg-498" value="" style="ellipse;whiteSpace=wrap;html=1;aspect=fixed;" vertex="1" parent="1">
          <mxGeometry x="-430" y="1204.38" width="10" height="10" as="geometry" />
        </mxCell>
        <mxCell id="1nwxLZV6FVW2qh2XziLg-500" style="edgeStyle=orthogonalEdgeStyle;rounded=0;orthogonalLoop=1;jettySize=auto;html=1;exitX=0.5;exitY=1;exitDx=0;exitDy=0;entryX=0.75;entryY=0;entryDx=0;entryDy=0;startArrow=none;startFill=0;endArrow=none;endFill=0;" edge="1" parent="1" source="1nwxLZV6FVW2qh2XziLg-499" target="1nwxLZV6FVW2qh2XziLg-201">
          <mxGeometry relative="1" as="geometry" />
        </mxCell>
        <mxCell id="1nwxLZV6FVW2qh2XziLg-499" value="" style="ellipse;whiteSpace=wrap;html=1;aspect=fixed;fillStyle=solid;fillColor=#000000;" vertex="1" parent="1">
          <mxGeometry x="-380" y="1208.75" width="10" height="10" as="geometry" />
        </mxCell>
        <mxCell id="1nwxLZV6FVW2qh2XziLg-501" value="Numero" style="text;html=1;align=center;verticalAlign=middle;resizable=0;points=[];autosize=1;strokeColor=none;fillColor=none;" vertex="1" parent="1">
          <mxGeometry x="-410" y="1184.38" width="70" height="30" as="geometry" />
        </mxCell>
        <mxCell id="2AI2-PvDSzkwWwsy-X7Z-193" style="edgeStyle=orthogonalEdgeStyle;rounded=0;orthogonalLoop=1;jettySize=auto;html=1;exitX=0.5;exitY=0;exitDx=0;exitDy=0;endArrow=none;endFill=0;" edge="1" parent="1" source="2AI2-PvDSzkwWwsy-X7Z-188">
          <mxGeometry relative="1" as="geometry">
            <mxPoint x="-871.953488372093" y="1800.0000000000002" as="targetPoint" />
          </mxGeometry>
        </mxCell>
        <mxCell id="2AI2-PvDSzkwWwsy-X7Z-188" value="" style="ellipse;whiteSpace=wrap;html=1;aspect=fixed;" vertex="1" parent="1">
          <mxGeometry x="-877" y="1820" width="10" height="10" as="geometry" />
        </mxCell>
        <mxCell id="2AI2-PvDSzkwWwsy-X7Z-194" style="edgeStyle=orthogonalEdgeStyle;rounded=0;orthogonalLoop=1;jettySize=auto;html=1;exitX=0.5;exitY=0;exitDx=0;exitDy=0;endArrow=none;endFill=0;" edge="1" parent="1" source="2AI2-PvDSzkwWwsy-X7Z-189">
          <mxGeometry relative="1" as="geometry">
            <mxPoint x="-910.0930232558139" y="1800.0000000000002" as="targetPoint" />
          </mxGeometry>
        </mxCell>
        <mxCell id="2AI2-PvDSzkwWwsy-X7Z-189" value="" style="ellipse;whiteSpace=wrap;html=1;aspect=fixed;" vertex="1" parent="1">
          <mxGeometry x="-915" y="1850" width="10" height="10" as="geometry" />
        </mxCell>
        <mxCell id="2AI2-PvDSzkwWwsy-X7Z-190" value="" style="ellipse;whiteSpace=wrap;html=1;aspect=fixed;" vertex="1" parent="1">
          <mxGeometry x="-849" y="1850" width="10" height="10" as="geometry" />
        </mxCell>
        <mxCell id="1nwxLZV6FVW2qh2XziLg-503" value="Nome&lt;br&gt;Titolare" style="text;html=1;align=center;verticalAlign=middle;resizable=0;points=[];autosize=1;strokeColor=none;fillColor=none;" vertex="1" parent="1">
          <mxGeometry x="-455" y="1168.75" width="60" height="40" as="geometry" />
        </mxCell>
        <mxCell id="1nwxLZV6FVW2qh2XziLg-504" style="edgeStyle=orthogonalEdgeStyle;rounded=1;orthogonalLoop=1;jettySize=auto;html=1;exitX=0.5;exitY=1;exitDx=0;exitDy=0;entryX=0;entryY=0.25;entryDx=0;entryDy=0;endArrow=none;endFill=0;curved=0;" edge="1" parent="1" source="1nwxLZV6FVW2qh2XziLg-497" target="1nwxLZV6FVW2qh2XziLg-201">
          <mxGeometry relative="1" as="geometry" />
        </mxCell>
        <mxCell id="2AI2-PvDSzkwWwsy-X7Z-191" style="edgeStyle=orthogonalEdgeStyle;rounded=0;orthogonalLoop=1;jettySize=auto;html=1;exitX=1;exitY=0.5;exitDx=0;exitDy=0;endArrow=none;endFill=0;" edge="1" parent="1" source="2AI2-PvDSzkwWwsy-X7Z-186">
          <mxGeometry relative="1" as="geometry">
            <mxPoint x="-940" y="1797" as="targetPoint" />
          </mxGeometry>
        </mxCell>
        <mxCell id="2AI2-PvDSzkwWwsy-X7Z-195" style="edgeStyle=orthogonalEdgeStyle;rounded=0;orthogonalLoop=1;jettySize=auto;html=1;exitX=0.5;exitY=0;exitDx=0;exitDy=0;entryX=0.961;entryY=0.998;entryDx=0;entryDy=0;entryPerimeter=0;endArrow=none;endFill=0;" edge="1" parent="1" source="2AI2-PvDSzkwWwsy-X7Z-190" target="1nwxLZV6FVW2qh2XziLg-143">
          <mxGeometry relative="1" as="geometry" />
        </mxCell>
        <mxCell id="2AI2-PvDSzkwWwsy-X7Z-187" value="" style="ellipse;whiteSpace=wrap;html=1;aspect=fixed;" vertex="1" parent="1">
          <mxGeometry x="-945" y="1820" width="10" height="10" as="geometry" />
        </mxCell>
        <mxCell id="1nwxLZV6FVW2qh2XziLg-505" value="Cognome&lt;br&gt;Titolare" style="text;html=1;align=center;verticalAlign=middle;resizable=0;points=[];autosize=1;strokeColor=none;fillColor=none;" vertex="1" parent="1">
          <mxGeometry x="-512" y="1193.75" width="80" height="40" as="geometry" />
        </mxCell>
        <mxCell id="2AI2-PvDSzkwWwsy-X7Z-192" style="edgeStyle=orthogonalEdgeStyle;rounded=0;orthogonalLoop=1;jettySize=auto;html=1;exitX=0.5;exitY=0;exitDx=0;exitDy=0;entryX=0;entryY=0.75;entryDx=0;entryDy=0;endArrow=none;endFill=0;" edge="1" parent="1" source="2AI2-PvDSzkwWwsy-X7Z-187" target="1nwxLZV6FVW2qh2XziLg-143">
          <mxGeometry relative="1" as="geometry" />
        </mxCell>
        <mxCell id="1nwxLZV6FVW2qh2XziLg-507" value="Data&lt;br&gt;Scadenza" style="text;html=1;align=center;verticalAlign=middle;resizable=0;points=[];autosize=1;strokeColor=none;fillColor=none;" vertex="1" parent="1">
          <mxGeometry x="-582" y="1280" width="80" height="40" as="geometry" />
        </mxCell>
        <mxCell id="2AI2-PvDSzkwWwsy-X7Z-196" value="" style="ellipse;whiteSpace=wrap;html=1;aspect=fixed;fillStyle=solid;fillColor=#000000;" vertex="1" parent="1">
          <mxGeometry x="-1202" y="1325" width="10" height="10" as="geometry" />
        </mxCell>
        <mxCell id="1nwxLZV6FVW2qh2XziLg-509" value="CVV" style="text;html=1;align=center;verticalAlign=middle;resizable=0;points=[];autosize=1;strokeColor=none;fillColor=none;" vertex="1" parent="1">
          <mxGeometry x="-512" y="1325" width="50" height="30" as="geometry" />
        </mxCell>
        <mxCell id="2AI2-PvDSzkwWwsy-X7Z-198" value="Nome" style="text;html=1;align=center;verticalAlign=middle;resizable=0;points=[];autosize=1;strokeColor=none;fillColor=none;" vertex="1" parent="1">
          <mxGeometry x="-1227" y="1300" width="60" height="30" as="geometry" />
        </mxCell>
        <mxCell id="2AI2-PvDSzkwWwsy-X7Z-197" style="edgeStyle=orthogonalEdgeStyle;rounded=0;orthogonalLoop=1;jettySize=auto;html=1;exitX=0.5;exitY=1;exitDx=0;exitDy=0;entryX=0.125;entryY=0.004;entryDx=0;entryDy=0;entryPerimeter=0;endArrow=none;endFill=0;" edge="1" parent="1" source="2AI2-PvDSzkwWwsy-X7Z-196" target="1nwxLZV6FVW2qh2XziLg-236">
          <mxGeometry relative="1" as="geometry" />
        </mxCell>
        <mxCell id="2AI2-PvDSzkwWwsy-X7Z-200" style="edgeStyle=orthogonalEdgeStyle;rounded=0;orthogonalLoop=1;jettySize=auto;html=1;exitX=0.5;exitY=1;exitDx=0;exitDy=0;entryX=0.5;entryY=0;entryDx=0;entryDy=0;endArrow=none;endFill=0;" edge="1" parent="1" source="2AI2-PvDSzkwWwsy-X7Z-199" target="1nwxLZV6FVW2qh2XziLg-241">
          <mxGeometry relative="1" as="geometry" />
        </mxCell>
        <mxCell id="2AI2-PvDSzkwWwsy-X7Z-199" value="" style="ellipse;whiteSpace=wrap;html=1;aspect=fixed;fillStyle=solid;fillColor=#000000;" vertex="1" parent="1">
          <mxGeometry x="-1395" y="1512.5" width="10" height="10" as="geometry" />
        </mxCell>
        <mxCell id="2AI2-PvDSzkwWwsy-X7Z-201" value="NomeLingua" style="text;html=1;align=center;verticalAlign=middle;resizable=0;points=[];autosize=1;strokeColor=none;fillColor=none;" vertex="1" parent="1">
          <mxGeometry x="-1435" y="1485" width="90" height="30" as="geometry" />
        </mxCell>
        <mxCell id="2AI2-PvDSzkwWwsy-X7Z-202" value="" style="ellipse;whiteSpace=wrap;html=1;aspect=fixed;fillColor=#000000;" vertex="1" parent="1">
          <mxGeometry x="-87" y="1225.63" width="10" height="10" as="geometry" />
        </mxCell>
        <mxCell id="2AI2-PvDSzkwWwsy-X7Z-208" style="edgeStyle=orthogonalEdgeStyle;rounded=0;orthogonalLoop=1;jettySize=auto;html=1;exitX=0.5;exitY=1;exitDx=0;exitDy=0;entryX=0.5;entryY=0;entryDx=0;entryDy=0;endArrow=none;endFill=0;" edge="1" parent="1" source="2AI2-PvDSzkwWwsy-X7Z-203" target="1nwxLZV6FVW2qh2XziLg-192">
          <mxGeometry relative="1" as="geometry" />
        </mxCell>
        <mxCell id="2AI2-PvDSzkwWwsy-X7Z-203" value="" style="ellipse;whiteSpace=wrap;html=1;aspect=fixed;" vertex="1" parent="1">
          <mxGeometry x="-65" y="1245.63" width="10" height="10" as="geometry" />
        </mxCell>
        <mxCell id="2AI2-PvDSzkwWwsy-X7Z-204" value="" style="ellipse;whiteSpace=wrap;html=1;aspect=fixed;" vertex="1" parent="1">
          <mxGeometry x="-75" y="1235.63" width="10" height="10" as="geometry" />
        </mxCell>
        <mxCell id="2AI2-PvDSzkwWwsy-X7Z-206" style="edgeStyle=orthogonalEdgeStyle;rounded=0;orthogonalLoop=1;jettySize=auto;html=1;exitX=0.5;exitY=1;exitDx=0;exitDy=0;entryX=0.277;entryY=-0.014;entryDx=0;entryDy=0;entryPerimeter=0;endArrow=none;endFill=0;" edge="1" parent="1" source="2AI2-PvDSzkwWwsy-X7Z-202" target="1nwxLZV6FVW2qh2XziLg-192">
          <mxGeometry relative="1" as="geometry" />
        </mxCell>
        <mxCell id="2AI2-PvDSzkwWwsy-X7Z-207" style="edgeStyle=orthogonalEdgeStyle;rounded=0;orthogonalLoop=1;jettySize=auto;html=1;exitX=0.5;exitY=1;exitDx=0;exitDy=0;entryX=0.4;entryY=0;entryDx=0;entryDy=0;entryPerimeter=0;endArrow=none;endFill=0;" edge="1" parent="1" source="2AI2-PvDSzkwWwsy-X7Z-204" target="1nwxLZV6FVW2qh2XziLg-192">
          <mxGeometry relative="1" as="geometry" />
        </mxCell>
        <mxCell id="2AI2-PvDSzkwWwsy-X7Z-209" value="Numero" style="text;html=1;align=center;verticalAlign=middle;resizable=0;points=[];autosize=1;strokeColor=none;fillColor=none;" vertex="1" parent="1">
          <mxGeometry x="-117" y="1203.75" width="70" height="30" as="geometry" />
        </mxCell>
        <mxCell id="2AI2-PvDSzkwWwsy-X7Z-210" value="DataEmissione" style="text;html=1;align=center;verticalAlign=middle;resizable=0;points=[];autosize=1;strokeColor=none;fillColor=none;" vertex="1" parent="1">
          <mxGeometry x="-75" y="1218.75" width="100" height="30" as="geometry" />
        </mxCell>
        <mxCell id="2AI2-PvDSzkwWwsy-X7Z-211" value="Importo" style="text;html=1;align=center;verticalAlign=middle;resizable=0;points=[];autosize=1;strokeColor=none;fillColor=none;" vertex="1" parent="1">
          <mxGeometry x="-65" y="1235.63" width="60" height="30" as="geometry" />
        </mxCell>
        <mxCell id="2AI2-PvDSzkwWwsy-X7Z-213" value="" style="ellipse;whiteSpace=wrap;html=1;aspect=fixed;" vertex="1" parent="1">
          <mxGeometry x="-30" y="2042.5" width="10" height="10" as="geometry" />
        </mxCell>
        <mxCell id="2AI2-PvDSzkwWwsy-X7Z-225" style="edgeStyle=orthogonalEdgeStyle;rounded=0;orthogonalLoop=1;jettySize=auto;html=1;exitX=0.5;exitY=0;exitDx=0;exitDy=0;entryX=0.75;entryY=1;entryDx=0;entryDy=0;endArrow=none;endFill=0;" edge="1" parent="1" source="2AI2-PvDSzkwWwsy-X7Z-214" target="1nwxLZV6FVW2qh2XziLg-182">
          <mxGeometry relative="1" as="geometry" />
        </mxCell>
        <mxCell id="2AI2-PvDSzkwWwsy-X7Z-214" value="" style="ellipse;whiteSpace=wrap;html=1;aspect=fixed;" vertex="1" parent="1">
          <mxGeometry x="-40" y="2030" width="10" height="10" as="geometry" />
        </mxCell>
        <mxCell id="2AI2-PvDSzkwWwsy-X7Z-215" value="" style="ellipse;whiteSpace=wrap;html=1;aspect=fixed;" vertex="1" parent="1">
          <mxGeometry x="-50" y="2020" width="10" height="10" as="geometry" />
        </mxCell>
        <mxCell id="2AI2-PvDSzkwWwsy-X7Z-216" value="" style="ellipse;whiteSpace=wrap;html=1;aspect=fixed;" vertex="1" parent="1">
          <mxGeometry x="-60" y="2010" width="10" height="10" as="geometry" />
        </mxCell>
        <mxCell id="2AI2-PvDSzkwWwsy-X7Z-217" value="" style="ellipse;whiteSpace=wrap;html=1;aspect=fixed;fillColor=#000000;" vertex="1" parent="1">
          <mxGeometry x="-100" y="1912.5" width="10" height="10" as="geometry" />
        </mxCell>
        <mxCell id="2AI2-PvDSzkwWwsy-X7Z-218" value="" style="ellipse;whiteSpace=wrap;html=1;aspect=fixed;" vertex="1" parent="1">
          <mxGeometry x="-72" y="2000" width="10" height="10" as="geometry" />
        </mxCell>
        <mxCell id="2AI2-PvDSzkwWwsy-X7Z-219" value="Tipo" style="text;html=1;align=center;verticalAlign=middle;resizable=0;points=[];autosize=1;strokeColor=none;fillColor=none;" vertex="1" parent="1">
          <mxGeometry x="-122" y="1887.75" width="50" height="30" as="geometry" />
        </mxCell>
        <mxCell id="2AI2-PvDSzkwWwsy-X7Z-220" style="edgeStyle=orthogonalEdgeStyle;rounded=0;orthogonalLoop=1;jettySize=auto;html=1;exitX=0.5;exitY=1;exitDx=0;exitDy=0;entryX=0.152;entryY=-0.003;entryDx=0;entryDy=0;entryPerimeter=0;endArrow=none;endFill=0;" edge="1" parent="1" source="2AI2-PvDSzkwWwsy-X7Z-217" target="1nwxLZV6FVW2qh2XziLg-182">
          <mxGeometry relative="1" as="geometry" />
        </mxCell>
        <mxCell id="2AI2-PvDSzkwWwsy-X7Z-221" style="edgeStyle=orthogonalEdgeStyle;rounded=0;orthogonalLoop=1;jettySize=auto;html=1;exitX=0.5;exitY=0;exitDx=0;exitDy=0;entryX=0.428;entryY=0.996;entryDx=0;entryDy=0;entryPerimeter=0;endArrow=none;endFill=0;" edge="1" parent="1" source="2AI2-PvDSzkwWwsy-X7Z-218" target="1nwxLZV6FVW2qh2XziLg-182">
          <mxGeometry relative="1" as="geometry" />
        </mxCell>
        <mxCell id="2AI2-PvDSzkwWwsy-X7Z-222" style="edgeStyle=orthogonalEdgeStyle;rounded=0;orthogonalLoop=1;jettySize=auto;html=1;exitX=0.5;exitY=0;exitDx=0;exitDy=0;entryX=0.55;entryY=1.009;entryDx=0;entryDy=0;entryPerimeter=0;endArrow=none;endFill=0;" edge="1" parent="1" source="2AI2-PvDSzkwWwsy-X7Z-216" target="1nwxLZV6FVW2qh2XziLg-182">
          <mxGeometry relative="1" as="geometry" />
        </mxCell>
        <mxCell id="2AI2-PvDSzkwWwsy-X7Z-224" style="edgeStyle=orthogonalEdgeStyle;rounded=0;orthogonalLoop=1;jettySize=auto;html=1;exitX=0.5;exitY=0;exitDx=0;exitDy=0;entryX=0.653;entryY=1.007;entryDx=0;entryDy=0;entryPerimeter=0;endArrow=none;endFill=0;" edge="1" parent="1" source="2AI2-PvDSzkwWwsy-X7Z-215" target="1nwxLZV6FVW2qh2XziLg-182">
          <mxGeometry relative="1" as="geometry" />
        </mxCell>
        <mxCell id="2AI2-PvDSzkwWwsy-X7Z-226" style="edgeStyle=orthogonalEdgeStyle;rounded=0;orthogonalLoop=1;jettySize=auto;html=1;exitX=0.5;exitY=0;exitDx=0;exitDy=0;entryX=0.849;entryY=1.008;entryDx=0;entryDy=0;entryPerimeter=0;endArrow=none;endFill=0;" edge="1" parent="1" source="2AI2-PvDSzkwWwsy-X7Z-213" target="1nwxLZV6FVW2qh2XziLg-182">
          <mxGeometry relative="1" as="geometry" />
        </mxCell>
        <mxCell id="2AI2-PvDSzkwWwsy-X7Z-227" value="Durata" style="text;html=1;align=center;verticalAlign=middle;resizable=0;points=[];autosize=1;strokeColor=none;fillColor=none;" vertex="1" parent="1">
          <mxGeometry x="-122" y="1990" width="60" height="30" as="geometry" />
        </mxCell>
        <mxCell id="2AI2-PvDSzkwWwsy-X7Z-228" value="Offline" style="text;html=1;align=center;verticalAlign=middle;resizable=0;points=[];autosize=1;strokeColor=none;fillColor=none;" vertex="1" parent="1">
          <mxGeometry x="-110" y="2000" width="60" height="30" as="geometry" />
        </mxCell>
        <mxCell id="2AI2-PvDSzkwWwsy-X7Z-229" value="NumeroDispositivi" style="text;html=1;align=center;verticalAlign=middle;resizable=0;points=[];autosize=1;strokeColor=none;fillColor=none;" vertex="1" parent="1">
          <mxGeometry x="-160" y="2012.5" width="120" height="30" as="geometry" />
        </mxCell>
        <mxCell id="2AI2-PvDSzkwWwsy-X7Z-230" value="RisoluzioneMassima" style="text;html=1;align=center;verticalAlign=middle;resizable=0;points=[];autosize=1;strokeColor=none;fillColor=none;" vertex="1" parent="1">
          <mxGeometry x="-160" y="2025" width="130" height="30" as="geometry" />
        </mxCell>
        <mxCell id="2AI2-PvDSzkwWwsy-X7Z-231" value="Prezzo" style="text;html=1;align=center;verticalAlign=middle;resizable=0;points=[];autosize=1;strokeColor=none;fillColor=none;" vertex="1" parent="1">
          <mxGeometry x="-80" y="2037.5" width="60" height="30" as="geometry" />
        </mxCell>
        <mxCell id="2AI2-PvDSzkwWwsy-X7Z-232" value="NumeroPremiVinti" style="text;html=1;align=center;verticalAlign=middle;resizable=0;points=[];autosize=1;strokeColor=none;fillColor=none;" vertex="1" parent="1">
          <mxGeometry x="-1027" y="1184.38" width="120" height="30" as="geometry" />
        </mxCell>
        <mxCell id="2AI2-PvDSzkwWwsy-X7Z-234" style="edgeStyle=orthogonalEdgeStyle;rounded=0;orthogonalLoop=1;jettySize=auto;html=1;exitX=0.5;exitY=1;exitDx=0;exitDy=0;entryX=0.104;entryY=-0.006;entryDx=0;entryDy=0;entryPerimeter=0;endArrow=none;endFill=0;" edge="1" parent="1" source="1nwxLZV6FVW2qh2XziLg-450" target="1nwxLZV6FVW2qh2XziLg-237">
          <mxGeometry relative="1" as="geometry" />
        </mxCell>
      </root>
    </mxGraphModel>
  </diagram>
</mxfile>
